SplineFontDB: 3.0
FontName: SantaBarbaraStreets
FullName: Santa Barbara Streets
FamilyName: SantaBarbaraStreets
Weight: Medium
Copyright: Created by George Williams with FontForge 2.0 (http://fontforge.sf.net)
UComments: "2013-1-31: Created." 
Version: 001.000
ItalicAngle: 0
UnderlinePosition: -100
UnderlineWidth: 50
Ascent: 800
Descent: 200
LayerCount: 2
Layer: 0 0 "Back"  1
Layer: 1 0 "Fore"  0
NeedsXUIDChange: 1
XUID: [1021 964 2052049571 13569794]
FSType: 8
OS2Version: 0
OS2_WeightWidthSlopeOnly: 0
OS2_UseTypoMetrics: 1
CreationTime: 1359665098
ModificationTime: 1361587672
PfmFamily: 17
TTFWeight: 500
TTFWidth: 5
LineGap: 90
VLineGap: 0
OS2TypoAscent: 0
OS2TypoAOffset: 1
OS2TypoDescent: 0
OS2TypoDOffset: 1
OS2TypoLinegap: 90
OS2WinAscent: 0
OS2WinAOffset: 1
OS2WinDescent: 0
OS2WinDOffset: 1
HheadAscent: 0
HheadAOffset: 1
HheadDescent: 0
HheadDOffset: 1
OS2Vendor: 'PfEd'
Lookup: 1 0 0 "dull but fullsized digits"  {"dull but fullsized digits-1" ("ss02" ) } ['ss02' ('DFLT' <'dflt' > 'latn' <'dflt' > ) ]
Lookup: 4 0 0 "Small ligatures for abreviations"  {"Small ligatures for abreviations-1"  } ['ss01' ('DFLT' <'dflt' > 'latn' <'dflt' > ) ]
Lookup: 1 0 0 "small digits for street numbers"  {"small digits for street numbers-1" ("ss01" ) } ['ss01' ('DFLT' <'dflt' > 'latn' <'dflt' > ) ]
Lookup: 4 0 1 "Standard Ligatures in Latin"  {"Standard Ligatures in Latin-1"  } ['liga' ('DFLT' <'dflt' > 'latn' <'dflt' > ) ]
Lookup: 1 0 0 "'smcp' Lowercase to Small Capitals in Latin lookup 0"  {"'smcp' Lowercase to Small Capitals in Latin lookup 0 subtable"  } ['smcp' ('latn' <'dflt' > ) ]
Lookup: 1 0 0 "'c2sc' Capitals to Small Capitals in Latin lookup 0"  {"'c2sc' Capitals to Small Capitals in Latin lookup 0 subtable"  } ['c2sc' ('latn' <'dflt' > ) ]
Lookup: 258 0 0 "Latin Kerning"  {"Latin Kerning-1" [150,15,2] } ['kern' ('DFLT' <'dflt' > 'latn' <'dflt' > ) ]
MarkAttachClasses: 1
DEI: 91125

StartChar: A
Encoding: 65 65 0
Width: 357
VWidth: 0
Flags: W
HStem: 182 76<123.824 221.5> 616 20G<169.5 230.67> 616 20G<169.5 230.67>
VStem: 26 92<80.3377 367.417> 231.5 90<32.0369 179.96>
LayerCount: 2
Back
Fore
SplineSet
180 476 m 1x98
 135.331 392.472 128 307.5 122 243.5 c 1
 161 257.5 193.892 258.276 221.5 258 c 1
 225.33 336.238 202.107 408.198 180 476 c 1x98
106.5 0 m 0
 46.5 0 26 123 26 215 c 0
 26 379 118.5 636 220.5 636 c 4xd8
 240.84 636 261.459 621.966 262.5 606 c 0
 263.73 587.133 255.48 573 241.249 557 c 0
 236.65 551.83 231.393 544.688 235.201 538 c 0
 295 433 315.424 341.263 321.5 208.5 c 8
 325.693 116.883 326.5 -17.5 256.5 -17.5 c 0
 228 -17.5 210.5 6.17383 210.5 31 c 0
 210.5 52.5 231.5 114 231.5 154 c 0
 231.5 172.252 216.021 182 194 182 c 0
 168 182 176 182 146 182 c 0
 119.104 182 118 163.774 118 147 c 0
 118 99.5 153.5 74 153.5 34 c 0
 153.5 11.377 131.5 0 106.5 0 c 0
EndSplineSet
Substitution2: "small digits for street numbers-1" A.ss01
Substitution2: "'c2sc' Capitals to Small Capitals in Latin lookup 0 subtable" a.sc
EndChar

StartChar: B
Encoding: 66 66 1
Width: 358
VWidth: 0
Flags: W
HStem: 0 91<157.188 195.57> 284 89<148.281 195.068> 543 92<130.013 221.619>
VStem: 216 97<111.067 276.38> 226 93<411.787 540.428>
LayerCount: 2
Back
Fore
SplineSet
186 543 m 0xe8
 181 543 177 541 168 536 c 1
 160 502 144 432 144 405 c 0
 144 390 150 373 165 373 c 0
 207 373 226 479 226 501 c 0
 226 524 220 543 186 543 c 0xe8
148 272 m 9
 147 249 145 235 145 212 c 0
 145 165 154 91 172 91 c 0
 198 91 216 159 216 207 c 0xf0
 216 255 204 284 170 284 c 0
 160 284 154 281 148 272 c 9
79 536 m 17
 60 545 42 546 42 570 c 0
 42 602 68 632 101 632 c 0
 123 632 138 635 158 635 c 0
 254 635 319 600 319 497 c 0xe8
 319 429 290 383 255 334 c 1
 291 298 313 252 313 190 c 0
 313 105 277 0 208 0 c 0
 154 0 124 0 70 0 c 0
 53 0 44 14 44 35 c 0
 44 60 58 71 67 94 c 25
 55 256 l 25
 47 278 34 288 35 311 c 24
 36 336 51 347 61 369 c 25
 79 536 l 17
EndSplineSet
Substitution2: "small digits for street numbers-1" B.ss01
Substitution2: "'c2sc' Capitals to Small Capitals in Latin lookup 0 subtable" b.sc
EndChar

StartChar: N
Encoding: 78 78 4
Width: 424
VWidth: 0
Flags: W
HStem: -2 21G<130 156> -2 21G<130 156> 614 20G<330.5 354>
VStem: 46 87<146.496 399.975> 257 93<9.93851 166.994> 292 89<561.417 626.283>
LayerCount: 2
Back
Fore
SplineSet
232 448 m 9xb8
 255 509 259 547 292 603 c 24
 304 623 319 634 342 634 c 0
 366 634 381 618 381 597 c 0xb4
 381 536 317 466 317 318 c 0
 317 210 354 103 350 43 c 0
 348 18 329 -2 304 0 c 24
 278 2 263 22 257 48 c 0
 232 154 235 268 160 394 c 0
 139 429 132 349 133 318 c 24
 135 232 141 186 168 101 c 0
 175 80 179 68 179 46 c 0
 179 20 169 -2 143 -2 c 0
 117 -2 100 12 90 35 c 0
 63 100 48 140 46 211 c 24
 42 318 59 397 75 485 c 0
 80 512 69 534 57 553 c 0
 42 578 36 608 63 626 c 0
 92 645 129 630 148 601 c 0
 185 543 199 508 232 448 c 9xb8
EndSplineSet
Substitution2: "small digits for street numbers-1" N.ss01
Substitution2: "'c2sc' Capitals to Small Capitals in Latin lookup 0 subtable" n.sc
EndChar

StartChar: tilde
Encoding: 732 732 5
Width: 0
VWidth: 0
Flags: W
HStem: 662.15 42<122.046 364.842> 682.15 42<61.2434 284.974>
LayerCount: 2
Fore
SplineSet
31 656.15 m 21x40
 31 710.15 104 724.15 162 724.15 c 4x40
 215 724.15 241 704.15 292 704.15 c 4
 324 704.15 362 722.15 396 741.15 c 5
 397 738.15 397 735.15 397 732.15 c 4
 397 687.15 337 662.15 288 662.15 c 4x80
 223 662.15 187 684.15 122 682.15 c 28
 85 681.15 66 666.15 31 656.15 c 21x40
EndSplineSet
EndChar

StartChar: S
Encoding: 83 83 6
Width: 398
VWidth: 0
Flags: W
HStem: 0 90<142.154 222.046> 554 82<188.848 234.9>
VStem: 42.5352 110<94.8372 163.03> 55.5352 112<429.446 533.995> 243.535 95<112.073 222.258>
LayerCount: 2
Back
Fore
SplineSet
55.5352 473 m 28xd8
 52.5352 566 133.535 636 227.535 636 c 4
 279.535 636 340.535 615 340.535 567 c 4
 340.535 523 302.535 484 263.535 484 c 4
 244.535 484 229.535 505 229.535 523 c 4
 229.535 535 233.535 542 235.535 554 c 21
 206.535 554 167.535 527 167.535 490 c 4xd8
 167.535 381 338.535 339 338.535 162 c 4
 338.535 71 249.535 0 169.535 0 c 4
 85.5352 0 42.5352 24 42.5352 102 c 4
 42.5352 142 62.5352 181 107.535 181 c 4
 130.535 181 152.535 158 152.535 140 c 4xe8
 152.535 121 144.535 112 140.535 94 c 29
 147.535 92 151.535 90 159.535 90 c 4
 183.535 90 243.535 99 243.535 165 c 4
 243.535 263 60.5352 333 55.5352 473 c 28xd8
EndSplineSet
Substitution2: "small digits for street numbers-1" S.ss01
Substitution2: "'c2sc' Capitals to Small Capitals in Latin lookup 0 subtable" s.sc
EndChar

StartChar: T
Encoding: 84 84 7
Width: 400
VWidth: 0
Flags: W
HStem: 502.91 131<58.4598 124.69> 512.91 121<287.327 355.662>
VStem: 125.535 107<227.679 527.412> 143.535 113<13.4384 376.112>
LayerCount: 2
Back
Fore
SplineSet
145.535 535.91 m 29x60
 116.535 522.91 100.535 502.91 71.5352 502.91 c 4
 48.5352 502.91 33.5352 526.91 33.5352 548.91 c 4
 33.5352 609.91 76.5352 633.91 115.535 633.91 c 4xa0
 156.535 633.91 221.535 632.91 275.535 628.91 c 4
 330.535 624.91 371.535 626.91 371.535 588.91 c 4
 371.535 554.91 350.535 512.91 327.535 512.91 c 4
 307.535 512.91 300.535 525.91 282.535 537.91 c 4
 270.535 545.91 256.535 537.91 250.535 525.91 c 28
 234.535 494.91 232.535 472.91 232.535 438.91 c 4x60
 232.535 310.91 256.535 280.91 256.535 176.91 c 4
 256.535 124.91 252.535 102.91 252.535 50.9102 c 4
 252.535 32.9102 228.535 -6.08984 198.535 -6.08984 c 4
 167.535 -6.08984 137.535 11.9102 137.535 44.9102 c 4
 137.535 75.9102 143.535 111.91 143.535 154.91 c 4x50
 143.535 227.91 125.535 298.91 125.535 381.91 c 4
 125.535 441.91 137.535 475.91 145.535 535.91 c 29x60
EndSplineSet
Substitution2: "small digits for street numbers-1" T.ss01
Substitution2: "'c2sc' Capitals to Small Capitals in Latin lookup 0 subtable" t.sc
EndChar

StartChar: n
Encoding: 110 110 8
Width: 421
VWidth: 0
Flags: W
HStem: -4.01953 21G<86.5 121 291.5 337> 355.98 70<185.525 274.368>
VStem: 44 90.75<373.68 417.437> 53 101<8.57217 202.98> 58.875 85<71.9025 310.93> 295 85<106.892 336.862>
LayerCount: 2
Fore
SplineSet
96.875 425.981 m 0xe4
 138.875 425.981 135.061 382.711 134.75 373.68 c 1xe4
 160.375 405.98 181.375 425.981 241.375 425.98 c 0
 369.375 425.979 380 295.98 380 196.98 c 0
 380 120.98 373 -4.01953 301 -4.01953 c 0
 282 -4.01953 252 8.98047 252 26.9805 c 0
 252 86.9805 295 112.98 295 216.98 c 0
 295 268.98 299.375 355.98 234.375 355.98 c 0
 188.375 355.98 143.875 297.679 143.875 247.679 c 0xcc
 143.875 169.71 154 131.288 154 69 c 0
 154 33 141 -2 101 -2 c 0
 72 -2 53 29 53 60 c 0xd4
 53 118 58.875 147.645 58.875 205.68 c 0xcc
 58.875 243.679 44 305.679 44 337.679 c 0
 44 381.679 43.875 425.982 96.875 425.981 c 0xe4
EndSplineSet
Substitution2: "'smcp' Lowercase to Small Capitals in Latin lookup 0 subtable" n.sc
EndChar

StartChar: t
Encoding: 116 116 9
Width: 218
VWidth: 0
Flags: W
HStem: 336.682 89.2998<139.504 198.208>
VStem: 46.0596 87.9404<85.5938 336.67>
LayerCount: 2
Fore
SplineSet
111.499 560.981 m 0
 136.499 560.981 151.499 537.981 151.499 513.981 c 0
 151.499 503.411 139.499 425.981 139.499 425.981 c 5
 188.499 425.981 238 409.682 238 365.682 c 0
 238 344.682 224 328.682 199 328.682 c 0
 182 328.682 172 336.682 155 336.682 c 0
 134.312 336.682 138.255 321.006 134.015 308.17 c 0
 134.005 307.016 134 305.853 134 304.682 c 0
 134 266.222 127.891 217.5 132.758 137.959 c 0
 133.838 120.298 136.48 94.6738 150.457 87.6855 c 0
 179.078 73.374 201.886 47.4365 183.998 11.6592 c 0
 171.028 -14.2793 137.487 -18.752 112.443 -6.22949 c 0
 47.082 26.4512 48.9961 122.72 45.499 213.659 c 0
 43.126 276.14 50.8721 291.427 46.0596 344.052 c 1
 31.4307 350.87 23.1543 360.546 23 376.482 c 0
 22.7881 398.338 41.9365 420.438 53.499 435.981 c 1
 62.2227 477.981 66.5068 560.981 111.499 560.981 c 0
EndSplineSet
Substitution2: "'smcp' Lowercase to Small Capitals in Latin lookup 0 subtable" t.sc
EndChar

StartChar: R
Encoding: 82 82 10
Width: 352
VWidth: 0
Flags: W
HStem: -4 21G<70 107.5> 540 94<95.7276 206.876>
VStem: 39 98<7.65771 218.532> 49 73<83.1886 246.843 326 506.177> 215 99<391.259 533.632> 224 91<0.793053 139.651>
LayerCount: 2
Back
Fore
SplineSet
124 326 m 5xc8
 182 357 215 407 215 475 c 4
 215 505 208 540 174 540 c 4
 144 540 141 491 133 455 c 28
 122 406 127 376 124 326 c 5xc8
62 531 m 29
 48 540 27 542 27 555 c 4
 27 610 51 634 144 634 c 4
 248 634 314 562 314 474 c 4xd8
 314 395 277 339 223 293 c 4
 217 288 220 280 225 274 c 4
 284 200 315 115 315 45 c 4
 315 17 301 -6 265 -6 c 4
 243 -6 229 13 224 34 c 4
 206 104 206 147 182 215 c 28
 176 232 166 245 148 247 c 28
 134 248 122 235 122 221 c 4xd4
 122 168 137 138 137 79 c 4
 137 41 126 -4 89 -4 c 4
 51 -4 39 41 39 81 c 4xe0
 39 128 48 155 49 202 c 28xd0
 50 275 43 315 43 388 c 4
 43 445 55 475 62 531 c 29
EndSplineSet
Substitution2: "small digits for street numbers-1" R.ss01
Substitution2: "'c2sc' Capitals to Small Capitals in Latin lookup 0 subtable" r.sc
EndChar

StartChar: C
Encoding: 67 67 11
Width: 374
VWidth: 0
Flags: W
HStem: -1 80<174.893 243.663> 508 129<241.655 301.091>
VStem: 28.5352 107<162.053 456.037> 237.535 85<516.355 556.735> 246.535 91<81.7625 152.719>
LayerCount: 2
Back
Fore
SplineSet
28.5352 313 m 0xe8
 28.5352 476 97.5352 637 243.535 637 c 0
 284.535 637 322.535 610 322.535 568 c 0
 322.535 539 306.535 508 277.535 508 c 0
 256.535 508 243.535 521 237.535 540 c 0xf0
 230.535 562 209.535 560 201.535 548 c 0
 165.535 498 135.535 417 135.535 318 c 0
 135.535 220 149.535 79 210.535 79 c 0
 230.535 79 246.535 94 246.535 114 c 0
 246.535 141 218.535 147 218.535 173 c 0
 218.535 196 242.535 210 261.535 210 c 0
 313.535 211 337.535 169 337.535 123 c 0
 337.535 51 295.535 -1 231.535 -1 c 0
 84.5352 -1 28.5352 167 28.5352 313 c 0xe8
EndSplineSet
Substitution2: "small digits for street numbers-1" C.ss01
Substitution2: "'c2sc' Capitals to Small Capitals in Latin lookup 0 subtable" c.sc
EndChar

StartChar: D
Encoding: 68 68 12
Width: 388
VWidth: 0
Flags: W
HStem: -2 21G<138 235> -2 21G<138 235> 615 20G<117.5 222>
VStem: 92 82<69.3806 311.75 475.147 532.643> 256 98<179.895 490.277>
LayerCount: 2
Back
Fore
SplineSet
180 533 m 5x38
 155 351 181 224 174 69 c 5
 247 87 255 238 256 354 c 28
 257 430 252 513 180 533 c 5x38
71 303 m 4
 70 391 83 445 92 502 c 4
 95 520 97 538 77 546 c 4
 66 551 58 560 58 572 c 4
 58 619 101 635 134 635 c 4
 310 635 354 504 354 369 c 4
 354 205 315 -2 155 -2 c 4xb8
 121 -2 77 -3 77 36 c 4
 77 64 92 79 92 106 c 4
 92 149 72 196 71 303 c 4
EndSplineSet
Substitution2: "small digits for street numbers-1" D.ss01
Substitution2: "'c2sc' Capitals to Small Capitals in Latin lookup 0 subtable" d.sc
EndChar

StartChar: E
Encoding: 69 69 13
Width: 332
VWidth: 0
Flags: W
HStem: -2 99<165.723 287.71> 292 84<150.233 213.208> 531 104<171.576 299.622>
VStem: 19 234<292.266 361.643> 42 273<537.303 612.697> 53 97<376.293 509.185>
LayerCount: 2
Back
Fore
SplineSet
53 381 m 21xe4
 55 430 62 480 72 529 c 1
 54 537 42 555 42 568 c 0xe8
 42 618 90 635 150 635 c 0xe4
 271 635 315 636 315 565 c 0xe8
 315 539 292 531 266 531 c 0
 242 531 229 537 205 537 c 0
 189 537 177 529 173 514 c 0
 163 480 150 441 150 393 c 4xe4
 150 373 152 376 168 376 c 4
 217 376 253 365 253 321 c 4
 253 300 239 284 214 284 c 4
 197 284 187 292 170 292 c 4
 145 292 145 273 145 256 c 28
 143 201 153 171 165 117 c 24
 167 107 172 98 181 97 c 0
 234 93 302 96 302 42 c 0
 302 18 284 -2 260 -2 c 0
 222 -2 201 12 164 12 c 0
 137 12 119 4 94 4 c 0
 73 4 46 12 46 34 c 0
 46 59 59 69 78 89 c 1
 67 155 60 217 54 278 c 5
 32 285 19 295 19 315 c 28xf0
 19 344 40 355 53 381 c 21xe4
EndSplineSet
Substitution2: "small digits for street numbers-1" E.ss01
Substitution2: "'c2sc' Capitals to Small Capitals in Latin lookup 0 subtable" e.sc
EndChar

StartChar: F
Encoding: 70 70 14
Width: 360
VWidth: 0
Flags: W
HStem: -3 21G<129 164.5> -3 21G<129 164.5> 282 90<173.348 266.206> 547 86<194.015 313.672>
VStem: 86 113<13.4008 149.85>
LayerCount: 2
Back
Fore
SplineSet
98 527 m 5xb8
 75 534 57 548 57 563 c 4
 57 627 163 633 208 633 c 4
 263 633 340 625 340 579 c 4
 340 553 329 531 308 531 c 4
 284 531 268 547 232 547 c 4
 210 547 197 543 190 512 c 4
 178 459 175 429 173 375 c 13
 193 374 204 375 224 372 c 4
 252 367 275 355 275 319 c 4
 275 301 267 282 247 282 c 4
 203 282 198 294 168 291 c 13
 167 271 165 259 165 239 c 4
 165 159 199 96 199 49 c 4
 199 21 181 -3 148 -3 c 4
 110 -3 92 26 86 64 c 4
 74 145 73 192 65 274 c 21
 53 286 38 298 38 320 c 4
 38 346 57 360 73 377 c 5
 79 426 86 471 98 527 c 5xb8
EndSplineSet
Substitution2: "small digits for street numbers-1" F.ss01
Substitution2: "'c2sc' Capitals to Small Capitals in Latin lookup 0 subtable" f.sc
EndChar

StartChar: G
Encoding: 71 71 15
Width: 404
VWidth: 0
Flags: W
HStem: -6 90<169.024 239.322> 287 103<172.935 256> 569 73<189.251 252.482>
VStem: 31 94<165.469 458.175> 252 111<96.6004 288.596>
LayerCount: 2
Back
Fore
SplineSet
283 390 m 0
 364 390 363 357 363 264 c 0
 363 216.54 361.925 164.565 349 119 c 0
 329.12 48.9174 285.999 -6 213 -6 c 0
 92 -6 31 173.069 31 318 c 0
 31 467 102 642 240 642 c 0
 291.629 642 337 604.629 337 553 c 0
 337 528 324.023 508 301 508 c 0
 270 508 263.888 519.717 256 540 c 0
 249 558 241.555 569 225 569 c 0
 161 569 125 407 125 288 c 0
 125 203.233 151 84 200 84 c 0
 230.965 84 250.968 113.052 252 144 c 0
 254 204 254.44 234.28 256 292 c 25
 231.43 290.05 217 287 193 287 c 0
 174.505 287 161 291 161 322 c 0
 161 384 191 390 283 390 c 0
EndSplineSet
Substitution2: "small digits for street numbers-1" G.ss01
Substitution2: "'c2sc' Capitals to Small Capitals in Latin lookup 0 subtable" g.sc
EndChar

StartChar: U
Encoding: 85 85 16
Width: 392
VWidth: 0
Flags: W
HStem: -2.90625 79.0352<156.892 221.629>
VStem: 35.9697 95.0303<130.326 470.655> 258.021 95.9717<158.333 470.076>
LayerCount: 2
Back
Fore
SplineSet
146.995 635.024 m 0
 169.853 635.024 190.277 618.364 190.277 595.506 c 0
 190.277 537.171 131 512.707 131 245.491 c 0
 131 195.603 137.587 76.1289 186.514 76.1289 c 0
 250.494 76.1289 258.021 211.619 258.021 292.536 c 0
 258.021 454.371 216.622 495.771 216.622 589.861 c 0
 216.622 617.408 248.612 636.906 269.312 636.906 c 0
 346.467 636.906 353.993 450.607 353.993 337.7 c 0
 353.993 190.944 312.594 -2.90625 194.041 -2.90625 c 0
 54.7871 -2.90625 35.9697 192.801 35.9697 333.937 c 0
 35.9697 459.09 64.1963 635.024 146.995 635.024 c 0
EndSplineSet
Substitution2: "small digits for street numbers-1" U.ss01
Substitution2: "'c2sc' Capitals to Small Capitals in Latin lookup 0 subtable" u.sc
EndChar

StartChar: V
Encoding: 86 86 17
Width: 434
VWidth: 0
Flags: W
HStem: 613 20G<100.5 153 281 322.5>
VStem: 47 103<242.073 512.597> 286 100<228.818 486.09>
LayerCount: 2
Back
Fore
SplineSet
47 372 m 28
 42 480 61 633 140 633 c 4
 166 633 184 609 184 583 c 4
 184 503 150 517 150 335 c 4
 150 232 188 154 219 112 c 5
 268 159 286 236 286 322 c 4
 286 525 224 535 224 594 c 4
 224 625 270 637 292 637 c 4
 353 637 386 484 386 364 c 4
 386 205 277 -7 213 -7 c 4
 188 -7 161 20 161 37 c 4
 161 48 163 47 167 59 c 5
 109 110 53 241 47 372 c 28
EndSplineSet
Substitution2: "small digits for street numbers-1" V.ss01
Substitution2: "'c2sc' Capitals to Small Capitals in Latin lookup 0 subtable" v.sc
EndChar

StartChar: W
Encoding: 87 87 18
Width: 442
VWidth: 0
Flags: W
HStem: -4 21G<144 197.5> 618 20G<90 134> 618 20G<90 134 337.5 373>
VStem: 52 95<266.302 594.25> 294 107<277.444 609.871>
LayerCount: 2
Back
Fore
SplineSet
52 433 m 4xd8
 52 519 58 638 122 638 c 4
 146 638 163 617 163 593 c 4
 163 519 148 474 147 397 c 28
 147 344 150 309 160 262 c 5
 173 298 179 316 194 353 c 4
 208 388 238 409 265 351 c 4
 280 319 289 300 305 268 c 29
 308 298 313 316 312 346 c 4
 310 436 294 471 294 551 c 4
 294 590 318 629 357 629 c 4
 389 629 403 563 401 516 c 28
 395 326 399 218 337 33 c 4
 330 11 318 -5 290 -5 c 4
 274 -5 262 7 262 23 c 4
 262 95 263 147 237 213 c 5
 218 185 208 142 202 96 c 13
 210 71 222 56 222 32 c 4
 222 13 207 -4 188 -4 c 4
 100 -4 52 352 52 433 c 4xd8
EndSplineSet
Substitution2: "small digits for street numbers-1" W.ss01
Substitution2: "'c2sc' Capitals to Small Capitals in Latin lookup 0 subtable" w.sc
EndChar

StartChar: X
Encoding: 88 88 19
Width: 396
VWidth: 0
Flags: W
HStem: 617.43 20G<65.2402 93.1519 312.606 337.19>
VStem: 31.4297 104.86<5.09619 174.14 502.621 624.683> 239.19 98.9795<1.29525 146.903>
LayerCount: 2
Back
Fore
SplineSet
123.55 355.19 m 9
 87.2412 444.242 30.4502 499.25 30.4502 583.53 c 0
 30.4502 611.939 51.0303 637.43 79.4502 637.43 c 0
 106.854 637.43 127.58 619.141 133.35 592.35 c 0
 147.07 528.65 161.77 485.53 182.35 440.45 c 9
 212.161 498.544 219.017 537.624 258.79 589.41 c 24
 277.995 614.415 296.842 630.57 328.37 630.57 c 0
 346.01 630.57 368.55 610.97 368.55 593.33 c 0
 368.55 576.18 358.668 564.77 344.913 539.724 c 0
 318.364 491.38 274.719 421.417 241.15 360.09 c 0
 231.055 341.647 230.768 324.995 240.17 306.19 c 0
 269.57 247.39 338.17 140.57 338.17 40.6104 c 0
 338.17 14.9336 320.53 -6.42969 292.11 -6.42969 c 0
 265.964 -6.42969 239.19 8.58398 239.19 34.7305 c 0
 239.19 84.71 210.77 185.65 183.33 242.49 c 1
 163.73 198.39 136.29 135.67 136.29 48.4502 c 0
 136.29 20.2607 117.439 -6.42969 89.25 -6.42969 c 0
 40.25 -6.42969 31.4297 33.3057 31.4297 70.9902 c 0
 31.4297 150.37 85.3301 256.21 123.55 355.19 c 9
EndSplineSet
Substitution2: "small digits for street numbers-1" X.ss01
Substitution2: "'c2sc' Capitals to Small Capitals in Latin lookup 0 subtable" x.sc
EndChar

StartChar: Y
Encoding: 89 89 20
Width: 362
VWidth: 0
Flags: W
HStem: -6 21G<168.5 203> 614 20G<63 114.5 252 301.5>
VStem: 32 298<503 588> 134 100<5.57269 238.753> 136 76<70.4939 323.992>
LayerCount: 2
Back
Fore
SplineSet
191 -6 m 4xd0
 146 -6 134 31 134 67 c 4xd0
 134 142 141 187 136 264 c 28xc8
 134 294 134 312 118 338 c 4
 75 407 32 477 32 550 c 4
 32 588 44 634 82 634 c 4
 147 634 127 498 168 416 c 4
 184 385 188 404 192 412 c 4
 236 500 217 635 287 635 c 4
 316 635 330 608 330 574 c 4xe0
 330 503 292 414 232 324 c 4
 214 297 212 276 212 244 c 4xc8
 212 131 234 87 234 38 c 4
 234 14 215 -6 191 -6 c 4xd0
EndSplineSet
Substitution2: "small digits for street numbers-1" Y.ss01
Substitution2: "'c2sc' Capitals to Small Capitals in Latin lookup 0 subtable" y.sc
EndChar

StartChar: Z
Encoding: 90 90 21
Width: 400
VWidth: 0
Flags: W
HStem: -2 88<155.773 316.594> 547 83<138.479 243.897>
VStem: 244 120<498.166 546.987>
LayerCount: 2
Back
Fore
SplineSet
350 55 m 0
 350 -15 250 -2 180 -2 c 0
 94 -2 53 32 53 94 c 0
 53 155 115 259 161 362 c 24
 189 425 216 454 244 518 c 0
 249 529 240 547 227 547 c 24
 181 548 143 521 112 521 c 0
 88 521 68 541 68 565 c 0
 68 631 153 631 216 630 c 24
 280 629 364 626 364 562 c 0
 364 527 347 509 332 478 c 24
 273 359 231 300 174 176 c 0
 159 143 128 86 195 86 c 0
 235 86 259 93 298 93 c 0
 323 93 350 83 350 55 c 0
EndSplineSet
Substitution2: "small digits for street numbers-1" Z.ss01
Substitution2: "'c2sc' Capitals to Small Capitals in Latin lookup 0 subtable" z.sc
EndChar

StartChar: O
Encoding: 79 79 22
Width: 348
VWidth: 0
Flags: W
HStem: -1 77<152.006 205.817> 619 20G<159 194> 619 20G<159 194>
VStem: 22 90<157.567 481.85> 229 87<115.227 429.729>
LayerCount: 2
Back
Fore
SplineSet
183 542 m 21x98
 118 503 112 411 112 320 c 4
 112 299 117 258 123 216 c 4
 132 148 147 76 178 76 c 4
 225 76 229 196 229 276 c 4
 229 434 177 484 177 514 c 4
 177 525 181 531 183 542 c 21x98
235 574 m 5
 251 552 266 549 278 525 c 4
 314 449 316 391 316 293 c 4
 316 167 290 -1 182 -1 c 4
 68 -1 22 182 22 324 c 4
 22 407 39 487 68 546 c 4
 96 603 141 639 177 639 c 4xd8
 211 639 228 611 235 574 c 5
EndSplineSet
Substitution2: "small digits for street numbers-1" O.ss01
Substitution2: "'c2sc' Capitals to Small Capitals in Latin lookup 0 subtable" o.sc
EndChar

StartChar: P
Encoding: 80 80 23
Width: 424
VWidth: 0
Flags: W
HStem: -3 21G<131 171.5> -3 21G<131 171.5> 531 103<200.258 268.396>
VStem: 77 101<326.34 508.186> 94 107<10.9804 239.874> 280 106<392.597 520.23>
LayerCount: 2
Back
Fore
SplineSet
77 383 m 28xb4
 77 426 89 468 96 493 c 4
 100 508 100 526 84 531 c 4
 71 535 58 545 58 554 c 4
 58 567 71 595 101 614 c 4
 121 626 148 634 182 634 c 4
 216 634 251 626 284 617 c 4
 353 599 386 554 386 471 c 4
 386 340 286 274 177 253 c 13
 186 195 201 164 201 105 c 4
 201 57 199 -3 144 -3 c 4
 118 -3 94 14 94 39 c 4xac
 94 80 102 102 100 142 c 28
 95 236 78 289 77 383 c 28xb4
207 537 m 5
 188 469 177 399 178 324 c 5x34
 224 344 280 394 280 461 c 4
 280 517 251 535 207 537 c 5
EndSplineSet
Substitution2: "small digits for street numbers-1" P.ss01
Substitution2: "'c2sc' Capitals to Small Capitals in Latin lookup 0 subtable" p.sc
EndChar

StartChar: Q
Encoding: 81 81 24
Width: 420
VWidth: 0
Flags: W
HStem: -4 21G<151 198>
VStem: 40 98<172.895 470.081>
LayerCount: 2
Back
Fore
SplineSet
272 567.4 m 17
 322 536.801 331.431 431.737 338 339.4 c 24
 345.356 235.994 346 172.4 307 75.4004 c 9
 332.35 64.7139 372 73 372 48 c 0
 372 31 365 21 354 9 c 0
 336 -10 311 -12 282 -12 c 0
 262 -12 252 2 234 2 c 0
 216 2 207 -4 189 -4 c 0
 113 -4 40 177.4 40 317.4 c 0
 40 463.4 100 633.944 210 635.4 c 0
 269.995 636.195 247.82 593.92 272 567.4 c 17
202 533.4 m 1
 146 497.4 138 404 138 304 c 0
 138 232 156 133.399 178 89.4004 c 1
 178 130.4 213 168 244 172 c 1
 253 209 256 247 256 288 c 0
 255 381 200 499.4 202 533.4 c 1
EndSplineSet
Substitution2: "small digits for street numbers-1" Q.ss01
Substitution2: "'c2sc' Capitals to Small Capitals in Latin lookup 0 subtable" q.sc
EndChar

StartChar: H
Encoding: 72 72 25
Width: 424
VWidth: 0
Flags: W
HStem: 282 96<159.603 224> 614 20G<284.5 339.5>
VStem: 49 124<21.3958 280.188> 49 112<80.0887 284 376 538.503> 242 103<30.8605 278.995>
LayerCount: 2
Back
Fore
SplineSet
224 282 m 13xd8
 157 284 l 21
 158 202 173 164 173 76 c 4
 173 38 145 0 103 0 c 4
 67 0 48 25 49 56 c 4xe8
 53 200 46 278 45 413 c 4
 44 511 93 644 140 644 c 4
 169 644 198 633 198 604 c 4
 198 553 150 506 161 376 c 13
 224 378 l 21
 243 486 243 634 326 634 c 4
 353 634 377 612 377 585 c 4
 377 538 326 460 326 333 c 4
 326 237 345 183 345 87 c 4
 345 38 335 -9 283 -9 c 4
 259 -9 231 1 231 29 c 4
 231 69 243 89 242 129 c 28
 240 189 226 225 224 282 c 13xd8
EndSplineSet
Substitution2: "small digits for street numbers-1" H.ss01
Substitution2: "'c2sc' Capitals to Small Capitals in Latin lookup 0 subtable" h.sc
EndChar

StartChar: I
Encoding: 73 73 26
Width: 218
VWidth: 0
Flags: W
HStem: -2 21G<94.5 131.5> -2 21G<94.5 131.5> 619 20G<113 155.5> 619 20G<113 155.5>
VStem: 48 98<164.967 493.715> 58 109<9.98273 335.015>
LayerCount: 2
Back
Fore
SplineSet
142 639 m 4xa8
 169 639 186 614 186 587 c 4
 186 514 146 471 146 359 c 4xa8
 146 307 167 165 167 69 c 4
 167 33 153 -2 110 -2 c 4
 79 -2 58 29 58 60 c 4xa4
 58 118 73 151 71 209 c 28
 68 297 48 348 48 433 c 4
 48 521 84 639 142 639 c 4xa8
EndSplineSet
Substitution2: "small digits for street numbers-1" I.ss01
Substitution2: "'c2sc' Capitals to Small Capitals in Latin lookup 0 subtable" i.sc
EndChar

StartChar: J
Encoding: 74 74 27
Width: 394
VWidth: 0
Flags: W
HStem: -1 69<129.32 207.454> 618 20G<264.035 311.535> 618 20G<264.035 311.535>
VStem: 23.5352 111<102.699 169.24> 208.535 97<167.353 517.404> 226.535 82<86.5115 360.698>
LayerCount: 2
Back
Fore
SplineSet
208.535 438 m 4xd8
 208.535 524 228.535 638 299.535 638 c 4
 323.535 638 340.535 615 340.535 591 c 4
 340.535 536 305.535 492 305.535 316 c 4xd8
 305.535 252 308.535 217 308.535 153 c 4
 308.535 43 245.535 -1 163.535 -1 c 4
 89.5352 -1 23.5352 38 23.5352 117 c 4
 23.5352 152 48.5352 186 83.5352 186 c 4
 108.535 186 134.535 167 134.535 141 c 4
 134.535 127 131.535 117 121.535 102 c 5
 131.535 84 143.535 68 164.535 68 c 4
 212.535 68 226.535 120 226.535 164 c 4xd4
 226.535 271 208.535 328 208.535 438 c 4xd8
EndSplineSet
Substitution2: "small digits for street numbers-1" J.ss01
Substitution2: "'c2sc' Capitals to Small Capitals in Latin lookup 0 subtable" j.sc
EndChar

StartChar: K
Encoding: 75 75 28
Width: 414
VWidth: 0
Flags: W
HStem: -2 21G<242.535 283.035> -2 21G<242.535 283.035> 616 20G<104.035 149.535> 616 20G<104.035 149.535 293.768 345.535>
VStem: 34.5352 111<15.6826 238.334> 210.535 103<13.5278 245.248>
LayerCount: 2
Back
Fore
SplineSet
30.5352 358 m 0xac
 30.5352 474 71.5352 636 136.535 636 c 0
 162.535 636 186.535 618 186.535 592 c 0
 186.535 568 143.535 518 134.535 454 c 1
 190.5 530.5 255 631 332.535 631 c 0
 358.535 631 382.535 612 382.535 586 c 0
 382.535 527 271.535 531 205.535 393 c 1
 285.535 307 313.535 202 313.535 114 c 4
 313.535 64 308.535 -2 257.535 -2 c 0
 227.535 -2 210.535 30 210.535 60 c 0
 210.535 182 217.535 262 160.535 311 c 1
 145.535 294 133.535 269 124.535 241 c 9
 132.726 183.67 145.535 156 145.535 94 c 0
 145.535 51 134.535 0 87.5352 0 c 0
 61.5352 0 34.5352 10 34.5352 42 c 0
 34.5352 99 45.2625 131.542 44.5352 189 c 24
 43.6982 255.131 30.5352 291 30.5352 358 c 0xac
EndSplineSet
Substitution2: "small digits for street numbers-1" K.ss01
Substitution2: "'c2sc' Capitals to Small Capitals in Latin lookup 0 subtable" k.sc
EndChar

StartChar: L
Encoding: 76 76 29
Width: 316
VWidth: 0
Flags: W
HStem: -2 21G<62.4248 91.0552> -2 21G<62.4248 91.0552> 10.6104 86.3301<124.576 243.66> 616.261 20G<95.4194 142.062> 616.261 20G<95.4194 142.062>
VStem: 32.8545 83.4199<141.277 439.698>
LayerCount: 2
Back
Fore
SplineSet
125.975 95 m 29x94
 152.077 95.7568 166.777 96.9404 192.905 96.9404 c 4
 232.675 96.9404 285.055 82.3906 285.055 45.5303 c 4
 285.055 22.2197 268.596 0.910156 245.285 0.910156 c 4
 210.365 0.910156 192.236 11.1973 157.984 10.6104 c 28x34
 125.461 10.0527 106.575 -2 75.5352 -2 c 4
 49.3145 -2 28.9746 15.46 28.9746 46.5 c 4
 28.9746 68.0107 43.5244 81.4199 60.0146 92.0908 c 13
 49.4229 204.067 32.8545 268.63 32.8545 379.21 c 4
 32.8545 455.841 60.9844 636.261 129.854 636.261 c 4
 154.269 636.261 170.595 613.146 170.595 588.73 c 4
 170.595 555.75 116.274 429.65 116.274 209.46 c 4
 116.274 166.134 122.191 139.64 125.975 95 c 29x94
EndSplineSet
Substitution2: "small digits for street numbers-1" L.ss01
Substitution2: "'c2sc' Capitals to Small Capitals in Latin lookup 0 subtable" l.sc
EndChar

StartChar: M
Encoding: 77 77 30
Width: 454
VWidth: 0
Flags: MW
VStem: 25.7402 100.96<174.147 416.511> 312.86 94.0293<178.089 396.307>
LayerCount: 2
Back
Fore
SplineSet
298.01 397.98 m 1
 277.22 345.51 261.36 280.17 209.88 280.17 c 0
 185.254 280.17 168.3 303.064 168.3 327.69 c 0
 168.3 346.5 173.25 356.577 173.25 375.21 c 0
 173.25 394.02 164.32 408.87 150.46 422.73 c 1
 138.58 393.03 126.7 355.41 126.7 307.89 c 0
 126.7 178.2 189.07 94.0498 189.07 31.6797 c 0
 189.07 3.28125 172.26 -18.8096 138.6 -18.8096 c 0
 41.5801 -18.8096 25.7402 191.07 25.7402 285.12 c 0
 25.7402 371.07 41.5801 424.71 59.4004 502.92 c 0
 62.3613 515.917 64.124 528.582 53.46 536.58 c 0
 37.6201 548.46 19.7998 561.33 19.7998 583.11 c 0
 19.7998 604.89 50.126 632.61 81.1797 632.61 c 0
 147.51 632.61 184.925 558.53 223.535 497.15 c 1
 257.535 561.15 267.341 633.461 320.76 634.59 c 0
 370.259 635.636 380.39 565.797 392.04 489.06 c 0
 399.585 439.365 407.396 389.213 406.89 342.54 c 8
 405.369 202.252 396 -4.9502 313.83 -4.9502 c 0
 286.222 -4.9502 263.36 14.9619 263.36 42.5703 c 0
 263.36 59.4004 277.026 105.812 289.866 168.3 c 0
 299.559 215.463 308.356 268.622 312.86 314.82 c 8
 316.057 347.61 308.9 372.24 298.01 397.98 c 1
EndSplineSet
Substitution2: "small digits for street numbers-1" M.ss01
Substitution2: "'c2sc' Capitals to Small Capitals in Latin lookup 0 subtable" m.sc
EndChar

StartChar: period
Encoding: 46 46 31
Width: 222
VWidth: 0
Flags: W
HStem: -8.5 113.5<39.5521 123.596>
VStem: 25.8496 114.15<0.886608 87.3769>
LayerCount: 2
Fore
SplineSet
140 44 m 0
 140 19.5 123 -8.5 87.5 -8.5 c 0
 49.5 -8.5 25.8496 7.89077 25.8496 47.7607 c 0
 25.8496 74.3652 51 105 75 105 c 4
 83 105 97 106.5 103.45 94.9502 c 1
 118 90.5 140 76.2568 140 44 c 0
EndSplineSet
Substitution2: "dull but fullsized digits-1" period.ss02
EndChar

StartChar: comma
Encoding: 44 44 32
Width: 222
VWidth: 0
Flags: W
HStem: -118 223
VStem: 25.8496 114.15<1.03502 87.3769>
LayerCount: 2
Fore
SplineSet
25.8496 47.7607 m 4
 25.8496 74.3652 51 105 75 105 c 4
 83 105 97 106.5 103.45 94.9502 c 5
 118 90.5 139.443 76.252 140 44 c 4
 142.036 25.6934 116.075 -66.1725 56 -118 c 13
 38 -106 l 21
 52.9586 -77.1217 56.7285 -47.0996 62 -8 c 5
 37 2.5 25.8496 20 25.8496 47.7607 c 4
EndSplineSet
EndChar

StartChar: uni0308
Encoding: 776 776 37
Width: 0
VWidth: 0
Flags: W
HStem: 660 113.5<39.5521 123.596 253.404 337.448>
VStem: 25.8496 114.15<669.387 755.877> 237 114.15<669.387 755.877>
LayerCount: 2
Fore
SplineSet
140 712.5 m 4
 140 688 123 660 87.5 660 c 4
 49.5 660 25.8496 676.391 25.8496 716.261 c 4
 25.8496 742.865 51 773.5 75 773.5 c 4
 83 773.5 97 775 103.45 763.45 c 5
 118 759 140 744.757 140 712.5 c 4
237 712.5 m 4
 237 744.757 259 759 273.55 763.45 c 5
 280 775 294 773.5 302 773.5 c 4
 326 773.5 351.15 742.865 351.15 716.261 c 4
 351.15 676.391 327.5 660 289.5 660 c 4
 254 660 237 688 237 712.5 c 4
EndSplineSet
EndChar

StartChar: zero
Encoding: 48 48 39
Width: 454
VWidth: 0
Flags: W
HStem: -1 77<207.02 291.344> 619 20G<231 266>
VStem: 56 94<176.931 433.601> 331 91<137.383 406.504>
LayerCount: 2
Fore
SplineSet
255 542 m 21
 190 503 150 410 150 319 c 4
 150 234.911 169.038 76 250 76 c 4
 318 76 331 194 331 274 c 4
 331 432 257 484 257 514 c 4
 257 525 255.78 531.08 255 542 c 21
307 574 m 5
 323 552 346 549 358 525 c 4
 394 449 422 389 422 291 c 4
 422 165 380 -1.94043 254 -1 c 4
 120 0 56 181 56 323 c 4
 56 406 77 486 106 545 c 4
 134 602 213 639 249 639 c 4
 283 639 300 611 307 574 c 5
EndSplineSet
Substitution2: "dull but fullsized digits-1" zero.ss02
Substitution2: "small digits for street numbers-1" zero.ss01
EndChar

StartChar: four
Encoding: 52 52 40
Width: 476
VWidth: 0
Flags: W
HStem: 158.076 79.2572<379.96 444.509> 167.776 74.4719<145.766 285.672> 613.388 20G<345.531 373>
VStem: 275.5 109<4.37043 157.017>
LayerCount: 2
Fore
SplineSet
359.5 633.388 m 0x70
 386.5 633.388 403.5 608.388 403.5 581.388 c 0
 403.5 508.388 363.5 465.388 363.5 353.388 c 0
 363.5 329.402 367.968 286.269 372.782 237.333 c 1
 405.422 232.417 449.5 231.426 449.5 199.696 c 0
 449.5 176.386 433.041 158.076 409.73 158.076 c 0xb0
 405.035 158.076 385.75 158.263 379.96 158.584 c 1
 382.608 125.159 384.5 92.2015 384.5 63.3877 c 0
 384.5 27.3877 370.5 -7.6123 327.5 -7.6123 c 0
 296.5 -7.6123 275.5 23.3877 275.5 54.3877 c 0
 275.5 98.7115 284.26 128.435 287.499 165.874 c 1
 268.039 167.125 247.764 167.962 227.661 167.776 c 0
 170.341 167.246 112.261 155.166 81.2217 155.166 c 0
 55.001 155.166 34.6611 172.626 34.6611 203.666 c 0
 34.6611 225.177 49.2109 238.586 65.7012 249.257 c 1
 151.867 362.205 218.5 475.427 296.834 590.934 c 0
 315.06 617.808 331.561 633.387 359.5 633.388 c 0x70
143.5 239.427 m 1
 191.69 246.377 249.686 243.83 285.985 242.248 c 1x70
 281.212 295.897 272.472 355.611 283.5 425.981 c 1
 239.5 367.426 187.151 280.653 143.5 239.427 c 1
EndSplineSet
Substitution2: "dull but fullsized digits-1" four.ss02
Substitution2: "small digits for street numbers-1" four.ss01
EndChar

StartChar: one
Encoding: 49 49 41
Width: 272
VWidth: 0
Flags: W
HStem: -2 21G<144.5 181.5> 619 20G<185.657 206.349>
VStem: 98 98<164.967 493.468> 108 109<9.98273 335.015>
LayerCount: 2
Fore
SplineSet
111.742 534.281 m 1xe0
 57.5 506.5 l 1
 45.5 521.5 42.5 545.5 45.5 572.5 c 1
 81.5 590.5 129 617 147 635 c 1
 164.065 635 179.315 639 192 639 c 0
 220.699 639 236 612.738 236 587 c 0
 236 514 196 471 196 359 c 0xe0
 196 307 217 165 217 69 c 0
 217 33 203 -2 160 -2 c 0
 129 -2 108 29 108 60 c 0xd0
 108 118 123 151 121 209 c 0
 118 297 98 348 98 433 c 0
 98 465.162 102.809 501.33 111.742 534.281 c 1xe0
EndSplineSet
Substitution2: "dull but fullsized digits-1" one.ss02
Substitution2: "small digits for street numbers-1" one.ss01
EndChar

StartChar: two
Encoding: 50 50 42
Width: 465
VWidth: 0
Flags: W
HStem: 0 104.03<145.423 408.329> 597.2 70.002<148.516 285.338>
VStem: 34 75<490.938 542.73> 331 108.98<422.85 553.172>
LayerCount: 2
Fore
SplineSet
154 293.2 m 0
 84 213.474 64 173.2 58 100.091 c 1
 41.5098 89.4199 26.96 72.0107 26.96 50.5 c 0
 26.96 19.46 47.2998 -2 73.5205 -2 c 0
 104.561 -2 175.499 10.1928 241 10.6104 c 24
 298.179 10.9746 352.311 0 387.23 0 c 0
 410.541 0 427 25.3096 427 48.6201 c 0
 427 85.4805 374.62 104.03 334.851 104.03 c 0
 308.723 104.03 215.98 85.2002 141.939 103 c 1
 139.98 157.2 216.924 223.742 251.98 249.203 c 0
 326.684 303.461 439.98 369.2 439.98 481.2 c 0
 439.98 605.2 348 667.202 211 667.202 c 0
 101 667.202 34 591.2 34 539.2 c 0
 34 513.2 47 486.2 73 486.2 c 0
 92 486.2 104 497.2 109 514.2 c 0
 111.04 519.736 99.2051 533.215 108 543.2 c 0
 119.355 556.092 161 597.2 217 597.2 c 0
 275.522 597.2 331 559.2 331 483.2 c 0
 331 394.389 215.635 363.399 154 293.2 c 0
EndSplineSet
Substitution2: "dull but fullsized digits-1" two.ss02
Substitution2: "small digits for street numbers-1" two.ss01
EndChar

StartChar: eight
Encoding: 56 56 43
Width: 419
VWidth: 0
Flags: W
HStem: 0 58.9961<142.896 256.989> 315.271 68.1299<153.017 258.521> 568.996 64.7256<151.469 260.711>
VStem: 19 94<90.5137 270.25> 35 91<410.045 544.354> 294 91<99.447 276.182 417.14 535.845>
LayerCount: 2
Fore
SplineSet
113 191.4 m 0xf4
 113 140.946 113 58.9961 205 58.9961 c 0
 273 58.9961 294 134.996 294 182.996 c 0
 294 282.594 246.479 315.271 207 315.271 c 0
 143.285 315.271 113 243.398 113 191.4 c 0xf4
287 352.996 m 1
 365 330.996 385 246.996 385 174.6 c 0
 385 99 329 -0.460938 203 0 c 0
 39 0.599609 19 108.6 19 193.8 c 0xf4
 19 264.739 56.9297 331.629 113.105 358.06 c 1
 63.0479 375.636 35 441.342 35 487.722 c 0xec
 35 550.722 74.999 633.722 201 633.722 c 0
 373 633.722 383 532.626 383 471.722 c 0
 383 420.626 343.947 373.791 287 352.996 c 1
212 383.4 m 0
 259 383.4 289 428.922 289 466.496 c 0
 289 508.541 277 568.996 205 568.996 c 0
 137 568.996 126 510.996 126 470.996 c 0xec
 126 392.1 177.758 383.4 212 383.4 c 0
EndSplineSet
Substitution2: "dull but fullsized digits-1" eight.ss02
Substitution2: "small digits for street numbers-1" eight.ss01
EndChar

StartChar: three
Encoding: 51 51 44
Width: 512
VWidth: 0
Flags: W
HStem: -16.2598 91.46<111.681 271.487> 293.2 90<198.965 264.114> 567.2 91.46<105.273 284.855>
VStem: -17.0352 91<108.84 166.963> 314.965 107<120.652 267.274 426.282 539.02>
LayerCount: 2
Fore
SplineSet
370.5 197.47 m 4
 370.5 151.2 344.5 75.2002 270.5 75.2002 c 4
 152.5 75.2002 129.5 127.771 129.5 141.17 c 4
 129.5 159.26 157.5 163.28 157.5 180.7 c 4
 157.5 196.11 133.5 215.2 114.5 215.2 c 4
 62.5 215.87 38.5 178.021 38.5 147.2 c 4
 38.5 43.2002 134.465 -16.2598 274.5 -16.2598 c 4
 421.5 -16.2598 477.5 96.2998 477.5 194.12 c 4
 477.5 257.054 454.587 319.542 407.229 361.2 c 5
 454.587 402.857 478.5 435.2 478.5 489.2 c 4
 478.5 579.2 422.5 658.66 275.5 658.66 c 4
 159.5 658.66 54.5 625.2 39.5 506.12 c 4
 35.2939 472.728 103.927 443.392 130.5 512.15 c 4
 142.5 543.2 176.5 567.2 271.5 567.2 c 4
 345.5 567.2 371.5 521.2 371.5 485.851 c 4
 371.5 421.2 316.5 395.2 252.5 383.2 c 13
 254.5 293.2 l 21
 324.5 287.2 370.5 285.516 370.5 197.47 c 4
EndSplineSet
Substitution2: "dull but fullsized digits-1" three.ss02
Substitution2: "small digits for street numbers-1" three.ss01
EndChar

StartChar: five
Encoding: 53 53 45
Width: 468
VWidth: 0
Flags: W
HStem: 0 71<157.908 296.069> 333.2 93.7998<175.269 296.778> 541.314 92.3301<165.273 373.114>
VStem: 49.9805 90.9941<89.8495 152.754> 333 108.98<111.886 290.888>
LayerCount: 2
Fore
SplineSet
226 427 m 0
 363 427 441.98 338 441.98 212.818 c 0
 441.98 96 383.487 0 221.487 0 c 0
 115.487 0 49.9805 61.2559 49.9805 111.256 c 4
 49.9805 158 80.9746 187 128.975 186 c 0
 145.975 186 168.975 163.256 168.975 150.256 c 0
 168.975 135.256 140.975 132.256 140.975 117.256 c 0
 140.975 106.256 163.487 71 240.487 71 c 0
 317.487 71 333 154 333 212 c 0
 333 271 299.5 333.2 251.5 333.2 c 0
 237.899 333.2 179.487 329.256 161.487 295.256 c 9
 63.9805 308.256 l 25
 63.9805 308.256 65.9805 493.256 76.0195 546.164 c 1
 59.5293 556.836 44.9805 573.244 44.9805 594.756 c 0
 44.9805 625.795 65.3203 646.256 91.541 646.256 c 0
 122.58 646.256 185.25 634.263 245.487 633.645 c 24
 296.042 633.125 339.837 643.346 374.758 643.346 c 0
 398.068 643.346 414.527 619.035 414.527 595.725 c 0
 414.527 558.865 362.147 541.314 322.377 541.314 c 0
 296.249 541.314 229.487 534.168 166.487 543.256 c 1
 160.481 486.541 156.566 423.729 156.487 413.256 c 9
 183.598 418.616 188 427 226 427 c 0
EndSplineSet
Substitution2: "dull but fullsized digits-1" five.ss02
Substitution2: "small digits for street numbers-1" five.ss01
EndChar

StartChar: exclam
Encoding: 33 33 46
Width: 218
VWidth: 0
Flags: W
HStem: -8.5 113.5<71.5521 155.596> 619.261 20G<97.3302 141.889>
VStem: 46.9199 103.02<347.699 567.025> 57.8496 114.15<0.886608 87.3769 168.805 426.661 438.268 483.038>
LayerCount: 2
Fore
SplineSet
172 44 m 0xd0
 172 19.5 155 -8.5 119.5 -8.5 c 0
 81.5 -8.5 57.8496 7.89062 57.8496 47.7607 c 0
 57.8496 74.3652 83 105 107 105 c 0
 115 105 129 106.5 135.45 94.9502 c 1
 150 90.5 172 76.2568 172 44 c 0xd0
127.93 639.261 m 0
 155.847 639.261 174.85 620.551 174.85 600.571 c 0
 174.85 545.821 149.94 514.5 149.94 430.55 c 0
 149.94 391.13 172.38 284.55 172.38 212.28 c 0
 172.38 185.558 157.08 158.99 112.2 158.99 c 0
 79.1436 158.99 58.1396 182.35 58.1396 205.71 c 0
 58.1396 249.426 73.1547 273.57 71.4004 317.4 c 24
 68.7432 383.802 46.9199 421.79 46.9199 486.03 c 0xe0
 46.9199 552.522 66.7305 639.261 127.93 639.261 c 0
EndSplineSet
EndChar

StartChar: bracketright
Encoding: 93 93 47
Width: 354
VWidth: 0
Flags: W
HStem: -2 99<65.2902 187.277> 537 98<53.3777 179.602>
VStem: 38 273<537.303 612.697> 203 97<257.439 509.185>
LayerCount: 2
Fore
SplineSet
300 381 m 5xd0
 307 334.3 301 302.3 299 278 c 5
 293 217 286 155 275 89 c 5
 294 69 307 59 307 34 c 4
 307 12 280 4 259 4 c 4
 234 4 216 12 189 12 c 4
 152 12 131 -2 93 -2 c 4
 69 -2 51 18 51 42 c 4
 51 96 119 93 172 97 c 4
 181 98 186 107 188 117 c 28
 200 171 210 201 208 256 c 29
 208 286.002 203 360.754 203 393 c 4xd0
 203 441 190 480 180 514 c 4
 176 529 164 537 148 537 c 4
 124 537 111 531 87 531 c 4
 61 531 38 539 38 565 c 4xe0
 38 636 82 635 203 635 c 4xd0
 263 635 311 618 311 568 c 4xe0
 311 555 299 537 281 529 c 5
 291 480 298 430 300 381 c 5xd0
EndSplineSet
EndChar

StartChar: a
Encoding: 97 97 49
Width: 400
VWidth: 0
Flags: W
HStem: 0 60<148.839 251.604> 233 55<169.446 250.307> 356 69.9814<126.744 245.474>
VStem: 33 95<79.4626 193.298> 251 88<266.343 376.5> 262 89<85.0204 211.968>
LayerCount: 2
Fore
SplineSet
251 320 m 0xf8
 251 339 230 356 183 356 c 0
 124 356 131 317 84 317 c 0
 53 317 36 331 36 348 c 0
 36 386 117 425.981 185 425.981 c 0
 261 425.981 339 401 339 352 c 0xf8
 339 303 336 315 336 240 c 0
 336 205 351 111 351 47 c 0xf4
 351 23 338 -1 298 -1 c 0
 288 -1 279 2 272 6 c 1
 258 2 242 0 224 0 c 0
 86 0 33 76 33 141 c 0
 33 232 100 294 241 288 c 1
 254 315 251 297 251 320 c 0xf8
251 213 m 1
 236 218 235 232 215 233 c 0
 167 234 128 173 128 142 c 0
 128 103 142 60 205 60 c 0
 235 60 245 71 253 84 c 1
 257 106 263 113 262 140 c 0xf4
 261 168 256 191 251 213 c 1
EndSplineSet
Substitution2: "'smcp' Lowercase to Small Capitals in Latin lookup 0 subtable" a.sc
EndChar

StartChar: b
Encoding: 98 98 50
Width: 400
VWidth: 0
Flags: W
HStem: -2.7998 71<146.211 232.28> 354.2 71<154.136 216.585>
VStem: 41 89<105.744 314.653> 61 90<425.2 527.907> 264 95<105.906 292.216>
LayerCount: 2
Fore
SplineSet
359 208.2 m 4xd8
 359 110.2 306 -2.7998 168 -2.7998 c 4
 150 -2.7998 134 0.200195 120 6.2002 c 5
 113 0.200195 104 -3.7998 94 -3.7998 c 4
 54 -3.7998 41 31.2002 41 67.2002 c 4xe8
 41 163.2 61 305.2 61 357.2 c 4
 61 469.2 33 519.2 33 592.2 c 4
 33 619.2 48 644.2 73 644.2 c 4
 127 644.2 152 514.2 151 425.2 c 5
 292 434.2 359 314.2 359 208.2 c 4xd8
141 316.2 m 5
 136 283.2 131 249.2 130 207.2 c 4
 129 166.2 135 137.2 139 104.2 c 5
 147 85.2002 157 68.2002 187 68.2002 c 4
 250 68.2002 264 152.2 264 210.2 c 4
 264 256.2 225 356.2 177 354.2 c 4
 157 353.2 156 324.2 141 316.2 c 5
EndSplineSet
Substitution2: "'smcp' Lowercase to Small Capitals in Latin lookup 0 subtable" b.sc
EndChar

StartChar: c
Encoding: 99 99 51
Width: 356
VWidth: 0
Flags: W
HStem: -1 71<155.72 237.147> 313 114<232.203 288.204>
VStem: 29 95<107.705 291.45> 238 81<72.1696 111.361>
LayerCount: 2
Fore
SplineSet
29 210 m 0
 29 319 94 427 231 427 c 0
 269 427 305 403 305 366 c 0
 305 340 292 313 266 313 c 0
 247 313 235 324 230 341 c 0
 223 360 201 359 193 348 c 0
 156 318 124 271 124 212 c 0
 124 154 138 70 201 70 c 0
 222 70 238 79 238 90 c 0
 238 105 210 108 210 123 c 0
 210 136 233 144 250 144 c 0
 298 145 319 116 319 84 c 0
 319 34 280 -1 220 -1 c 0
 82 -1 29 112 29 210 c 0
EndSplineSet
Substitution2: "'smcp' Lowercase to Small Capitals in Latin lookup 0 subtable" c.sc
EndChar

StartChar: d
Encoding: 100 100 52
Width: 400
VWidth: 0
Flags: W
HStem: -1 71<156.214 241.705> 355.84 70.9591<170.986 233.847>
VStem: 29 95<107.705 294.036> 237.032 89.9679<426.799 529.632> 258 89<107.816 316.155>
LayerCount: 2
Fore
SplineSet
29 210 m 4xe8
 29 316.17 96.2273 436.206 237.032 426.799 c 5
 236.106 516.095 260.74 645.902 315 645.902 c 4
 340 645.902 355 620.902 355 593.902 c 4
 355 520.902 327 471 327 359 c 4xf0
 327 307 347 165 347 69 c 4
 347 33 334 -2 294 -2 c 4
 283.941 -2 275.085 1.72957 267.808 7.89508 c 5
 254.082 2.14456 237.984 -1 220 -1 c 4
 82 -1 29 112 29 210 c 4xe8
247.004 317.7 m 5
 232.48 326.06 230.259 354.925 210.667 355.84 c 4
 162.289 358.097 124 257.805 124 212 c 4
 124 154 138 70 201 70 c 4
 231.219 70 240.64 87.5812 248.904 106.25 c 5
 252.889 139.738 259.408 168.176 258 209 c 4xe8
 256.564 251.113 251.693 284.753 247.004 317.7 c 5
EndSplineSet
Substitution2: "'smcp' Lowercase to Small Capitals in Latin lookup 0 subtable" d.sc
EndChar

StartChar: e
Encoding: 101 101 53
Width: 390
VWidth: 0
Flags: W
HStem: -1 71<160.403 268.408> 220.2 63.0002<137.634 279.419> 355.785 71.2151<172.032 258.002>
VStem: 29 95.2073<108.819 220.2> 268.5 81<76.3045 111.361>
LayerCount: 2
Fore
SplineSet
29 210 m 0
 29 319 94.0131 428.899 231 427 c 0
 304.5 425.981 368.299 344.2 368.299 272.2 c 0
 368.299 252.652 357.482 232.964 328 222.2 c 1
 295 213.154 230.259 220.2 124.207 220.2 c 1
 121.115 159.22 136.5 70 211.5 70 c 0
 232.5 70 268.5 79 268.5 90 c 0
 268.5 105 240.5 108 240.5 123 c 0
 240.5 136 263.5 144 280.5 144 c 0
 328.5 145 349.5 116 349.5 84 c 0
 349.5 34 280 -1 220 -1 c 0
 82 -1 29 112 29 210 c 0
281.795 283.2 m 1
 285.5 302.2 261.261 355.785 211.5 355.785 c 0
 181.023 355.785 145.5 314.2 137.634 283.2 c 1
 137.634 283.2 231.795 278.2 281.795 283.2 c 1
EndSplineSet
Substitution2: "'smcp' Lowercase to Small Capitals in Latin lookup 0 subtable" e.sc
EndChar

StartChar: f
Encoding: 102 102 54
Width: 270
VWidth: 0
Flags: W
HStem: -2 21G<86.5 121> 336.682 91.597<140.513 204.584> 579.118 61<148.45 215.373>
VStem: 50.4708 88.3552<90.2938 285.97 424.256 569.927> 53 101<8.57217 282.904>
LayerCount: 2
Fore
SplineSet
190.125 579.118 m 0xf0
 126.527 579.118 131.57 503.034 132.628 428.279 c 1
 183.4 419.474 244.376 420.212 244.376 365.682 c 0
 244.376 344.682 230.376 328.682 205.376 328.682 c 0
 188.376 328.682 178.376 336.682 161.376 336.682 c 0
 135.493 336.682 140.377 306.874 140.126 285.118 c 1
 140.126 285.118 139.674 285.414 138.826 285.97 c 1xf0
 144.744 220.902 154 134.307 154 69 c 0
 154 33 141 -2 101 -2 c 0
 72 -2 53 29 53 60 c 0xe8
 53 118 66.4062 150.719 65 209 c 0
 63.7066 262.605 56.1515 302.603 50.4708 345.005 c 1
 37.068 351.768 29.5232 361.274 29.376 376.482 c 0
 29.2483 389.707 36.2085 403.021 44.2874 414.917 c 1
 41.0264 517.233 54.1367 640.118 190.125 640.118 c 0
 258.125 640.118 293.5 614.118 293.5 557.118 c 0
 293.5 532.118 276.5 519.118 245.5 519.118 c 0
 198.5 519.118 237.501 579.118 190.125 579.118 c 0xf0
EndSplineSet
Substitution2: "'smcp' Lowercase to Small Capitals in Latin lookup 0 subtable" f.sc
EndChar

StartChar: g
Encoding: 103 103 55
Width: 400
VWidth: 0
Flags: W
HStem: -200.893 61<128.637 218.342> -3.3125 71<175.415 237.864> 353.687 71<159.72 245.789>
VStem: 33 95<129.672 315.981> 246.25 92<-113.153 -4.67127> 262 89<107.235 316.143>
LayerCount: 2
Fore
SplineSet
246.25 -55.8926 m 4xf8
 246.25 -21.8926 254.25 -43.1124 241 -3.3125 c 1
 100 -12.3125 33 107.688 33 213.688 c 0
 33 311.687 86 424.687 224 424.687 c 0
 242 424.687 258 421.687 272 415.687 c 1
 279 421.687 288 425.687 298 425.687 c 0
 338 425.687 351 390.687 351 354.687 c 0xf4
 351 258.687 331 116.688 331 64.6875 c 0
 331 -47.3125 338.25 -0.892578 338.25 -73.8926 c 4
 338.25 -147.893 250.25 -200.893 174.25 -200.893 c 4
 106.25 -200.893 27.25 -171.893 27.25 -114.893 c 4
 27.25 -89.8926 44.25 -76.8926 75.25 -76.8926 c 4
 122.649 -76.8926 115.263 -139.893 174.25 -139.893 c 4
 221.25 -139.893 246.25 -83.8926 246.25 -55.8926 c 4xf8
251 105.688 m 1
 256 138.688 261 172.688 262 214.688 c 0
 263 255.688 257 284.687 253 317.687 c 1
 245 336.687 235 353.687 205 353.687 c 0
 142 353.687 128 269.687 128 211.688 c 0
 128 165.688 167 65.6875 215 67.6875 c 0
 235 68.6875 236 97.6875 251 105.688 c 1
EndSplineSet
Substitution2: "'smcp' Lowercase to Small Capitals in Latin lookup 0 subtable" g.sc
EndChar

StartChar: h
Encoding: 104 104 56
Width: 430
VWidth: 0
Flags: W
HStem: -2 21G<86.5 121> 355.98 70<197.266 279.076> 619 20G<104.5 143.5>
VStem: 44 90.75<374.516 501.732> 53 101<8.57217 246.273> 65 93.5<71.9041 312.44> 302.875 85<103.025 333.394>
LayerCount: 2
Fore
SplineSet
131 639 m 0xf2
 156 639 171 614 171 587 c 0
 171 513.386 138.75 489.68 134.75 373.68 c 1xf2
 162.75 409.68 196.875 425.981 248.75 425.98 c 0
 388.875 425.978 387.875 292.113 387.875 193.113 c 0
 387.875 117.113 380.875 -7.88672 308.875 -7.88672 c 0
 289.875 -7.88672 259.875 5.11328 259.875 23.1133 c 0
 259.875 83.1133 302.875 109.113 302.875 213.113 c 0
 302.875 265.113 298.875 355.98 241.75 355.98 c 0
 191.75 355.98 158.5 281.9 158.5 249.9 c 0xe6
 158.5 171.932 154 131.288 154 69 c 0
 154 33 141 -2 101 -2 c 0
 72 -2 53 29 53 60 c 0xea
 53 118 67 151 65 209 c 0xe6
 62 297 44 348 44 433 c 0
 44 521 78 639 131 639 c 0xf2
EndSplineSet
Substitution2: "'smcp' Lowercase to Small Capitals in Latin lookup 0 subtable" h.sc
EndChar

StartChar: k
Encoding: 107 107 59
Width: 410
VWidth: 0
Flags: W
HStem: -2 21.9004G<86.5 121 290 327.5> 619 20G<104.5 143.5>
VStem: 44 90<273.392 499.019> 53 101<8.57217 167.136> 261 94<7.20213 143.247>
LayerCount: 2
Fore
SplineSet
131 639 m 0xe8
 156 639 171 614 171 587 c 0
 171 514 134 471 134 359 c 0xe8
 134 339.977 136.677 308.909 140.071 272.455 c 1
 213.256 337.271 262.581 421 340 421 c 0
 364 421 386 408 386 391 c 0
 386 352 307 347.9 241 263.9 c 1
 315 206.9 355 134.9 355 75.9004 c 0
 355 42.9004 351 -1.09961 304 -1.09961 c 0
 276 -1.09961 261 19.9004 261 39.9004 c 0
 261 120.9 234 174 182 207 c 1
 172.252 199.341 159.111 183.877 149.327 168.776 c 1
 152.03 133.789 154 99.1291 154 69 c 0
 154 33 141 -2 101 -2 c 0
 72 -2 53 29 53 60 c 0xd8
 53 118 67 151 65 209 c 0
 62 297 44 348 44 433 c 0
 44 521 78 639 131 639 c 0xe8
EndSplineSet
Substitution2: "'smcp' Lowercase to Small Capitals in Latin lookup 0 subtable" k.sc
EndChar

StartChar: l
Encoding: 108 108 60
Width: 218
VWidth: 0
Flags: W
HStem: -2 21G<86.5 121> 619 20G<104.5 143.5>
VStem: 44 90<142.786 499.019> 53 101<8.57217 325.347>
LayerCount: 2
Fore
SplineSet
131 639 m 4xe0
 156 639 171 614 171 587 c 4
 171 514 134 471 134 359 c 4xe0
 134 307 154 165 154 69 c 4
 154 33 141 -2 101 -2 c 4
 72 -2 53 29 53 60 c 4xd0
 53 118 67 151 65 209 c 28
 62 297 44 348 44 433 c 4
 44 521 78 639 131 639 c 4xe0
EndSplineSet
Substitution2: "'smcp' Lowercase to Small Capitals in Latin lookup 0 subtable" l.sc
EndChar

StartChar: m
Encoding: 109 109 61
Width: 590
VWidth: 0
Flags: W
HStem: -2 21G<86.5 121> 355.98 70<177.107 261.718 360.109 455.153>
VStem: 44 90.75<373.68 417.437> 53 101<8.57217 202.98> 58.875 85<71.9025 320.58> 274.5 85<103.083 333.02> 481.875 85<103.083 329.016>
LayerCount: 2
Fore
SplineSet
96.875 425.98 m 0xe6
 138.875 425.98 135.061 382.711 134.75 373.68 c 1xe6
 151.5 406 187.5 425.98 228.875 425.98 c 0
 274.217 425.98 303.827 409.19 323.161 383.103 c 1
 341.59 409.839 383.312 425.98 420.5 425.98 c 0
 548.5 425.98 566.875 292.172 566.875 193.172 c 0
 566.875 117.172 559.875 -7.82812 487.875 -7.82812 c 0
 468.875 -7.82812 438.875 5.17188 438.875 23.1719 c 0
 438.875 83.1719 481.875 109.172 481.875 213.172 c 0
 481.875 265.172 478.5 355.98 413.5 355.98 c 0
 391.078 355.98 363.107 342.129 349.423 322.138 c 1
 359.05 281.167 359.5 234.183 359.5 193.172 c 0
 359.5 117.172 352.5 -7.82812 280.5 -7.82812 c 0
 261.5 -7.82812 231.5 5.17188 231.5 23.1719 c 0
 231.5 83.1719 274.5 109.172 274.5 213.172 c 0
 274.5 265.172 286.875 355.98 221.875 355.98 c 0
 175.875 355.98 143.875 297.679 143.875 247.679 c 0xce
 143.875 169.71 154 131.288 154 69 c 0
 154 33 141 -2 101 -2 c 0
 72 -2 53 29 53 60 c 0xd6
 53 118 58.875 147.645 58.875 205.68 c 0xce
 58.875 243.679 44 305.679 44 337.679 c 0
 44 381.679 43.875 425.98 96.875 425.98 c 0xe6
EndSplineSet
Substitution2: "'smcp' Lowercase to Small Capitals in Latin lookup 0 subtable" m.sc
EndChar

StartChar: o
Encoding: 111 111 62
Width: 318
VWidth: 0
Flags: W
HStem: -1 52<134.705 193.444> 406 20G<146.5 178.5>
VStem: 20 83<99.8976 324.404> 211 80<72.9486 292.16>
LayerCount: 2
Fore
SplineSet
168 361 m 17
 108 335 103 274 103 213 c 0
 103 199 107 172 113 144 c 0
 121 99 135 51 164 51 c 0
 207 51 211 131 211 184 c 0
 211 289 165 323 165 343 c 0
 165 350 166.83 353.98 168 361 c 17
216 383 m 1
 231 368 245 366 256 350 c 0
 289 299 291 260 291 195 c 0
 291 111 266 -1 167 -1 c 0
 62 -1 20 121 20 216 c 0
 20 271 36 325 63 364 c 0
 89 402 130 426 163 426 c 0
 194 426 210 408 216 383 c 1
EndSplineSet
Substitution2: "'smcp' Lowercase to Small Capitals in Latin lookup 0 subtable" o.sc
EndChar

StartChar: p
Encoding: 112 112 63
Width: 400
VWidth: 0
Flags: W
HStem: -2.01855 70.9999<158.18 223.585> 354.981 71<153.211 239.28>
VStem: 48 89<108.529 317.437> 68 90<-84.8275 -2.01855> 271 95<130.965 317.276>
LayerCount: 2
Fore
SplineSet
366 214.981 m 0xe8
 366 108.981 299 -11.0186 158 -2.01855 c 1
 159 -91.0186 134 -195.112 80 -195.112 c 0
 55 -195.112 40 -170.112 40 -143.112 c 0
 40 -70.1123 68 -46.0186 68 65.9814 c 0xd8
 68 117.981 48 259.981 48 355.981 c 0
 48 391.981 61 426.981 101 426.981 c 0
 111 426.981 120 422.981 127 416.981 c 1
 141 422.981 157 425.981 175 425.981 c 0
 313 425.981 366 312.981 366 214.981 c 0xe8
148 106.981 m 1
 154 96 164 69.9814 184 68.9814 c 0
 232 66.9814 271 166.981 271 212.981 c 0
 271 270.981 257 354.981 194 354.981 c 0
 164 354.981 154 337.981 146 318.981 c 1
 142 285.981 136 256.981 137 215.981 c 0xe8
 138 173.981 143 139.981 148 106.981 c 1
EndSplineSet
Substitution2: "'smcp' Lowercase to Small Capitals in Latin lookup 0 subtable" p.sc
EndChar

StartChar: q
Encoding: 113 113 64
Width: 400
VWidth: 0
Flags: W
HStem: -199.112 21G<292 331.5> -3.3125 71<175.415 241> 353.687 71<159.72 245.789>
VStem: 33 95<129.672 315.982> 241 90<-88.1622 -3.3125> 262 89<107.236 316.143>
LayerCount: 2
Fore
SplineSet
33 213.688 m 0xf8
 33 311.687 86 424.687 224 424.687 c 0
 242 424.687 258 421.687 272 415.687 c 1
 279 421.687 288 425.687 298 425.687 c 0
 338 425.687 351 390.687 351 354.687 c 0xf4
 351 258.687 331 116.688 331 64.6875 c 0
 331 -47.3125 359 -74.1123 359 -147.112 c 0
 359 -174.112 344 -199.112 319 -199.112 c 0
 265 -199.112 240 -92.3125 241 -3.3125 c 1
 100 -12.3125 33 107.688 33 213.688 c 0xf8
251 105.688 m 5
 256 138.688 261 172.688 262 214.688 c 0
 263 255.688 257 284.687 253 317.687 c 1
 245 336.687 235 353.687 205 353.687 c 0
 142 353.687 128 269.687 128 211.688 c 0
 128 165.688 167 65.6875 215 67.6875 c 0
 235 68.6875 244.5 90.5 251 105.688 c 5
EndSplineSet
Substitution2: "'smcp' Lowercase to Small Capitals in Latin lookup 0 subtable" q.sc
EndChar

StartChar: r
Encoding: 114 114 65
Width: 305
VWidth: 0
Flags: W
HStem: -2 21G<86.5 121> 355.98 70<185.525 257.501>
VStem: 44 90.75<373.68 417.437> 53 101<8.57217 202.98> 58.875 85<71.9025 310.93>
LayerCount: 2
Fore
SplineSet
96.875 425.981 m 0xe0
 138.875 425.981 135.061 382.711 134.75 373.68 c 1xe0
 160.375 405.98 181.375 425.98 241.375 425.98 c 0
 299.5 425.98 281.5 355.98 234.375 355.98 c 0
 188.375 355.98 143.875 297.679 143.875 247.679 c 0xc8
 143.875 169.71 154 131.288 154 69 c 0
 154 33 141 -2 101 -2 c 0
 72 -2 53 29 53 60 c 0xd0
 53 118 58.875 147.645 58.875 205.68 c 0xc8
 58.875 243.679 44 305.679 44 337.679 c 0
 44 381.679 43.875 425.982 96.875 425.981 c 0xe0
EndSplineSet
Substitution2: "'smcp' Lowercase to Small Capitals in Latin lookup 0 subtable" r.sc
EndChar

StartChar: s
Encoding: 115 115 66
Width: 377
VWidth: 0
Flags: W
HStem: 0 80<130.522 221.037> 353 73<166.855 223.089>
VStem: 44 97<82.5113 123.242> 233 86<94.2027 165.116>
LayerCount: 2
Fore
SplineSet
56 323 m 28
 53 382 127 426 214 426 c 4
 262 426 319 410 319 374 c 4
 319 341 284 312 249 312 c 4
 232 312 218 324 218 335 c 4
 218 342 222 346 224 353 c 21
 194 353 155 336 155 312 c 4
 155 243 317 216 317 103 c 4
 317 45 235 0 161 0 c 4
 84 0 44 17 44 75 c 4
 44 105 61 134 101 134 c 4
 121 134 141 120 141 109 c 4
 141 98 134 93 130 82 c 29
 137 81 141 80 149 80 c 4
 173 80 233 86 233 128 c 4
 233 190 61 234 56 323 c 28
EndSplineSet
Substitution2: "'smcp' Lowercase to Small Capitals in Latin lookup 0 subtable" s.sc
EndChar

StartChar: u
Encoding: 117 117 67
Width: 374
VWidth: 0
Flags: W
HStem: -3 70<141.214 223.546> 405 20G<102 151.5 247.5 293>
VStem: 37 84<86.4126 315.385> 251 85<101.343 316.089>
LayerCount: 2
Fore
SplineSet
141 425 m 4
 162 425 182 415 182 400 c 4
 182 363 121 346 121 175 c 4
 121 143 128 67 178 67 c 4
 243 67 251 154 251 206 c 4
 251 310 208 336 208 396 c 4
 208 414 238 427 257 427 c 4
 329 427 336 302 336 226 c 4
 336 127 296 -3 185 -3 c 4
 54 -3 37 128 37 223 c 4
 37 307 63 425 141 425 c 4
EndSplineSet
Substitution2: "'smcp' Lowercase to Small Capitals in Latin lookup 0 subtable" u.sc
EndChar

StartChar: v
Encoding: 118 118 68
Width: 402
VWidth: 0
Flags: W
HStem: -3 21G<184.5 225.5> 404 20G<92.5 141 259 297>
VStem: 263 92<149.855 330.896>
LayerCount: 2
Fore
SplineSet
43 250 m 24
 38 322 56 424 129 424 c 0
 153 424 169 408 169 391 c 0
 169 338 138 346 138 225 c 0
 138 156 172 105 201 77 c 1
 246 108 263 160 263 217 c 0
 263 352 206 359 206 398 c 0
 206 419 249 427 269 427 c 0
 325 427 355 325 355 245 c 0
 355 139 255 -3 196 -3 c 0
 173 -3 148 16 148 27 c 0
 148 34 150 33 154 41 c 1
 101 75 49 163 43 250 c 24
EndSplineSet
Substitution2: "'smcp' Lowercase to Small Capitals in Latin lookup 0 subtable" v.sc
EndChar

StartChar: w
Encoding: 119 119 69
Width: 442
VWidth: 0
Flags: W
HStem: -3 21G<132.5 181.5 259.5 280> 405 20G<82.5 123>
VStem: 48 87<177.762 397.884> 287 82<181.5 364.537>
LayerCount: 2
Fore
SplineSet
48 289 m 4
 48 346 53 425 112 425 c 4
 134 425 150 411 150 395 c 4
 150 346 136 316 135 265 c 28
 135 230 138 206 147 175 c 5
 159 199 164 210 178 235 c 4
 191 258 219 273 244 234 c 4
 258 213 266 200 281 179 c 29
 284 199 288 211 287 231 c 4
 285 291 270 314 270 367 c 4
 270 393 292 419 328 419 c 4
 357 419 371 375 369 344 c 28
 363 217 367 145 310 22 c 4
 304 7 293 -3 267 -3 c 4
 252 -3 241 4 241 15 c 4
 241 63 242 98 218 142 c 5
 201 123 192 95 186 64 c 13
 193 47 204 37 204 21 c 4
 204 8 190 -3 173 -3 c 4
 92 -3 48 235 48 289 c 4
EndSplineSet
Substitution2: "'smcp' Lowercase to Small Capitals in Latin lookup 0 subtable" w.sc
EndChar

StartChar: x
Encoding: 120 120 70
Width: 396
VWidth: 0
Flags: W
HStem: -4 21G<59.5 95 257 282> 405 20G<60 85.5>
VStem: 29 96<2.38086 121.547 334.084 417.708> 220 91<0.516083 102.164>
LayerCount: 2
Fore
SplineSet
114 237 m 9
 81 296 28 333 28 389 c 0
 28 408 47 425 73 425 c 0
 98 425 118 413 123 395 c 0
 136 353 149 324 168 294 c 9
 195 333 201 358 238 393 c 24
 256 410 273 420 302 420 c 0
 318 420 339 408 339 396 c 0
 339 385 330 377 317 360 c 0
 293 328 253 281 222 240 c 0
 213 228 212 217 221 204 c 0
 248 165 311 94 311 27 c 0
 311 10 295 -4 269 -4 c 0
 245 -4 220 6 220 23 c 0
 220 56 194 124 169 162 c 1
 151 133 125 90 125 32 c 0
 125 13 108 -4 82 -4 c 0
 37 -4 29 22 29 47 c 0
 29 100 79 171 114 237 c 9
EndSplineSet
Substitution2: "'smcp' Lowercase to Small Capitals in Latin lookup 0 subtable" x.sc
EndChar

StartChar: y
Encoding: 121 121 71
Width: 406
VWidth: 0
Flags: MW
HStem: -200 20<-8.17249 202.114> 405.981 20G<317.767 354.5>
VStem: 27 108<263.829 404.242> 263 120<276.618 368.552>
LayerCount: 2
Fore
SplineSet
127 28 m 16
 132 42 134 56 134 69 c 0
 134 91 128 113 118 129 c 0
 82 187 27 287 27 350 c 0
 27 394 59 423 93 423 c 0
 136 423 131 388 135 334 c 0
 138 286 151 224 183 160 c 0
 188 149 194 145 198 145 c 0
 206 145 212 159 215 164 c 0
 231 196 255 233 263 276 c 0
 281 372 296 426 340 426 c 0
 369 426 383 399 383 365 c 0
 383 285 296.849 130.962 209 0 c 24
 146.777 -92.7598 94 -200 4 -200 c 0
 -20 -200 -39 -179 -39 -153 c 0
 -39 -128 -13 -109 47 -64 c 0
 82 -38 111.008 -16.7783 127 28 c 16
EndSplineSet
Substitution2: "'smcp' Lowercase to Small Capitals in Latin lookup 0 subtable" y.sc
EndChar

StartChar: z
Encoding: 122 122 72
Width: 366
VWidth: 0
Flags: W
HStem: -1 58<128.546 303.876> 370.981 55<91.3638 210.718>
VStem: 36 286
LayerCount: 2
Fore
SplineSet
309 37 m 0
 309 -10 217 -1 153 -1 c 0
 74 -1 36 22 36 63 c 0
 36 104 93.749 173.116 135 241 c 24
 162.075 285.557 185 307.981 211 350.981 c 0
 216 357.981 205.749 370.82 196 370.981 c 24
 154.074 371.675 119 352.981 90 352.981 c 0
 68 352.981 50 366.981 50 382.981 c 0
 50 426.981 130.373 426.391 186 425.981 c 24
 241.866 425.57 322 423.981 322 380.981 c 0
 322 357.981 306.589 345.481 293 324.981 c 24
 238.241 242.38 199 200 147 117 c 0
 133 95 104 57 166 57 c 0
 203 57 225 62 261 62 c 0
 284 62 309 56 309 37 c 0
EndSplineSet
Substitution2: "'smcp' Lowercase to Small Capitals in Latin lookup 0 subtable" z.sc
EndChar

StartChar: six
Encoding: 54 54 73
Width: 456
VWidth: 0
Flags: W
HStem: 0 60<166.754 292.804> 318.7 70.3799<172.582 289.44>
VStem: 19.9805 94.5195<119.061 293.521> 332.5 105.48<115.043 272.834>
LayerCount: 2
Fore
SplineSet
437.98 200.7 m 0
 437.98 116.7 369.98 0 231.5 0 c 0
 101.98 0 16.1895 72.7002 19.9805 221.732 c 0
 25.8945 454.255 197.825 556.583 266.5 654.19 c 1
 325.98 590 l 1
 278.643 510.643 205.98 468 171.98 380 c 1
 194.054 386.21 209.121 389.08 238.9 389.08 c 0
 337.984 389.08 437.98 311.7 437.98 200.7 c 0
332.5 186.7 m 0
 332.5 276.7 285.595 318.7 222.5 318.7 c 0
 196.121 318.7 177.669 295.969 163.888 299.913 c 0
 157.158 301.841 151.566 306.302 143.688 310.386 c 1
 129.034 278.324 114.5 246.998 114.5 213.513 c 0
 114.5 135.599 149.98 60 227.98 60 c 0
 317.98 60 332.5 133.7 332.5 186.7 c 0
EndSplineSet
Substitution2: "dull but fullsized digits-1" six.ss02
Substitution2: "small digits for street numbers-1" six.ss01
EndChar

StartChar: seven
Encoding: 55 55 74
Width: 395
VWidth: 0
Flags: W
HStem: 537.32 96.0293<32.3884 274.535>
VStem: 101.466 99<7.26862 187.283>
LayerCount: 2
Fore
SplineSet
277.5 539.26 m 1
 214.5 530.174 134.738 537.32 108.61 537.32 c 0
 68.8398 537.32 16.46 551.869 16.46 588.73 c 0
 16.46 612.041 32.9189 633.35 56.2295 633.35 c 0
 91.1504 633.35 134.945 623.116 185.5 623.65 c 24
 242.819 624.256 300.9 636.26 331.939 636.26 c 0
 358.16 636.26 378.5 618.801 378.5 587.76 c 0
 378.5 566.25 363.95 552.84 347.46 542.17 c 1
 328.5 486.174 303.485 425.98 281.576 374.174 c 0
 264.686 334.233 200.466 160.174 200.466 52.1738 c 0
 200.466 16.5312 177.465 0 149.661 -2 c 0
 117.486 -4.31445 101.466 21.1152 101.466 45.5312 c 0
 101.466 124.174 124.049 249.293 223.5 425.981 c 0
 249.5 472.174 267.5 500.174 277.5 539.26 c 1
EndSplineSet
Substitution2: "dull but fullsized digits-1" seven.ss02
Substitution2: "small digits for street numbers-1" seven.ss01
EndChar

StartChar: nine
Encoding: 57 57 75
Width: 456
VWidth: 0
Flags: W
HStem: 0 21G<172.928 225.798> 265.11 70.3799<163.682 285.173> 602.19 52<166.085 284.545>
VStem: 19.9805 100.311<381.357 538.076> 338.291 99.6895<360.67 538.728>
LayerCount: 2
Fore
SplineSet
19.9805 453.49 m 0
 19.9805 537.49 87.9805 654.19 226.461 654.19 c 0
 355.98 654.19 441.771 581.49 437.98 432.458 c 0
 432.066 199.936 260.136 97.6074 191.461 0 c 1
 131.98 64.1904 l 1
 179.318 143.548 247.98 184 285.98 274.19 c 1
 263.907 267.98 248.84 265.11 219.061 265.11 c 0
 119.977 265.11 19.9805 342.49 19.9805 453.49 c 0
120.291 467.49 m 0
 120.291 377.49 167.196 335.49 230.291 335.49 c 0
 281.387 335.49 279.335 338.581 309.103 343.805 c 1
 323.757 375.866 338.291 407.192 338.291 440.678 c 0
 338.291 518.592 302.291 602.19 224.291 602.19 c 0
 145.98 602.19 120.291 520.49 120.291 467.49 c 0
EndSplineSet
Substitution2: "dull but fullsized digits-1" nine.ss02
Substitution2: "small digits for street numbers-1" nine.ss01
EndChar

StartChar: f_k
Encoding: 65537 -1 76
Width: 608
VWidth: 0
Flags: W
HStem: -2 21.9004G<86.5 121 278.938 313.438 482.438 519.938> 336.682 91.597<140.513 235.367> 579.118 61<154.343 237.265> 619 20G<317.311 335.938>
VStem: 50.4708 88.3552<90.2938 285.97 424.5 563.609> 53 101<8.57217 282.904> 236.438 90<410.407 498.855> 245.438 101<8.57217 167.136> 453.438 94<7.20213 143.247>
LayerCount: 2
Fore
SplineSet
205.812 579.118 m 0xe280
 129.187 579.118 131.57 503.034 132.628 428.279 c 1
 161.67 423.242 205.052 421.328 236.867 410.407 c 1
 236.589 417.688 236.438 425.201 236.438 433 c 0
 236.438 464.877 240.899 500.69 249.108 533.404 c 1
 237.698 551.151 238.158 579.118 205.812 579.118 c 0xe280
323.438 639 m 0xd880
 348.438 639 363.438 614 363.438 587 c 0
 363.438 514 326.438 471 326.438 359 c 0xda80
 326.438 339.977 329.113 308.909 332.509 272.455 c 1
 405.693 337.271 455.018 421 532.438 421 c 0
 556.438 421 578.438 408 578.438 391 c 0
 578.438 352 499.438 347.9 433.438 263.9 c 1
 507.438 206.9 547.438 134.9 547.438 75.9004 c 0
 547.438 42.9004 543.438 -1.09961 496.438 -1.09961 c 0
 468.438 -1.09961 453.438 19.9004 453.438 39.9004 c 0
 453.438 120.9 426.438 174 374.438 207 c 1
 364.689 199.341 351.548 183.877 341.764 168.776 c 1
 344.467 133.789 346.438 99.1289 346.438 69 c 0
 346.438 33 333.438 -2 293.438 -2 c 0
 264.438 -2 245.438 29 245.438 60 c 0
 245.438 118 259.438 151 257.438 209 c 0
 255.838 255.93 249.972 292.337 244.845 328.989 c 1
 242.969 328.786 241.021 328.682 239 328.682 c 0
 222 328.682 178.376 336.682 161.376 336.682 c 0
 135.493 336.682 140.377 306.874 140.126 285.118 c 1
 140.126 285.118 139.674 285.414 138.826 285.97 c 1xd980
 144.744 220.902 154 134.307 154 69 c 0
 154 33 141 -2 101 -2 c 0
 72 -2 53 29 53 60 c 0xd480
 53 118 66.4062 150.719 65 209 c 0
 63.7066 262.605 56.1515 302.603 50.4708 345.005 c 1
 37.068 351.768 29.5232 361.274 29.376 376.482 c 0
 29.2483 389.707 36.2085 403.021 44.2874 414.917 c 1
 41.0264 517.233 51.1871 634.047 205.812 640.118 c 0xe880
 239.224 641.43 268.64 635.279 289.912 621.91 c 1
 299.948 632.694 311.185 639 323.438 639 c 0xd880
EndSplineSet
LCarets2: 1 193 
Ligature2: "Standard Ligatures in Latin-1" f k
EndChar

StartChar: f_l
Encoding: 65538 -1 77
Width: 412
VWidth: 0
Flags: W
HStem: -2 21G<86.5 121 289.874 324.374> 336.682 91.597<140.513 238.404> 579.118 61<158.98 237.396> 619 20G<327.483 346.874>
VStem: 50.4708 88.3552<90.2938 285.97 424.387 557.582> 53 101<8.57217 282.904> 247.374 90<400.918 500.019> 256.374 101<8.57217 321.154>
LayerCount: 2
Fore
SplineSet
205.125 579.118 m 0xe2
 141.527 579.118 131.57 503.034 132.628 428.279 c 1
 168.58 422.044 220.812 420.594 248.241 400.918 c 1
 247.688 411.128 247.374 421.767 247.374 433 c 0
 247.374 461.981 251.061 494.215 257.901 524.417 c 1
 236.325 539.08 243.826 579.118 205.125 579.118 c 0xe2
334.374 639 m 0xd8
 359.374 639 374.374 614 374.374 587 c 0
 374.374 514 337.374 471 337.374 359 c 0xda
 337.374 307 357.374 165 357.374 69 c 0
 357.374 33 344.374 -2 304.374 -2 c 0
 275.374 -2 256.374 29 256.374 60 c 0
 256.374 118 270.374 151 268.374 209 c 0
 266.65 259.576 259.971 283.71 254.603 323.321 c 1
 240.423 317.758 184.821 336.682 161.376 336.682 c 0
 135.493 336.682 140.377 306.874 140.126 285.118 c 1
 140.126 285.118 139.674 285.414 138.826 285.97 c 1xd9
 144.744 220.902 154 134.307 154 69 c 0
 154 33 141 -2 101 -2 c 0
 72 -2 53 29 53 60 c 0xd4
 53 118 66.4062 150.719 65 209 c 0
 63.7066 262.605 56.1515 302.603 50.4708 345.005 c 1
 37.068 351.768 29.5232 361.274 29.376 376.482 c 0
 29.2483 389.707 36.2085 403.021 44.2874 414.917 c 1
 41.0264 517.233 75.1367 640.118 211.125 640.118 c 0xe8
 247.007 640.118 276.906 632.879 297.146 617.665 c 1
 308.095 631.021 320.592 639 334.374 639 c 0xd8
EndSplineSet
LCarets2: 1 206 
Ligature2: "Standard Ligatures in Latin-1" f l
EndChar

StartChar: f_t
Encoding: 65539 -1 78
Width: 404
VWidth: 0
Flags: W
HStem: -2 21G<86.5 121> 336.682 91.597<140.513 227.467 326.715 385.146> 579.118 61<157.206 250.36>
VStem: 50.4708 88.3552<90.2938 285.97 425.557 558.797> 53 101<8.57217 282.904> 232.998 87.94<85.5939 336.671>
LayerCount: 2
Fore
SplineSet
213.188 579.118 m 0xe4
 131.187 579.118 131.57 503.034 132.628 428.279 c 1
 160.294 423.481 199.191 426.081 228.865 420.618 c 1
 232.921 426.197 237.012 431.377 240.438 435.981 c 1
 245.596 460.815 249.202 499.982 260.588 527.851 c 1
 257.187 543.588 249.176 579.118 213.188 579.118 c 0xe4
232.998 344.052 m 1
 215.998 344.052 178.376 336.682 161.376 336.682 c 0
 135.493 336.682 140.377 306.874 140.126 285.118 c 1
 140.126 285.118 139.674 285.414 138.826 285.97 c 1xf4
 144.744 220.902 154 134.307 154 69 c 0
 154 33 141 -2 101 -2 c 0
 72 -2 53 29 53 60 c 0xec
 53 118 66.4062 150.719 65 209 c 0
 63.7066 262.605 56.1515 302.603 50.4708 345.005 c 1xf4
 37.068 351.768 29.5232 361.274 29.376 376.482 c 0
 29.2483 389.707 36.2085 403.021 44.2874 414.917 c 1
 41.0264 517.233 63.1871 643.588 213.188 640.118 c 0
 300.306 638.103 338.438 601.535 338.438 513.981 c 0
 338.438 503.411 326.438 425.981 326.438 425.981 c 1
 375.438 425.981 424.938 409.682 424.938 365.682 c 0
 424.938 344.682 410.938 328.682 385.938 328.682 c 0
 368.938 328.682 358.938 336.682 341.938 336.682 c 0
 321.25 336.682 325.179 321.006 320.938 308.17 c 0
 320.938 307.016 320.938 305.853 320.938 304.682 c 0
 320.938 266.222 314.829 217.5 319.696 137.959 c 0
 320.776 120.298 323.419 94.6738 337.396 87.6855 c 0
 366.017 73.374 388.824 47.4365 370.937 11.6592 c 0
 357.967 -14.2793 324.426 -18.752 299.382 -6.22949 c 0
 234.021 26.4512 235.935 122.72 232.438 213.659 c 0
 230.064 276.14 237.811 291.427 232.998 344.052 c 1
EndSplineSet
LCarets2: 1 195 
Ligature2: "Standard Ligatures in Latin-1" f t
EndChar

StartChar: f_f
Encoding: 65540 -1 79
Width: 476
VWidth: 0
Flags: W
HStem: -2 21G<86.5 121 288.812 323.312> 336.682 91.597<140.513 246.312 342.825 406.896> 551.788 61<152.724 239.186> 579.121 61<350.094 417.685>
VStem: 50.4708 88.3552<90.2938 285.97 425.437 537.889> 53 101<8.57217 282.904> 246.58 88.36<424.95 497.238> 255.312 101<8.57217 282.904>
LayerCount: 2
Fore
SplineSet
204.438 551.788 m 0xe2
 140.84 551.788 131.57 503.034 132.628 428.279 c 1
 165.619 422.558 214.437 425.981 246.58 421.55 c 1
 245.734 448.671 246.052 471.213 249.513 498.514 c 1
 240.437 523.788 241.945 551.788 204.438 551.788 c 0xe2
392.438 579.121 m 0xd8
 328.84 579.121 333.883 503.034 334.94 428.279 c 1xda
 385.713 419.473 446.688 420.215 446.688 365.685 c 0
 446.688 344.685 432.688 328.685 407.688 328.685 c 0
 390.688 328.685 380.688 336.682 363.688 336.682 c 0
 337.805 336.682 342.688 306.874 342.438 285.118 c 1
 342.438 285.118 341.986 285.414 341.138 285.97 c 1
 347.057 220.902 356.312 134.307 356.312 69 c 0
 356.312 33 343.312 -2 303.312 -2 c 0
 274.312 -2 255.312 29 255.312 60 c 0
 255.312 118 268.719 150.719 267.312 209 c 0
 266.019 262.605 268.118 283.387 262.438 325.788 c 0
 261 337 253.982 340.652 240.438 339.788 c 0
 220 340 183.642 336.682 161.376 336.682 c 0
 135.493 336.682 140.377 306.874 140.126 285.118 c 1
 140.126 285.118 139.674 285.414 138.826 285.97 c 1xd9
 144.744 220.902 154 134.307 154 69 c 0
 154 33 141 -2 101 -2 c 0
 72 -2 53 29 53 60 c 0xd4
 53 118 66.4062 150.719 65 209 c 0
 63.7066 262.605 56.1515 302.603 50.4708 345.005 c 1
 37.068 351.768 29.5232 361.274 29.376 376.482 c 0
 29.2483 389.707 36.2085 403.021 44.2874 414.917 c 1
 41.0264 517.233 68.4492 612.788 204.438 612.788 c 0xe8
 237.044 612.788 264.592 606.81 284.436 594.302 c 1
 306.458 622.181 340.478 640.121 392.438 640.121 c 0
 460.438 640.121 495.812 614.121 495.812 557.121 c 0
 495.812 532.121 478.812 519.121 447.812 519.121 c 0
 400.812 519.121 439.813 579.121 392.438 579.121 c 0xd8
EndSplineSet
LCarets2: 1 203 
Ligature2: "Standard Ligatures in Latin-1" f f
EndChar

StartChar: f_f_i
Encoding: 65541 -1 80
Width: 593
VWidth: 0
Flags: W
HStem: -2 21G<86.5 121 288.812 323.312> 336.682 91.597<140.513 246.312 342.825 432.57> 551.788 61<152.724 239.186> 579.121 61<375.645 468.923>
VStem: 44.2874 88.3406<425.782 530.314> 53 101<8.57217 282.904> 246.58 88.36<426.006 497.238> 255.312 101<8.57217 282.904> 429 87<50.4742 343.324> 438 96<9.71734 247.344>
LayerCount: 2
Fore
SplineSet
427.438 579.121 m 0xd8
 363.84 579.121 333.883 503.034 334.94 428.279 c 1
 371.254 421.981 433.313 428.702 465.713 413.09 c 1
 478.885 429.443 495.201 440.03 514 440.03 c 0
 538 440.03 553 424.03 553 405.03 c 0
 553 355.03 516 326.03 516 249.03 c 0xda80
 516 214.03 534 116.03 534 51.0303 c 0
 534 26.0303 522 3.03027 484 3.03027 c 0
 457 3.03027 438 24.0303 438 45.0303 c 0xd040
 438 84.0303 452 108.03 450 147.03 c 0
 447 207.03 429 241.03 429 299.03 c 0
 429 313.223 430.846 328.59 434.354 343.783 c 1
 412.284 341.77 377.326 336.682 363.688 336.682 c 0
 337.805 336.682 342.688 306.874 342.438 285.118 c 1
 342.438 285.118 341.986 285.414 341.138 285.97 c 1
 347.057 220.902 356.312 134.307 356.312 69 c 0
 356.312 33 343.312 -2 303.312 -2 c 0
 274.312 -2 255.312 29 255.312 60 c 0
 255.312 118 268.719 150.719 267.312 209 c 0
 266.019 262.605 268.118 283.387 262.438 325.788 c 0
 261 337 253.982 340.652 240.438 339.788 c 1
 220 340 183.642 336.682 161.376 336.682 c 0
 135.493 336.682 140.377 306.874 140.126 285.118 c 1
 140.126 285.118 139.674 285.414 138.826 285.97 c 1
 144.744 220.902 154 134.307 154 69 c 0
 154 33 141 -2 101 -2 c 0
 72 -2 53 29 53 60 c 0xd580
 53 118 66.4062 150.719 65 209 c 0
 63.7066 262.605 56.1515 302.603 50.4708 345.005 c 1
 37.068 351.768 29.5232 361.274 29.376 376.482 c 0
 29.2483 389.707 36.2085 403.021 44.2874 414.917 c 1
 41.0264 517.233 68.4492 612.788 204.438 612.788 c 0xe8
 237.044 612.788 264.592 606.81 284.436 594.302 c 1
 306.458 622.181 375.479 640.121 427.438 640.121 c 0
 495.438 640.121 560.812 614.121 560.812 557.121 c 0
 560.812 532.121 543.812 514.121 512.812 514.121 c 0
 438.812 514.121 506.812 579.121 427.438 579.121 c 0xd8
204.438 551.788 m 0xea
 140.84 551.788 131.57 503.034 132.628 428.279 c 1
 165.619 422.558 214.437 425.981 246.58 421.55 c 1
 245.734 448.671 246.052 471.213 249.513 498.514 c 1
 240.437 523.788 241.945 551.788 204.438 551.788 c 0xea
EndSplineSet
LCarets2: 2 207 399 
Ligature2: "Standard Ligatures in Latin-1" f f i
EndChar

StartChar: f_f_k
Encoding: 65542 -1 81
Width: 818
VWidth: 0
Flags: W
HStem: -2 21.9004G<86.5 121 288.812 323.312 480.094 514.594 683.594 721.094> 336.682 91.597<140.513 245.061 342.825 436.292> 336.682 83.1284<140.635 246.312 343.543 436.739> 551.788 61<152.724 239.186> 579.121 61<350.094 434.52> 619 20G<516.283 537.094>
VStem: 50.4708 88.3552<90.2938 285.97 425.437 537.889> 53 101<8.57217 282.904> 246.58 88.36<425.961 497.238> 255.312 101<8.57217 282.904> 443.829 83.7649<272.973 345.012 419.81 498.841> 446.594 101<8.57217 167.136> 654.594 94<7.20213 143.247>
LayerCount: 2
Fore
SplineSet
392.438 579.121 m 0xa888
 328.84 579.121 333.883 503.034 334.94 428.279 c 1xc888
 364.357 423.177 407.039 426.619 437.74 419.81 c 1
 436.98 454.071 439.793 485.436 446.959 519.128 c 1
 440.812 539.588 439.523 579.121 392.438 579.121 c 0xa888
204.438 551.788 m 0xd088
 140.84 551.788 131.57 503.034 132.628 428.279 c 1
 165.619 422.558 214.437 425.981 246.58 421.55 c 1
 245.734 448.671 246.052 471.213 249.513 498.514 c 1
 240.437 523.788 241.945 551.788 204.438 551.788 c 0xd088
524.594 639 m 0x8608
 549.594 639 564.594 614 564.594 587 c 0
 564.594 514 527.594 471 527.594 359 c 0x8628
 527.594 339.977 530.27 308.909 533.665 272.455 c 1
 606.85 337.271 656.174 421 733.594 421 c 0
 757.594 421 779.594 408 779.594 391 c 0
 779.594 352 700.594 347.9 634.594 263.9 c 1
 708.594 206.9 748.594 134.9 748.594 75.9004 c 0
 748.594 42.9004 744.594 -1.09961 697.594 -1.09961 c 0
 669.594 -1.09961 654.594 19.9004 654.594 39.9004 c 0
 654.594 120.9 627.594 174 575.594 207 c 1
 565.846 199.341 552.704 183.877 542.92 168.776 c 1
 545.623 133.789 547.594 99.1289 547.594 69 c 0
 547.594 33 534.594 -2 494.594 -2 c 0
 465.594 -2 446.594 29 446.594 60 c 0x8418
 446.594 118 460.594 151 458.594 209 c 0
 456.762 262.748 449.334 302.693 443.829 345.012 c 1
 424.415 342.515 383.361 336.682 363.688 336.682 c 0
 337.805 336.682 342.688 306.874 342.438 285.118 c 1
 342.438 285.118 341.986 285.414 341.138 285.97 c 1
 347.057 220.902 356.312 134.307 356.312 69 c 0
 356.312 33 343.312 -2 303.312 -2 c 0
 274.312 -2 255.312 29 255.312 60 c 0
 255.312 118 268.719 150.719 267.312 209 c 0
 266.019 262.605 268.118 283.387 262.438 325.788 c 0
 261 337 253.982 340.652 240.438 339.788 c 1
 220 340 183.642 336.682 161.376 336.682 c 0
 135.493 336.682 140.377 306.874 140.126 285.118 c 1
 140.126 285.118 139.674 285.414 138.826 285.97 c 1xc668
 144.744 220.902 154 134.307 154 69 c 0
 154 33 141 -2 101 -2 c 0
 72 -2 53 29 53 60 c 0xc508
 53 118 66.4062 150.719 65 209 c 0
 63.7066 262.605 56.1515 302.603 50.4708 345.005 c 1
 37.068 351.768 29.5232 361.274 29.376 376.482 c 0
 29.2483 389.707 36.2085 403.021 44.2874 414.917 c 1
 41.0264 517.233 68.4492 612.788 204.438 612.788 c 0xd608
 237.044 612.788 264.592 606.81 284.436 594.302 c 1
 306.458 622.181 340.478 640.121 392.438 640.121 c 0x8a08
 434.732 640.121 464.405 630.063 480.795 608.743 c 1
 493.217 627.392 507.971 639 524.594 639 c 0x8608
EndSplineSet
LCarets2: 2 195 405 
Ligature2: "Standard Ligatures in Latin-1" f f k
EndChar

StartChar: f_f_l
Encoding: 65543 -1 82
Width: 590
VWidth: 0
Flags: W
HStem: -2 21G<86.5 121 288.812 323.312 467.094 501.594> 336.682 91.597<140.513 246.312 342.825 424.159> 551.788 61<152.724 239.186> 579.121 61<350.094 426.94> 619 20G<504.531 524.094>
VStem: 50.4708 88.3552<90.2938 285.97 425.437 537.889> 53 101<8.57217 282.904> 246.58 88.36<425.895 497.238> 255.312 101<8.57217 282.904> 424.594 90<106.891 344.285 422.109 499.188> 433.594 101<8.57217 326.635>
LayerCount: 2
Fore
SplineSet
392.438 579.121 m 0xd140
 328.84 579.121 333.883 503.034 334.94 428.279 c 1
 360.262 423.887 395.614 425.826 424.693 422.109 c 1
 424.628 425.679 424.594 429.307 424.594 433 c 0
 424.594 461.031 428.044 492.105 434.458 521.441 c 1
 426.812 547.588 434.209 579.121 392.438 579.121 c 0xd140
204.438 551.788 m 0xe1
 140.84 551.788 131.57 503.034 132.628 428.279 c 1
 165.619 422.558 214.437 425.981 246.58 421.55 c 1
 245.734 448.671 246.052 471.213 249.513 498.514 c 1
 240.437 523.788 241.945 551.788 204.438 551.788 c 0xe1
511.594 639 m 0xcc
 536.594 639 551.594 614 551.594 587 c 0
 551.594 514 514.594 471 514.594 359 c 0xcc40
 514.594 307 534.594 165 534.594 69 c 0
 534.594 33 521.594 -2 481.594 -2 c 0
 452.594 -2 433.594 29 433.594 60 c 0
 433.594 118 447.594 151 445.594 209 c 0
 443.772 262.44 436.419 302.235 430.924 344.285 c 1
 411.687 342.836 378.687 336.682 363.688 336.682 c 0
 337.805 336.682 342.688 306.874 342.438 285.118 c 1
 342.438 285.118 341.986 285.414 341.138 285.97 c 1
 347.057 220.902 356.312 134.307 356.312 69 c 0
 356.312 33 343.312 -2 303.312 -2 c 0
 274.312 -2 255.312 29 255.312 60 c 0
 255.312 118 268.719 150.719 267.312 209 c 0
 266.019 262.605 268.118 283.387 262.438 325.788 c 0
 261 337 253.982 340.652 240.438 339.788 c 1
 220 340 183.642 336.682 161.376 336.682 c 0
 135.493 336.682 140.377 306.874 140.126 285.118 c 1
 140.126 285.118 139.674 285.414 138.826 285.97 c 1xcca0
 144.744 220.902 154 134.307 154 69 c 0
 154 33 141 -2 101 -2 c 0
 72 -2 53 29 53 60 c 0xca
 53 118 66.4062 150.719 65 209 c 0
 63.7066 262.605 56.1515 302.603 50.4708 345.005 c 1
 37.068 351.768 29.5232 361.274 29.376 376.482 c 0
 29.2483 389.707 36.2085 403.021 44.2874 414.917 c 1
 41.0264 517.233 68.4492 612.788 204.438 612.788 c 0xec
 237.044 612.788 264.592 606.81 284.436 594.302 c 1
 306.458 622.181 340.478 640.121 392.438 640.121 c 0xd4
 429.106 640.121 456.287 632.561 473.551 616.657 c 1
 484.693 630.618 497.469 639 511.594 639 c 0xcc
EndSplineSet
LCarets2: 2 0 0 
Ligature2: "Standard Ligatures in Latin-1" f f l
EndChar

StartChar: f_f_t
Encoding: 65544 -1 83
Width: 636
VWidth: 0
Flags: W
HStem: -2 21G<86.5 121 288.812 323.312> 336.682 91.597<140.513 246.312 342.825 411.09 505.589 564.021> 551.788 61<152.724 239.186> 579.121 61<353.453 429.773>
VStem: 50.4708 88.3552<90.2938 285.97 425.437 537.889> 53 101<8.57217 282.904> 246.58 88.36<425.999 497.238> 255.312 101<8.57217 282.904> 411.909 87.9037<85.5938 336.671>
LayerCount: 2
Fore
SplineSet
396.812 579.121 m 0xd280
 333.214 579.121 333.883 503.034 334.94 428.279 c 1
 356.322 424.57 384.713 425.731 410.416 424.243 c 1
 413.565 428.45 416.64 432.39 419.312 435.98 c 1
 424.49 460.913 428.104 500.294 439.599 528.184 c 1
 430.812 555.588 432.564 579.121 396.812 579.121 c 0xd280
204.438 551.788 m 0xe280
 140.84 551.788 131.57 503.034 132.628 428.279 c 1
 165.619 422.558 214.437 425.981 246.58 421.55 c 1
 245.734 448.671 246.052 471.213 249.513 498.514 c 1
 240.437 523.788 241.945 551.788 204.438 551.788 c 0xe280
411.909 343.638 m 1
 394.481 340.718 374.539 336.682 363.688 336.682 c 0
 337.805 336.682 342.688 306.874 342.438 285.118 c 1
 342.438 285.118 341.986 285.414 341.138 285.97 c 1
 347.057 220.902 356.312 134.307 356.312 69 c 0
 356.312 33 343.312 -2 303.312 -2 c 0
 274.312 -2 255.312 29 255.312 60 c 0
 255.312 118 268.719 150.719 267.312 209 c 0
 266.019 262.605 268.118 283.387 262.438 325.788 c 0
 261 337 253.982 340.652 240.438 339.788 c 1
 220 340 183.642 336.682 161.376 336.682 c 0
 135.493 336.682 140.377 306.874 140.126 285.118 c 1
 140.126 285.118 139.674 285.414 138.826 285.97 c 1xd980
 144.744 220.902 154 134.307 154 69 c 0
 154 33 141 -2 101 -2 c 0
 72 -2 53 29 53 60 c 0xd480
 53 118 66.4062 150.719 65 209 c 0
 63.7066 262.605 56.1515 302.603 50.4708 345.005 c 1
 37.068 351.768 29.5232 361.273 29.376 376.481 c 0
 29.2483 389.706 36.2085 403.021 44.2874 414.917 c 1
 41.0264 517.233 68.4492 612.788 204.438 612.788 c 0xe880
 237.044 612.788 264.592 606.81 284.436 594.302 c 1
 306.458 622.181 344.853 640.121 396.812 640.121 c 0xd880
 488.388 640.121 517.312 594.925 517.312 513.98 c 0
 517.312 503.411 505.312 425.98 505.312 425.98 c 1
 554.312 425.98 603.812 409.682 603.812 365.682 c 0
 603.812 344.682 589.812 328.682 564.812 328.682 c 0
 547.812 328.682 537.812 336.682 520.812 336.682 c 0
 500.124 336.682 504.054 321.006 499.812 308.17 c 0
 499.812 307.016 499.812 305.853 499.812 304.682 c 0
 499.812 266.222 493.702 217.5 498.57 137.959 c 0
 499.65 120.298 502.292 94.6738 516.27 87.6855 c 0
 544.891 73.374 567.697 47.4365 549.811 11.6592 c 0
 536.841 -14.2793 503.3 -18.752 478.256 -6.22949 c 0
 412.895 26.4512 414.809 122.72 411.312 213.659 c 0
 408.945 275.975 416.644 291.346 411.909 343.638 c 1
EndSplineSet
LCarets2: 2 205 386 
Ligature2: "Standard Ligatures in Latin-1" f f t
EndChar

StartChar: asciitilde
Encoding: 126 126 84
Width: 472
VWidth: 0
Flags: W
HStem: 312 68<130.514 381.326> 330 68<93.6309 317.964>
LayerCount: 2
Fore
SplineSet
40 304 m 21x40
 40 358 113 398 171 398 c 4x40
 224 398 274 380 325 380 c 4
 357 380 395 398 429 417 c 5
 430 414 430 411 430 408 c 4
 430 363 370 312 321 312 c 4x80
 256 312 205.401 332.118 131 330 c 28
 94.1045 328.949 75.4902 314.14 40 304 c 21x40
EndSplineSet
EndChar

StartChar: hyphen
Encoding: 45 45 85
Width: 472
VWidth: 0
Flags: W
HStem: 312 71<128.804 416.592> 330 68<64.3484 317.964>
LayerCount: 2
Fore
SplineSet
40 320 m 17x40
 40 374 71 398 171 398 c 4x40
 224 398 274 383 325 383 c 0
 357 383 397 376 431 395 c 1
 432 392 432 389 432 386 c 0
 432 341 425 312 321 312 c 4x80
 256 312 205.401 327.882 131 330 c 24
 95.3105 331.016 75.4902 323.9 40 320 c 17x40
EndSplineSet
EndChar

StartChar: circumflex
Encoding: 710 710 86
Width: 0
VWidth: 0
Flags: W
HStem: 654.69 90.72
LayerCount: 2
Fore
SplineSet
235 745.41 m 29
 367 654.69 l 29
 343 654.639 l 29
 199 718 l 29
 55 654.639 l 29
 31 654.69 l 29
 163 745.41 l 29
 235 745.41 l 29
EndSplineSet
EndChar

StartChar: caron
Encoding: 711 711 87
Width: 0
VWidth: 0
Flags: W
HStem: 655 90
LayerCount: 2
Fore
SplineSet
163 655 m 29
 31 745 l 29
 55 745 l 29
 199 682 l 29
 343 745 l 29
 367 745 l 29
 235 655 l 29
 163 655 l 29
EndSplineSet
EndChar

StartChar: uni02C9
Encoding: 713 713 88
Width: 1000
VWidth: 0
HStem: 686 34<41 393>
LayerCount: 2
Fore
SplineSet
41 720 m 17
 163.056 701.11 275 732 393 720 c 9
 393 686 l 17
 275 704 163.325 666.079 41 686 c 9
 41 720 l 17
EndSplineSet
EndChar

StartChar: uni02CA
Encoding: 714 714 89
Width: 1000
VWidth: 0
HStem: 702 34<341 365.363>
LayerCount: 2
Back
SplineSet
31 656.15 m 21
 31 710.15 104 724.15 162 724.15 c 4
 215 724.15 241 704.15 292 704.15 c 4
 324 704.15 362 722.15 396 741.15 c 5
 397 738.15 397 735.15 397 732.15 c 4
 397 687.15 337 662.15 288 662.15 c 4
 223 662.15 187 684.15 122 682.15 c 28
 85 681.15 66 666.15 31 656.15 c 21
EndSplineSet
Fore
SplineSet
31 654.69 m 29
 151.9 686.4 341 736 341 736 c 6
 357.28 740.27 366.398 731.691 365.781 722 c 4
 365.252 713.672 360.467 704.971 341 702 c 6
 341 700 151.9 673.141 31 654.69 c 29
EndSplineSet
EndChar

StartChar: uni02CB
Encoding: 715 715 90
Width: 1000
VWidth: 0
Flags: W
HStem: 702 34<32.6371 57>
LayerCount: 2
Fore
SplineSet
367 654.69 m 29
 246.1 673.141 57 700 57 702 c 6
 37.5332 704.971 32.748 713.672 32.2188 722 c 4
 31.6025 731.691 40.7197 740.271 57 736 c 6
 57 736 246.1 686.4 367 654.69 c 29
EndSplineSet
EndChar

StartChar: breve
Encoding: 728 728 91
Width: 0
VWidth: 0
Flags: W
HStem: 655 29<129.242 259.336>
LayerCount: 2
Back
SplineSet
163 655 m 29
 31 745 l 29
 55 745 l 29
 199 682 l 29
 343 745 l 29
 367 745 l 29
 235 655 l 29
 163 655 l 29
EndSplineSet
Fore
SplineSet
31 737 m 9
 55 737 l 17
 109 706 139.157 684 199 684 c 27
 258.843 684 291 706 343 737 c 9
 367 737 l 25
 367 737 272.335 655 198 655 c 1
 116.402 659.069 77 698 31 737 c 9
EndSplineSet
EndChar

StartChar: ring
Encoding: 730 730 92
Width: 0
VWidth: 0
Flags: W
HStem: 648 23<56.1891 109.958> 739 23<58.2725 104.088>
VStem: 26 23<677.942 730.262> 117 23<677.861 727.21>
LayerCount: 2
Fore
SplineSet
117 703 m 0
 117 722 104 730 95 733 c 1
 91 740 83 739 78 739 c 0
 64 739 49 721 49 705 c 0
 49 681 63 671 86 671 c 0
 107 671 117 688 117 703 c 0
140 701 m 0
 140 677 124 648 88 648 c 0
 50 648 26 665 26 705 c 0
 26 732 51 762 75 762 c 0
 83 762 97 764 103 752 c 1
 118 748 140 733 140 701 c 0
EndSplineSet
EndChar

StartChar: AE
Encoding: 198 198 98
Width: 522
VWidth: 0
Flags: W
HStem: -2 99<341.258 463.245> 279.063 101.937<149.739 228.535 346.327 412.253> 292 84<325.912 388.743> 537 98<348.933 475.157> 616 20G<169.5 239.228>
VStem: 228.535 97<110.517 280.407 381.005 509.185>
LayerCount: 2
Fore
SplineSet
128.614 279.063 m 1xc4
 115.268 244.2 109.268 192.2 118 147 c 0
 127.01 100.362 153.5 74 153.5 34 c 0
 153.5 11.377 131.5 0 106.5 0 c 0
 46.5 0 26 123 26 215 c 0
 26 379 118.5 636 220.5 636 c 0xcc
 257.957 636 284.8 635 325.535 635 c 0
 446.535 635 490.535 636 490.535 565 c 0
 490.535 539 467.535 531 441.535 531 c 0
 417.535 531 404.535 537 380.535 537 c 0
 364.535 537 352.535 529 348.535 514 c 0
 338.535 480 325.535 441 325.535 393 c 0
 325.535 373 327.535 376 343.535 376 c 0
 392.535 376 428.535 365 428.535 321 c 0
 428.535 300 414.535 284 389.535 284 c 0
 372.535 284 362.535 292 345.535 292 c 0xb4
 320.535 292 321.023 273.086 320.535 256 c 0
 318.971 201.254 328.441 170.416 340.535 117 c 0
 342.741 107.258 347.535 98 356.535 97 c 0
 409.535 93 477.535 96 477.535 42 c 0
 477.535 18 459.535 -2 435.535 -2 c 0
 397.535 -2 376.535 12 339.535 12 c 0
 312.535 12 294.535 4 269.535 4 c 0
 248.535 4 221.535 12 221.535 34 c 0
 221.535 59 234.535 69 253.535 89 c 1
 242.535 155 235.535 217 229.535 278 c 1
 213.295 283.167 156.987 280.706 128.614 279.063 c 1xc4
149.739 381 m 1
 228.535 381 l 1
 230.535 430 237.535 480 247.535 529 c 1
 239.76 532.456 233.104 537.778 228.051 543.757 c 1
 188.444 509.811 163.829 436.724 149.739 381 c 1
EndSplineSet
EndChar

StartChar: exclamdown
Encoding: 161 161 117
Width: 218
VWidth: 0
Flags: W
HStem: 526 113<86.2878 151.02>
VStem: 49 115<220.201 461.793 543.702 629.143> 72 103<63.9675 279.555>
LayerCount: 2
Fore
SplineSet
50 587 m 0xc0
 50 611 66 639 102 639 c 0
 140 639 164 623 164 583 c 0
 164 556 139 526 115 526 c 0
 107 526 92 524 86 536 c 1
 71 540 50 555 50 587 c 0xc0
94 -8 m 0
 66 -8 47 10 47 30 c 0
 47 85 72 116 72 200 c 0xa0
 72 239 49 346 49 418 c 0
 49 445 65 472 110 472 c 0
 143 472 164 448 164 425 c 0xc0
 164 381 148 357 150 313 c 24
 153 247 175 209 175 145 c 0xa0
 175 79 155 -8 94 -8 c 0
EndSplineSet
EndChar

StartChar: Ccedilla
Encoding: 199 199 118
Width: 364
VWidth: 0
Flags: W
HStem: -1 80<174.893 243.663> 508 129<241.655 301.091>
VStem: 28.5352 107<162.053 456.037> 237.535 85<516.355 556.735> 246.535 91<81.7625 152.719>
LayerCount: 2
Fore
SplineSet
180.768 -166.7 m 1xe8
 200.768 -144.7 l 1
 212.768 -154.7 215.768 -156.7 226.768 -156.7 c 0
 255.768 -156.7 265.768 -130.7 265.768 -104.7 c 0
 265.768 -87.7002 258.768 -67.7002 240.768 -67.7002 c 0
 229.768 -67.7002 223.768 -70.7002 214.768 -80.7002 c 1
 180.768 -76.7002 l 1
 194.465 2.84926 l 1
 75.0215 28.6947 28.5352 179.979 28.5352 313 c 0
 28.5352 476 97.5352 637 243.535 637 c 0
 284.535 637 322.535 610 322.535 568 c 0
 322.535 539 306.535 508 277.535 508 c 0
 256.535 508 243.535 521 237.535 540 c 0xf0
 230.535 562 209.535 560 201.535 548 c 0
 165.535 498 135.535 417 135.535 318 c 0
 135.535 220 149.535 79 210.535 79 c 0
 230.535 79 246.535 94 246.535 114 c 0
 246.535 141 218.535 147 218.535 173 c 0
 218.535 196 242.535 210 261.535 210 c 0
 313.535 211 337.535 169 337.535 123 c 0
 337.535 48.6888 297.768 0 223.768 -0.913086 c 5
 215.768 -40.7002 l 1
 223.178 -39.1396 227.768 -36.7002 234.768 -36.7002 c 0
 270.768 -36.7002 298.768 -62.7002 298.768 -102.7 c 0
 298.768 -144.7 272.768 -188.7 231.768 -188.7 c 0
 209.768 -188.7 192.768 -182.7 180.768 -166.7 c 1xe8
EndSplineSet
EndChar

StartChar: uni0237
Encoding: 567 567 145
Width: 374
VWidth: 0
Flags: W
HStem: -123 61<112.506 193.346> 407.9 20G<234.75 278.75>
VStem: 183.25 84<102.622 338.942> 213.5 73<-41.6924 178.834>
LayerCount: 2
Fore
SplineSet
183.25 259.9 m 0xe0
 183.25 315.9 201.75 427.9 267.75 427.9 c 0
 289.75 427.9 305.75 411.9 305.75 395.9 c 0
 305.75 358.9 267.25 326.9 267.25 208.9 c 0xe0
 267.25 165.9 286.5 47 286.5 4 c 4
 286.5 -70 228.5 -123 152.5 -123 c 4
 84.5 -123 23.5 -94 23.5 -37 c 4
 23.5 -12 40.5 1 71.5 1 c 4
 118.899 1 93.5127 -62 152.5 -62 c 4
 199.5 -62 213.5 -4 213.5 24 c 4xd0
 213.5 93 183.25 188.9 183.25 259.9 c 0xe0
EndSplineSet
EndChar

StartChar: dotlessi
Encoding: 305 305 146
Width: 205
VWidth: 0
Flags: W
VStem: 49 87<43.444 337.495> 58 96<2.68707 240.314>
LayerCount: 2
Fore
SplineSet
134 433 m 0x80
 158 433 173 417 173 398 c 0
 173 348 136 319 136 242 c 0x80
 136 207 154 109 154 44 c 0
 154 19 142 -4 104 -4 c 0
 77 -4 58 17 58 38 c 0x40
 58 77 72 101 70 140 c 24
 67 200 49 234 49 292 c 0
 49 352 82 433 134 433 c 0x80
EndSplineSet
EndChar

StartChar: kgreenlandic
Encoding: 312 312 147
Width: 414
VWidth: 0
Flags: W
HStem: 0 20G<69 102.5 223 260.5>
VStem: 32 102<8.86856 159.223> 194 94<7.30173 169.75>
LayerCount: 2
Fore
SplineSet
28 239 m 0
 28 316 48.5 427.5 108.5 427.5 c 0
 132.5 427.5 154.5 415.5 154.5 398.5 c 0
 154.5 382.5 132 346 124 303 c 1
 175 354 235 421 306 421 c 0
 330 421 352 408 352 391 c 0
 352 352 250 354 189 262 c 1
 263 205 288 135 288 76 c 0
 288 43 284 -1 237 -1 c 0
 209 -1 194 20 194 40 c 0
 194 121 200 174 148 207 c 1
 134 196 123 180 115 161 c 9
 122.41 122.78 134 104 134 63 c 0
 134 34 124 0 81 0 c 0
 57 0 32 7 32 28 c 0
 32 66 41.7275 87.626 41 126 c 24
 40.1592 170.353 28 194 28 239 c 0
EndSplineSet
EndChar

StartChar: longs
Encoding: 383 383 148
Width: 218
VWidth: 0
Flags: W
HStem: 579.118 61<156.778 237.449>
VStem: 44 90<142.734 554.989> 53 101<8.57217 325.244>
LayerCount: 2
Fore
SplineSet
200.75 579.118 m 4xc0
 259.75 579.118 224.75 519.118 271.75 519.118 c 4
 302.75 519.118 319.75 532.118 319.75 557.118 c 4
 319.75 614.118 268.75 640.118 200.75 640.118 c 4
 70.9551 640.118 44 525.518 44 433 c 4xc0
 44 348 62.8835 296.718 65 209 c 28
 66.4062 150.719 53 118 53 60 c 4
 53 29 72 -2 101 -2 c 4
 141 -2 154 33 154 69 c 4xa0
 154 165 134 307 134 359 c 4
 134 446.083 116.652 579.118 200.75 579.118 c 4xc0
EndSplineSet
EndChar

StartChar: germandbls
Encoding: 223 223 149
Width: 506
VWidth: 0
Flags: W
HStem: 0 80<292.532 383.037> 353 73<324.362 394.463> 579.118 61<156.807 200.75 322 377.909>
VStem: 44 90<142.734 554.989> 53 101<8.57217 325.244> 206 97<82.4899 123.242> 395 84<94.2027 165.791> 411 61<442.6 548.357>
LayerCount: 2
Back
SplineSet
218 323 m 24
 215 382 289 426 376 426 c 0
 424 426 481 410 481 374 c 0
 481 341 446 312 411 312 c 0
 394 312 380 324 380 335 c 0
 380 342 384 346 386 353 c 17
 356 353 317 336 317 312 c 0
 317 243 479 216 479 103 c 0
 479 45 397 0 323 0 c 0
 246 0 206 17 206 75 c 0
 206 105 223 134 263 134 c 0
 283 134 303 120 303 109 c 0
 303 98 296 93 292 82 c 25
 299 81 303 80 311 80 c 0
 335 80 395 86 395 128 c 0
 395 190 223 234 218 323 c 24
200.75 579.118 m 4
 259.75 579.118 224.75 519.118 271.75 519.118 c 4
 302.75 519.118 319.75 532.118 319.75 557.118 c 4
 319.75 614.118 268.75 640.118 200.75 640.118 c 4
 70.9551 640.118 44 525.518 44 433 c 4
 44 348 62.8835 296.718 65 209 c 28
 66.4062 150.719 53 118 53 60 c 4xd0
 53 29 72 -2 101 -2 c 4
 141 -2 154 33 154 69 c 4
 154 165 134 307 134 359 c 4xe0
 134 446.083 116.652 579.118 200.75 579.118 c 4
EndSplineSet
Fore
SplineSet
338 426 m 0xf5
 293 425.981 206.413 383.577 218 323 c 24
 237.296 222.122 395 190 395 128 c 0
 395 86 335 80 311 80 c 0
 303 80 299.41 81.2197 292 82 c 25
 296.29 92.5303 303 98 303 109 c 0
 303 120 283 134 263 134 c 0
 223 134 206 105 206 75 c 0
 206 17 246 0 323 0 c 0
 397 0 479 45 479 103 c 0xe6
 479 216 317 243 317 312 c 0
 317 336 343 353 361 353 c 1
 431 353 472 434 472 499 c 0
 472 553.955 425 640.018 322 640.018 c 2
 322 640.018 203.189 640.118 200.75 640.118 c 0
 70.9551 640.118 44 525.518 44 433 c 0xf5
 44 348 62.8835 296.718 65 209 c 24
 66.4062 150.719 53 118 53 60 c 0
 53 29 72 -2 101 -2 c 0
 141 -2 154 33 154 69 c 0xec
 154 165 134 307 134 359 c 0
 134 446.083 116.652 579.118 200.75 579.118 c 0
 203.733 579.118 323 578.674 323 578.674 c 2
 370.998 578.499 411 540 411 497 c 0
 411 433 359.658 426.009 338 426 c 0xf5
EndSplineSet
EndChar

StartChar: ampersand
Encoding: 38 38 150
Width: 539
VWidth: 0
Flags: W
HStem: -5 77<192.697 295.583> 339 84<150.441 314.849 417.019 475.45> 531 104<171.576 299.622>
VStem: 42 273<537.303 612.697> 53 97<146.378 336.029 423.335 509.049> 325 87<102.434 336.67 425.981 477.482>
LayerCount: 2
Fore
SplineSet
412 187 m 0xec
 412 95.6865 356.964 -7.79688 249 -5 c 0
 56 0 67.0811 192.006 54 325 c 1
 32 332 19.1928 342.138 19 362 c 0
 18.7188 390.953 39.7402 402.26 53 428 c 1xec
 55 477 62 480 72 529 c 1
 54 537 42 555 42 568 c 0xf4
 42 618 90 635 150 635 c 0xec
 271 635 315 636 315 565 c 0xf4
 315 539 292 531 266 531 c 0
 242 531 229 537 205 537 c 0
 189 537 177 528.981 173 513.981 c 0
 163 479.981 150 488 150 440 c 0
 150 420 152 423 168 423 c 0
 217.269 423 311 416 330.742 435.981 c 1
 339.465 477.981 340.008 525 385 525 c 0
 410 525 425 502 425 478 c 0
 425 467.43 416.742 425.981 416.742 425.981 c 1
 465.742 425.981 515.242 409.682 515.242 365.682 c 0
 515.242 344.682 501.242 328.682 476.242 328.682 c 0
 459.242 328.682 449.242 336.682 432.242 336.682 c 0
 411.555 336.682 415.482 321.006 411.242 308.17 c 0
 411.242 307.016 411.242 305.853 411.242 304.682 c 0
 411.242 266.222 412 232 412 187 c 0xec
315.799 348.183 m 1
 296.853 342.062 192.641 339 170 339 c 0
 145 339 142.486 319.907 145 303 c 0
 156 229 140 72 245 72 c 0
 292 72 325 116 325 170 c 1
 322.627 232.48 328.115 291.427 323.303 344.052 c 1
 320.577 345.322 318.072 346.691 315.799 348.183 c 1
EndSplineSet
EndChar

StartChar: quoteleft
Encoding: 8216 8216 151
Width: 222
VWidth: 0
Flags: W
HStem: 536 223
VStem: 31 114<553.365 639.786>
LayerCount: 2
Fore
SplineSet
145 593 m 0
 145 566 120 536 96 536 c 0
 88 536 74 534 68 546 c 1
 53 550 32 565 31 597 c 0
 29 615 55 707 115 759 c 9
 133 747 l 17
 118 718 114 688 109 649 c 1
 134 639 145 621 145 593 c 0
EndSplineSet
EndChar

StartChar: quoteright
Encoding: 8217 8217 152
Width: 222
VWidth: 0
Flags: W
HStem: 536 223
VStem: 25.8496 114.15<655.035 741.377>
LayerCount: 2
Fore
SplineSet
25.8496 701.761 m 0
 25.8496 728.365 51 759 75 759 c 0
 83 759 97 760.5 103.45 748.95 c 1
 118 744.5 139.443 730.252 140 698 c 0
 142.036 679.693 116.075 587.827 56 536 c 9
 38 548 l 17
 52.959 576.878 56.7285 606.9 62 646 c 1
 37 656.5 25.8496 674 25.8496 701.761 c 0
EndSplineSet
EndChar

StartChar: uni2010
Encoding: 8208 8208 153
Width: 472
VWidth: 0
Flags: W
HStem: 312 71<128.804 416.592> 330 68<64.3484 317.964>
LayerCount: 2
Fore
SplineSet
40 320 m 17x40
 40 374 71 398 171 398 c 4x40
 224 398 274 383 325 383 c 0
 357 383 397 376 431 395 c 1
 432 392 432 389 432 386 c 0
 432 341 425 312 321 312 c 4x80
 256 312 205.401 327.882 131 330 c 24
 95.3105 331.016 75.4902 323.9 40 320 c 17x40
EndSplineSet
EndChar

StartChar: uni2011
Encoding: 8209 8209 154
Width: 472
VWidth: 0
Flags: W
HStem: 312 71<128.804 416.592> 330 68<64.3484 317.964>
LayerCount: 2
Fore
SplineSet
40 320 m 17x40
 40 374 71 398 171 398 c 4x40
 224 398 274 383 325 383 c 0
 357 383 397 376 431 395 c 1
 432 392 432 389 432 386 c 0
 432 341 425 312 321 312 c 4x80
 256 312 205.401 327.882 131 330 c 24
 95.3105 331.016 75.4902 323.9 40 320 c 17x40
EndSplineSet
EndChar

StartChar: figuredash
Encoding: 8210 8210 155
Width: 521
VWidth: 0
Flags: W
HStem: 330.2 67<39.5 478.5>
LayerCount: 2
Fore
SplineSet
39.5 397.2 m 1
 478.5 397.2 l 5
 478.5 330.2 l 5
 39.5 330.2 l 1
 39.5 397.2 l 1
EndSplineSet
EndChar

StartChar: endash
Encoding: 8211 8211 156
Width: 472
VWidth: 0
Flags: W
HStem: 312 71<128.804 416.592> 330 68<64.3484 317.964>
LayerCount: 2
Fore
SplineSet
40 320 m 17x40
 40 374 71 398 171 398 c 4x40
 224 398 274 383 325 383 c 0
 357 383 397 376 431 395 c 1
 432 392 432 389 432 386 c 0
 432 341 425 312 321 312 c 4x80
 256 312 205.401 327.882 131 330 c 24
 95.3105 331.016 75.4902 323.9 40 320 c 17x40
EndSplineSet
EndChar

StartChar: emdash
Encoding: 8212 8212 157
Width: 632
VWidth: 0
Flags: W
HStem: 312 71<271.344 598.092> 330 68<64.3484 365.224>
LayerCount: 2
Fore
SplineSet
40 320 m 17x40
 40 374 71 398 171 398 c 0x40
 224 398 455.5 383 506.5 383 c 0
 538.5 383 578.5 376 612.5 395 c 1
 613.5 392 613.5 389 613.5 386 c 0
 613.5 341 606.5 312 502.5 312 c 0x80
 437.5 312 276.033 327.491 131 330 c 24
 95.3018 330.617 75.4902 323.9 40 320 c 17x40
EndSplineSet
EndChar

StartChar: uni2023
Encoding: 8227 8227 158
Width: 228
VWidth: 0
Flags: W
LayerCount: 2
Fore
SplineSet
49 368 m 29
 49 48 l 29
 185 208 l 29
 49 368 l 29
EndSplineSet
EndChar

StartChar: bullet
Encoding: 8226 8226 164
Width: 393
VWidth: 0
Flags: W
HStem: 184 182<120.152 210.522>
VStem: 86 183<210.815 327.089>
LayerCount: 2
Fore
SplineSet
269 268 m 4
 269 229 242 184 185 184 c 4
 124 184 86 210 86 274 c 4
 86 317 127 366 165 366 c 4
 178 366 201 368 211 350 c 5
 234 343 269 320 269 268 c 4
EndSplineSet
EndChar

StartChar: ae
Encoding: 230 230 191
Width: 628
VWidth: 0
Flags: W
HStem: -1 71<388.888 498.408> 0 60<148.839 251.604> 220.2 63<367.634 509.419> 233 55<169.446 250.307> 356 69.981<126.744 245.73 400.79 488.002>
VStem: 33 95<79.4626 193.298> 262 92.207<108.818 211.968> 498.5 81<76.3045 111.361>
LayerCount: 2
Fore
SplineSet
511.795 283.2 m 1x2f
 515.5 302.2 491.261 355.785 441.5 355.785 c 0
 411.022 355.785 375.5 314.2 367.634 283.2 c 1
 367.634 283.2 461.795 278.2 511.795 283.2 c 1x2f
251 213 m 1
 236 218 235 232 215 233 c 0
 167 234 128 173 128 142 c 0
 128 103 142 60 205 60 c 0x5f
 235 60 245 71 253 84 c 1
 257 106 263 113 262 140 c 0
 261 168 256 191 251 213 c 1
251 320 m 0
 251 339 230 356 183 356 c 0
 124 356 131 317 84 317 c 0
 53 317 36 331 36 348 c 0
 36 386 117 425.981 185 425.981 c 0
 244.256 425.981 304.727 410.795 328.497 380.879 c 1
 360.927 409.828 404.936 427.777 461 427 c 0
 534.5 425.981 598.299 344.2 598.299 272.2 c 0
 598.299 252.652 587.482 232.964 558 222.2 c 1
 525 213.154 460.259 220.2 354.207 220.2 c 1
 351.115 159.22 366.5 70 441.5 70 c 0
 462.5 70 498.5 79 498.5 90 c 0
 498.5 105 470.5 108 470.5 123 c 0
 470.5 136 493.5 144 510.5 144 c 0
 558.5 145 579.5 116 579.5 84 c 0
 579.5 34 510 -1 450 -1 c 0
 408.285 -1 374.338 9.32515 347.272 26.4401 c 1
 341.021 10.9615 326.239 -1 298 -1 c 0xaf
 288 -1 279 2 272 6 c 1
 258 2 242 0 224 0 c 0
 86 0 33 76 33 141 c 0
 33 232 100 294 241 288 c 1
 254 315 251 297 251 320 c 0
EndSplineSet
EndChar

StartChar: ccedilla
Encoding: 231 231 192
Width: 342
VWidth: 0
Flags: W
HStem: -188.7 32<174.993 237.749> -67.7002 31<197.331 242.667> -1 71<203.152 237.147> 313 114<232.203 288.204>
VStem: 29 95<105.576 291.45> 238 81<72.1696 111.361> 247.035 33<-148.794 -69.6629>
LayerCount: 2
Fore
SplineSet
29 210 m 0xfa
 29 319 94 427 231 427 c 0
 269 427 305 403 305 366 c 0
 305 340 292 313 266 313 c 0
 247 313 235 324 230 341 c 1
 223 360 201 359 193 348 c 1
 156 318 124 271 124 212 c 0
 124 154 138 70 201 70 c 0
 222 70 238 79 238 90 c 0
 238 105 210 108 210 123 c 0
 210 136 233 144 250 144 c 0
 298 145 319 116 319 84 c 0xfc
 319 34 280 -1 220 -1 c 0
 214.656 -1 209.44 -0.83055 204.349 -0.499084 c 1
 197.035 -40.7002 l 1
 204.445 -39.1406 209.035 -36.7002 216.035 -36.7002 c 0
 252.035 -36.7002 280.035 -62.7002 280.035 -102.7 c 0
 280.035 -144.7 254.035 -188.7 213.035 -188.7 c 0
 191.035 -188.7 174.035 -182.7 162.035 -166.7 c 1
 182.035 -144.7 l 1
 194.035 -154.7 197.035 -156.7 208.035 -156.7 c 0
 237.035 -156.7 247.035 -130.7 247.035 -104.7 c 0
 247.035 -87.7002 240.035 -67.7002 222.035 -67.7002 c 0
 211.035 -67.7002 205.035 -70.7002 196.035 -80.7002 c 1
 160.035 -76.7002 l 1
 175.3 3.37362 l 1
 70.4021 25.05 29 123.384 29 210 c 0xfa
EndSplineSet
EndChar

StartChar: f_i
Encoding: 65536 -1 203
Width: 375
VWidth: 0
Flags: W
HStem: -4 21G<86.5 121 264.5 297> 579.118 61<160.583 263.269>
VStem: 50.4708 88.3552<90.2938 285.97 424.565 557.278> 53 101<8.57217 282.904> 223 87<43.444 329.242> 232 96<2.68707 240.314>
LayerCount: 2
Fore
SplineSet
221.188 579.118 m 0xe0
 133.187 579.118 131.57 503.034 132.628 428.279 c 1
 169.225 421.932 226.092 420.495 254.993 399.766 c 1
 268.905 419.646 286.886 433 308 433 c 0
 332 433 347 417 347 398 c 0
 347 348 310 319 310 242 c 0xe8
 310 207 328 109 328 44 c 0
 328 19 316 -4 278 -4 c 0
 251 -4 232 17 232 38 c 0xc4
 232 77 246 101 244 140 c 0
 241 200 223 234 223 292 c 0
 223 303.766 224.269 316.339 226.701 328.95 c 1
 207.634 330.522 176.206 336.682 161.376 336.682 c 0
 135.493 336.682 140.377 306.874 140.126 285.118 c 1
 140.126 285.118 139.674 285.414 138.826 285.97 c 1xe8
 144.744 220.902 154 134.307 154 69 c 0
 154 33 141 -2 101 -2 c 0
 72 -2 53 29 53 60 c 0xd0
 53 118 66.4062 150.719 65 209 c 0
 63.7066 262.605 56.1515 302.603 50.4708 345.005 c 1
 37.068 351.768 29.5232 361.274 29.376 376.482 c 0
 29.2483 389.707 36.2085 403.021 44.2874 414.917 c 1
 41.0264 517.233 61.1871 640.118 221.188 640.118 c 0
 289.188 640.118 356.25 618.588 356.25 561.588 c 0
 356.25 536.588 339.25 523.588 308.25 523.588 c 0
 239.187 523.588 295.187 579.118 221.188 579.118 c 0xe0
EndSplineSet
LCarets2: 1 187 
Ligature2: "Standard Ligatures in Latin-1" f i
EndChar

StartChar: zero.ss01
Encoding: 65616 -1 218
Width: 174
VWidth: 0
Flags: W
HStem: -5 31<66.185 104.067> 196 27<66.185 105.073>
VStem: 21 33<34.0089 188.909> 118 31<37.8883 186.587>
LayerCount: 2
Back
Fore
SplineSet
85 196 m 0
 59 196 54 151 54 118 c 0
 54 80 59 26 85 26 c 0
 111 26 118 80 118 118 c 8
 118 151 111 196 85 196 c 0
21 118 m 24
 21 166 31 223 85 223 c 0
 139 223 149 166 149 118 c 24
 149 64 139 -5 85 -5 c 0
 31 -5 21 64 21 118 c 24
EndSplineSet
EndChar

StartChar: one.ss01
Encoding: 65617 -1 219
Width: 89
VWidth: 0
Flags: W
HStem: 0 214<40.2021 70>
VStem: 22 48<174.237 209.5> 40 30<0 182>
LayerCount: 2
Back
Fore
SplineSet
22 196 m 1xc0
 34 202 43 208 49 214 c 9
 70 214 l 25
 70 0 l 9
 40 0 l 25
 40 182 l 9xa0
 26 174 l 17
 22 179 21 187 22 196 c 1xc0
EndSplineSet
EndChar

StartChar: two.ss01
Encoding: 65618 -1 220
Width: 175
VWidth: 0
Flags: W
HStem: -2 32.5<67 153.5> 159 61.5<51.2659 68.5>
VStem: 37 31.5<159 184.213> 126.5 33<135.397 187.019>
LayerCount: 2
Back
Fore
SplineSet
68.5 159 m 9
 37 159 l 25
 37 162.315 37 164.185 37 167.5 c 0
 37 193 67.8914 220.5 100 220.5 c 0
 132 220.5 159.5 195.27 159.5 163 c 0
 159.5 126.202 133.5 113.5 105.5 92 c 0
 87.0593 77.8402 72.1404 53.9401 67 30.5 c 9
 153.5 30.5 l 25
 153.5 -2 l 25
 32.5 -2 l 29
 32.5 3.84961 32.5 7.15039 32.5 13 c 4
 32.5 54 60.4043 97.6631 89.5 119 c 0
 119.5 141 126.5 147.216 126.5 162 c 0
 126.5 177.306 113.785 190.291 98.5 189.5 c 24
 81.8379 188.638 68.5 175 68.5 159 c 9
EndSplineSet
EndChar

StartChar: three.ss01
Encoding: 65619 -1 221
Width: 186
VWidth: 0
Flags: W
HStem: -4 34.5<71.6913 134.579> 102.5 33.5<103 128.464> 188.5 34<67.8197 125.635>
VStem: 129.5 39<136.589 185.502> 140.5 39<35.8801 99.3449>
LayerCount: 2
Back
Fore
SplineSet
63.5 166 m 9xf0
 29 177 l 17
 39 200 67 222.5 99 222.5 c 4
 139.5 222.5 168.5 194 168.5 158.5 c 4xf0
 168.5 145.419 167 137 161.5 125.5 c 1
 171.5 109 179.5 95 179.5 69.5 c 4
 179.5 22.5 147 -4 101.5 -4 c 4
 64.4502 -4 39.5 16.5 25.5 53 c 9
 64.5 58.5 l 17
 74 42 83 30.5 103 30.5 c 0
 123.409 30.5 140.5 46.5 140.5 67 c 0xe8
 140.5 87.2812 131 102.5 102.5 102.5 c 9
 103 136 l 17
 122 136 129.5 146.5 129.5 158 c 0
 129.5 174.822 114.5 188.5 99 188.5 c 0
 82.6084 188.5 72 178.5 63.5 166 c 9xf0
EndSplineSet
EndChar

StartChar: four.ss01
Encoding: 65620 -1 222
Width: 174
VWidth: 0
Flags: W
HStem: 0 21G<103 134> 52 25<50 103 134 149>
VStem: 103 31<0 52 77 162>
LayerCount: 2
Back
Fore
SplineSet
103 77 m 29
 103 162 l 29
 50 77 l 29
 103 77 l 29
103 52 m 29
 14 52 l 29
 14 80 l 29
 100 214 l 29
 134 214 l 29
 134 77 l 29
 149 77 l 29
 149 52 l 29
 134 52 l 29
 134 0 l 29
 103 0 l 29
 103 52 l 29
EndSplineSet
EndChar

StartChar: five.ss01
Encoding: 65621 -1 223
Width: 154
VWidth: 0
Flags: W
HStem: -10 32<36.9576 99.714> 111 31<59.296 104.632> 184 32<59 130>
VStem: 27 32<138 186> 109 33<29.9057 109.037>
LayerCount: 2
Back
Fore
SplineSet
24 12 m 9
 44 34 l 17
 56 24 59 22 70 22 c 0
 99 22 109 48 109 74 c 0
 109 91 102 111 84 111 c 0
 73 111 67 108 58 98 c 9
 27 102 l 25
 28 216 l 25
 130 216 l 25
 130 184 l 25
 59 186 l 25
 59 138 l 25
 66.4102 139.56 71 142 78 142 c 0
 114 142 142 116 142 76 c 0
 142 34 116 -10 75 -10 c 0
 53 -10 36 -4 24 12 c 9
EndSplineSet
EndChar

StartChar: six.ss01
Encoding: 65622 -1 224
Width: 190
VWidth: 0
Flags: W
HStem: -3 32.5<61.0281 129.21> 95 35<66.3286 130.234> 198 20G<67.25 107.962>
VStem: 17 38.5<34.3568 90.0728> 134 38<34.6523 90.1328>
LayerCount: 2
Back
Fore
SplineSet
96.5 29.5 m 0
 115.727 29.5 134.146 42.2744 134 61.5 c 24
 133.85 81.2559 121 95 96 95 c 0
 72.5 95 55.3447 82.374 55.5 62 c 0
 55.6553 41.5967 73.5 29.5 96.5 29.5 c 0
89.5 218 m 9
 113.5 192 l 17
 94.0127 172.219 77.7988 150.748 66 127 c 9
 75.5547 128.17 80.874 130 90.5 130 c 0
 130 130 172 104.5 172 61 c 0
 172 22.25 134.749 -3 96 -3 c 0
 48 -3 17 23.5 17 66.5 c 0
 17 132.002 45 175.5 89.5 218 c 9
EndSplineSet
EndChar

StartChar: seven.ss01
Encoding: 65623 -1 225
Width: 166
VWidth: 0
Flags: W
HStem: 0 21G<52 84.6172> 187 26.721<18 109.5>
VStem: 52 32.5<0 99.4129>
LayerCount: 2
Back
Fore
SplineSet
109.5 187 m 9
 18 187 l 25
 16.5 213.721 l 25
 146 213.446 l 25
 146 183.5 l 21
 108.5 141.5 84.7345 70.4175 84.5 0 c 13
 52 0 l 17
 52.1075 69.761 68.4606 133.192 109.5 187 c 9
EndSplineSet
EndChar

StartChar: eight.ss01
Encoding: 65624 -1 226
Width: 160
VWidth: 0
Flags: W
HStem: -8 30<43.7298 93.5102> 98 33<47.6895 95.1124> 186 34<48.4057 94.3317>
VStem: 6 33<25.3216 94.2391> 12 34<132.352 184.194> 100 30<27.1125 94.433 135.229 181.723>
LayerCount: 2
Back
Fore
SplineSet
71 98 m 0xf4
 47.5 98 39 79.375 39 60 c 24
 39 40.625 45.5 22 71 22 c 0
 88.7871 22 100 41.3574 100 60 c 24
 100 78.6426 93.5 98 71 98 c 0xf4
46 156 m 24xec
 46 142.211 57.2109 131 71 131 c 24
 85.0674 131 97 142 97 156 c 0
 97 175 86 186 71 186 c 0
 55 186 46 171.23 46 156 c 24xec
28 115 m 1
 20 127 12 142 12 159 c 0xec
 12 192 37.1738 220.283 70 220 c 24
 103.109 219.715 128 191 128 158 c 0
 128 143 124 132 112 118 c 1
 124 103 130 92 130 63 c 0
 130 26 109 -8 67 -8 c 0
 31 -8 6 24 6 60 c 0xf4
 6 85 16 101 28 115 c 1
EndSplineSet
EndChar

StartChar: nine.ss01
Encoding: 65625 -1 227
Width: 190
VWidth: 0
Flags: W
HStem: -3 21G<81.0385 121.75> 85 35<58.7658 122.671> 185.5 32.5<59.7904 127.972>
VStem: 17 38<124.867 180.348> 133.5 38.5<124.927 180.643>
LayerCount: 2
Back
Fore
SplineSet
92.5 185.5 m 4
 73.2734 185.5 54.8535 172.726 55 153.5 c 28
 55.1504 133.744 68 120 93 120 c 4
 116.5 120 133.655 132.626 133.5 153 c 4
 133.345 173.403 115.5 185.5 92.5 185.5 c 4
99.5 -3 m 13
 75.5 23 l 21
 94.9873 42.7812 111.201 64.252 123 88 c 13
 113.445 86.8301 108.126 85 98.5 85 c 4
 59 85 17 110.5 17 154 c 4
 17 192.75 54.251 218 93 218 c 4
 141 218 172 191.5 172 148.5 c 4
 172 82.998 144 39.5 99.5 -3 c 13
EndSplineSet
EndChar

StartChar: uni00B9
Encoding: 185 185 228
Width: 89
VWidth: 0
Flags: W
HStem: 426 214<40.2021 70>
VStem: 22 48<600.237 635.5> 40 30<426 608>
LayerCount: 2
Fore
SplineSet
22 622 m 1xc0
 34 628 43 634 49 640 c 9
 70 640 l 25
 70 426 l 9
 40 426 l 25
 40 608 l 9xa0
 26 600 l 17
 22 605 21 613 22 622 c 1xc0
EndSplineSet
EndChar

StartChar: guillemotright
Encoding: 187 187 229
Width: 318
VWidth: 0
Flags: W
VStem: 29.7685 240.462
LayerCount: 2
Fore
SplineSet
147.934 417.231 m 4
 155.141 421.08 164.383 418.273 168.231 411.066 c 4
 270.231 220.066 l 4
 272.615 215.602 272.397 209.99 270.231 205.934 c 4
 168.231 14.934 l 4
 164.383 7.72699 155.141 4.91977 147.934 8.76854 c 4
 140.727 12.6173 137.92 21.859 141.769 29.066 c 4
 239.995 213 l 5
 141.769 396.934 l 4
 137.92 404.141 140.727 413.383 147.934 417.231 c 4
35.934 417.231 m 4
 43.1409 421.08 52.3827 418.273 56.2315 411.066 c 4
 158.231 220.066 l 4
 160.615 215.602 160.397 209.99 158.231 205.934 c 4
 56.2315 14.934 l 4
 52.3827 7.72699 43.141 4.91977 35.934 8.76854 c 4
 28.727 12.6173 25.9198 21.859 29.7685 29.066 c 4
 127.995 213 l 5
 29.7685 396.934 l 4
 25.9198 404.141 28.727 413.383 35.934 417.231 c 4
EndSplineSet
EndChar

StartChar: uni00B2
Encoding: 178 178 230
Width: 175
VWidth: 0
Flags: W
HStem: 424 32<67 154> 585 61<51.2995 68>
VStem: 37 31<585 610.79> 126 34<560.091 613.911>
LayerCount: 2
Fore
SplineSet
68 585 m 9
 37 585 l 25
 37 588 37 591 37 594 c 0
 37 620 68 646 100 646 c 0
 132 646 160 621 160 589 c 0
 160 552 134 540 106 518 c 0
 88 504 72 479 67 456 c 9
 154 456 l 25
 154 424 l 29
 32 424 l 25
 32 430 32 433 32 439 c 0
 32 480 61 524 90 545 c 0
 120 567 126 573 126 588 c 0
 126 603 113 617 98 616 c 24
 81 615 68 601 68 585 c 9
EndSplineSet
EndChar

StartChar: uni00B3
Encoding: 179 179 231
Width: 186
VWidth: 0
Flags: W
HStem: 422 34<71.8468 133.58> 528 34<103 129.084> 614 34<67.982 126.704>
VStem: 130 38<562.876 611.018> 140 40<460.899 525.134>
LayerCount: 2
Fore
SplineSet
64 592 m 9xf0
 29 603 l 17
 39 626 67 648 99 648 c 4
 139 648 168 620 168 584 c 4xf0
 168 571 168 564 162 552 c 1
 172 536 180 522 180 496 c 4
 180 449 148 422 102 422 c 4
 65 422 40 443 26 479 c 9
 64 484 l 17
 74 468 83 456 103 456 c 0
 123 456 140 473 140 493 c 0xe8
 140 513 130 528 102 528 c 9
 103 562 l 17
 122 562 130 572 130 584 c 0
 130 601 115 614 99 614 c 0
 83 614 72 604 64 592 c 9xf0
EndSplineSet
EndChar

StartChar: onequarter
Encoding: 188 188 232
Width: 267
VWidth: 0
Flags: W
HStem: 0 21<193 224> 52 25<140 193 224 239>
VStem: 18.3151 161.37 22 48<473.747 509.01> 40 30<299.51 481.51> 193 31<0 52 77 162>
LayerCount: 2
Fore
SplineSet
22 495.51 m 1xd4
 34 501.51 43 507.51 49 513.51 c 9
 70 513.51 l 25
 70 299.51 l 9
 40 299.51 l 25
 40 481.51 l 9xcc
 26 473.51 l 17
 22 478.51 21 486.51 22 495.51 c 1xd4
EndSplineSet
Refer: 222 -1 N 1 0 0 1 90 0 2
Refer: 235 8260 S 1 0 0 1 16 0 2
EndChar

StartChar: onehalf
Encoding: 189 189 233
Width: 289
VWidth: 0
Flags: W
HStem: 1 32<150.229 237.229> 162 61<134.528 151.229>
VStem: 18.3151 161.37 22 48<463.747 499.01> 40 30<289.51 471.51> 120.229 31<162 187.79> 209.229 34<137.091 190.911>
LayerCount: 2
Fore
SplineSet
151.229 162 m 9xc6
 120.229 162 l 25
 120.229 165 120.229 168 120.229 171 c 0
 120.229 197 151.229 223 183.229 223 c 0
 215.229 223 243.229 198 243.229 166 c 0
 243.229 129 217.229 117 189.229 95 c 0
 171.229 81 155.229 56 150.229 33 c 9
 237.229 33 l 25
 237.229 1 l 25
 115.229 1 l 25
 115.229 7 115.229 10 115.229 16 c 0
 115.229 57 144.229 101 173.229 122 c 0
 203.229 144 209.229 150 209.229 165 c 0
 209.229 180 196.229 194 181.229 193 c 24
 164.229 192 151.229 178 151.229 162 c 9xc6
22 485.51 m 5xd2
 34 491.51 43 497.51 49 503.51 c 13
 70 503.51 l 29
 70 289.51 l 13
 40 289.51 l 29
 40 471.51 l 13xca
 26 463.51 l 21
 22 468.51 21 476.51 22 485.51 c 5xd2
EndSplineSet
Refer: 235 8260 N 1 0 0 1 16 0 2
EndChar

StartChar: threequarters
Encoding: 190 190 234
Width: 346
VWidth: 0
Flags: W
HStem: 0 21<267 298> 52 25<214 267 298 313> 291.51 34<63.3507 125.084> 397.51 34<94.5039 120.588> 483.51 34<59.4859 118.208>
VStem: 102.315 161.37 121.504 38<432.386 480.528> 131.504 40<330.409 394.22> 267 31<0 52 77 162>
LayerCount: 2
Fore
SplineSet
55.5039 461.51 m 9xfa80
 20.5039 472.51 l 17
 30.5039 495.51 58.5039 517.51 90.5039 517.51 c 0
 130.504 517.51 159.504 489.51 159.504 453.51 c 0xfa80
 159.504 440.51 159.504 433.51 153.504 421.51 c 1
 163.504 405.51 171.504 391.51 171.504 365.51 c 0
 171.504 318.51 139.504 291.51 93.5039 291.51 c 0
 56.5039 291.51 31.5039 312.51 17.5039 348.51 c 9
 55.5039 353.51 l 17
 65.5039 337.51 74.5039 325.51 94.5039 325.51 c 0
 114.504 325.51 131.504 342.51 131.504 362.51 c 0xf980
 131.504 382.51 121.504 397.51 93.5039 397.51 c 9
 94.5039 431.51 l 17
 113.504 431.51 121.504 441.51 121.504 453.51 c 0
 121.504 470.51 106.504 483.51 90.5039 483.51 c 0
 74.5039 483.51 63.5039 473.51 55.5039 461.51 c 9xfa80
EndSplineSet
Refer: 222 -1 N 1 0 0 1 164 0 2
Refer: 235 8260 N 1 0 0 1 100 0 2
EndChar

StartChar: fraction
Encoding: 8260 8260 235
Width: 208
VWidth: 0
Flags: W
VStem: 2.31506 161.37
LayerCount: 2
Fore
SplineSet
13.9418 -14.6849 m 0
 5.9431 -13.0192 0.649298 -4.94049 2.31506 3.05821 c 0
 134.315 494.116 l 4
 135.98 502.115 144.06 507.409 152.059 505.743 c 4
 160.057 504.077 165.351 495.999 163.685 488 c 4
 31.6849 -3.05821 l 0
 30.0192 -11.0569 21.9405 -16.3507 13.9418 -14.6849 c 0
EndSplineSet
EndChar

StartChar: degree
Encoding: 176 176 236
Width: 164
VWidth: 0
Flags: W
HStem: -8.5 113.5<39.5522 123.596>
VStem: 25.8496 114.15<0.886612 87.377>
LayerCount: 2
Fore
SplineSet
117 703 m 0
 117 722 104 730 95 733 c 1
 91 740 83 739 78 739 c 0
 64 739 49 721 49 705 c 0
 49 681 63 671 86 671 c 0
 107 671 117 688 117 703 c 0
140 701 m 0
 140 677 124 648 88 648 c 0
 50 648 26 665 26 705 c 0
 26 732 51 762 75 762 c 0
 83 762 97 764 103 752 c 1
 118 748 140 733 140 701 c 0
EndSplineSet
EndChar

StartChar: guillemotleft
Encoding: 171 171 238
Width: 318
VWidth: 0
Flags: W
VStem: 35.2529 240.463
LayerCount: 2
Fore
SplineSet
157.551 417.615 m 4
 164.758 413.767 167.565 404.524 163.716 397.317 c 4
 65.4893 213.384 l 5
 163.716 29.4502 l 4
 167.565 22.2432 164.758 13.001 157.551 9.15234 c 4
 150.344 5.30371 141.103 8.11035 137.253 15.3174 c 4
 35.2529 206.317 l 4
 33.0879 210.374 32.8691 215.986 35.2529 220.45 c 4
 137.253 411.45 l 4
 141.103 418.657 150.344 421.464 157.551 417.615 c 4
269.551 417.615 m 4
 276.758 413.767 279.565 404.524 275.716 397.317 c 4
 177.489 213.384 l 5
 275.716 29.4502 l 4
 279.565 22.2432 276.758 13.001 269.551 9.15234 c 4
 262.344 5.30371 253.103 8.11035 249.253 15.3174 c 4
 147.253 206.317 l 4
 145.088 210.374 144.869 215.986 147.253 220.45 c 4
 249.253 411.45 l 4
 253.102 418.657 262.344 421.464 269.551 417.615 c 4
EndSplineSet
EndChar

StartChar: cedilla
Encoding: 184 184 239
Width: 356
VWidth: 0
Flags: W
HStem: -188.7 32<187.993 250.749> -67.7002 31<210.331 255.667>
VStem: 260.035 33<-148.794 -69.6629>
LayerCount: 2
Fore
SplineSet
175.035 -166.7 m 13
 195.035 -144.7 l 21
 207.035 -154.7 210.035 -156.7 221.035 -156.7 c 4
 250.035 -156.7 260.035 -130.7 260.035 -104.7 c 4
 260.035 -87.7002 253.035 -67.7002 235.035 -67.7002 c 4
 224.035 -67.7002 218.035 -70.7002 209.035 -80.7002 c 13
 173.035 -76.7002 l 29
 194.768 37.2998 l 21
 218.768 7.2998 l 13
 210.035 -40.7002 l 29
 217.445 -39.1406 222.035 -36.7002 229.035 -36.7002 c 4
 265.035 -36.7002 293.035 -62.7002 293.035 -102.7 c 4
 293.035 -144.7 267.035 -188.7 226.035 -188.7 c 4
 204.035 -188.7 187.035 -182.7 175.035 -166.7 c 13
EndSplineSet
EndChar

StartChar: slash
Encoding: 47 47 240
Width: 346
VWidth: 0
Flags: W
VStem: 26.3809 258.619
LayerCount: 2
Fore
SplineSet
44.7627 1.69043 m 0
 29.3428 7.09766 20.9727 24.5078 26.3809 39.9277 c 0
 228.381 615.928 l 0
 233.788 631.348 251.198 639.717 266.618 634.31 c 0
 282.038 628.902 290.407 611.492 285 596.072 c 0
 83 20.0723 l 0
 77.5928 4.65234 60.1826 -3.7168 44.7627 1.69043 c 0
EndSplineSet
EndChar

StartChar: backslash
Encoding: 92 92 241
Width: 346
VWidth: 0
Flags: W
VStem: 20.3809 258.619
LayerCount: 2
Fore
SplineSet
260.618 1.69043 m 4
 245.198 -3.7168 227.788 4.65234 222.381 20.0723 c 4
 20.3809 596.072 l 4
 14.9736 611.492 23.3428 628.902 38.7627 634.31 c 4
 54.1826 639.717 71.5928 631.348 77 615.928 c 4
 279 39.9277 l 4
 284.408 24.5078 276.038 7.09766 260.618 1.69043 c 4
EndSplineSet
EndChar

StartChar: bar
Encoding: 124 124 242
Width: 168
VWidth: 0
Flags: W
VStem: 57 60<3.02008 662.754>
LayerCount: 2
Fore
SplineSet
87 663.909 m 0
 103.341 663.909 117 650.249 117 633.909 c 0
 117 31.8652 l 0
 117 15.5254 103.341 1.86523 87 1.86523 c 0
 70.6592 1.86523 57 15.5254 57 31.8652 c 0
 57 633.909 l 0
 57 650.249 70.6592 663.909 87 663.909 c 0
EndSplineSet
EndChar

StartChar: braceleft
Encoding: 123 123 243
Width: 354
VWidth: 0
Flags: W
HStem: -2 99<177.723 299.71> 537 98<185.398 311.622>
VStem: 31 126<283.098 361.888> 54 273<537.303 612.697> 65 97<349.125 509.185>
LayerCount: 2
Fore
SplineSet
65 381 m 21xc8
 67 430 74 480 84 529 c 5
 66 537 54 555 54 568 c 4xd0
 54 618 102 635 162 635 c 4xc8
 283 635 327 636 327 565 c 4xd0
 327 539 304 531 278 531 c 4
 254 531 241 537 217 537 c 4
 201 537 189 529 185 514 c 4
 175 480 162 441 162 393 c 4xc8
 162 360.754 157 286.002 157 256 c 29
 155 201 165 171 177 117 c 28
 179 107 184 98 193 97 c 4
 246 93 314 96 314 42 c 4
 314 18 296 -2 272 -2 c 4
 234 -2 213 12 176 12 c 4
 149 12 131 4 106 4 c 4
 85 4 58 12 58 34 c 4
 58 59 71 69 90 89 c 5
 79 155 72 217 66 278 c 5
 44 285 31 295 31 315 c 28xe0
 31 344 52 355 65 381 c 21xc8
EndSplineSet
EndChar

StartChar: braceright
Encoding: 125 125 244
Width: 360
VWidth: 0
Flags: W
HStem: -2 99<49.2902 171.277> 537 98<37.3777 163.602>
VStem: 22 273<537.303 612.697> 187 97<349.125 509.185> 192 126<283.098 361.888>
LayerCount: 2
Fore
SplineSet
284 381 m 9xd0
 297 355 318 344 318 315 c 24
 318 295 305 285 283 278 c 1
 277 217 270 155 259 89 c 1
 278 69 291 59 291 34 c 0
 291 12 264 4 243 4 c 0
 218 4 200 12 173 12 c 0
 136 12 115 -2 77 -2 c 0
 53 -2 35 18 35 42 c 0
 35 96 103 93 156 97 c 0
 165 98 170 107 172 117 c 24
 184 171 194 201 192 256 c 25xc8
 192 286.002 187 360.754 187 393 c 0xd0
 187 441 174 480 164 514 c 0
 160 529 148 537 132 537 c 0
 108 537 95 531 71 531 c 0
 45 531 22 539 22 565 c 0xe0
 22 636 66 635 187 635 c 4xd0
 247 635 295 618 295 568 c 0xe0
 295 555 283 537 265 529 c 1
 275 480 282 430 284 381 c 9xd0
EndSplineSet
EndChar

StartChar: bracketleft
Encoding: 91 91 245
Width: 354
VWidth: 0
Flags: W
HStem: -2 99<177.723 299.71> 537 98<185.398 311.622>
VStem: 54 273<537.303 612.697> 65 97<257.439 509.185>
LayerCount: 2
Fore
SplineSet
65 381 m 5xd0
 67 430 74 480 84 529 c 5
 66 537 54 555 54 568 c 4xe0
 54 618 102 635 162 635 c 4xd0
 283 635 327 636 327 565 c 4xe0
 327 539 304 531 278 531 c 4
 254 531 241 537 217 537 c 4
 201 537 189 529 185 514 c 4
 175 480 162 441 162 393 c 4
 162 360.754 157 286.002 157 256 c 29
 155 201 165 171 177 117 c 28
 179 107 184 98 193 97 c 4
 246 93 314 96 314 42 c 4
 314 18 296 -2 272 -2 c 4
 234 -2 213 12 176 12 c 4
 149 12 131 4 106 4 c 4
 85 4 58 12 58 34 c 4
 58 59 71 69 90 89 c 5
 79 155 72 217 66 278 c 5
 64 302.3 58 334.3 65 381 c 5xd0
EndSplineSet
EndChar

StartChar: grave
Encoding: 96 96 246
Width: 198
VWidth: 0
Flags: W
LayerCount: 2
Fore
SplineSet
161.322 569.438 m 29
 55.5176 684.097 l 30
 40.9707 699.86 40.8789 727.167 58.7705 739 c 28
 76.4688 750.705 101.016 739.298 109.733 719.953 c 30
 173.833 577.713 l 29
 161.322 569.438 l 29
EndSplineSet
EndChar

StartChar: quotesingle
Encoding: 39 39 247
Width: 120
VWidth: 0
Flags: W
HStem: 541 198<50.7705 65.7705>
VStem: 25.7705 65<651.88 736.734> 50.7705 15<541 584.12>
LayerCount: 2
Fore
SplineSet
50.7705 541 m 29xa0
 25.7705 695 l 30
 22.333 716.173 37.3203 739 58.7705 739 c 28
 79.9893 739 94.1709 715.944 90.7705 695 c 30xc0
 65.7705 541 l 29
 50.7705 541 l 29xa0
EndSplineSet
EndChar

StartChar: at
Encoding: 64 64 248
Width: 644
VWidth: 0
Flags: W
HStem: -66 80<273.702 487.819> 98 64<318.458 397.4> 570 80<273.702 429.969>
VStem: 23 80<184.702 399.298> 205 86<190.02 368.425> 411 80<196.403 383.594>
LayerCount: 2
Fore
SplineSet
401 385 m 1
 388 393 387 418 369 419 c 0
 325 421 291 331 291 290 c 0
 291 238 303 162 360 162 c 0
 387 162 396 178 403 195 c 1
 407 225 412 250 411 287 c 0
 410 325 405 355 401 385 c 1
205 288 m 0
 205 384 265 491 392 483 c 5
 487 526 421 570 381 570 c 0
 227.558 570 103 445.442 103 292 c 0
 103 138.558 227.558 14 381 14 c 0
 443.452 14 501.119 34.6334 547.55 69.4496 c 1
 575 42 583 34 604.568 12.4316 c 1
 543.295 -36.6419 465.558 -66 381 -66 c 0
 183.37 -66 23 94.3703 23 292 c 0
 23 489.63 183.37 650 381 650 c 0
 599 650 541 496 473 422 c 1
 473 375 491 247 491 161 c 0
 491 129 480 97 444 97 c 0
 435 97 427 100 420 106 c 1
 408 101 393 98 377 98 c 0
 253 98 205 200 205 288 c 0
EndSplineSet
EndChar

StartChar: parenleft
Encoding: 40 40 250
Width: 308
VWidth: 0
Flags: W
HStem: 0 79<178.189 237.103> 556.736 76.939<192.972 250.805>
VStem: 28.5352 107<169.967 459.148>
LayerCount: 2
Back
SplineSet
28.5352 313 m 0xe8
 28.5352 476 97.5352 637 243.535 637 c 0
 284.535 637 322.535 610 322.535 568 c 0
 322.535 539 306.535 508 277.535 508 c 0
 256.535 508 243.535 521 237.535 540 c 0xf0
 230.535 562 209.535 560 201.535 548 c 0
 165.535 498 135.535 417 135.535 318 c 0
 135.535 220 149.535 79 210.535 79 c 0
 230.535 79 246.535 94 246.535 114 c 0
 246.535 141 218.535 147 218.535 173 c 0
 218.535 196 242.535 210 261.535 210 c 0
 313.535 211 337.535 169 337.535 123 c 0
 337.535 51 295.535 -1 231.535 -1 c 0
 84.5352 -1 28.5352 167 28.5352 313 c 0xe8
EndSplineSet
Fore
SplineSet
28.5352 313 m 4
 28.5352 476 104.035 633.931 226.035 633.675 c 4
 286.035 633.549 274.035 556.736 232.035 556.736 c 4
 163.451 556.736 135.535 399.761 135.535 318 c 4
 135.535 220 149.535 79 210.535 79 c 4
 270.035 79 286.035 0 208.035 0 c 4
 98.0352 0 28.5352 167 28.5352 313 c 4
EndSplineSet
EndChar

StartChar: parenright
Encoding: 41 41 251
Width: 308
VWidth: 0
Flags: W
HStem: 0 79<50.967 109.881> 556.736 76.939<37.2653 95.0977>
VStem: 152.535 107<169.967 459.148>
LayerCount: 2
Fore
SplineSet
259.535 313 m 4
 259.535 167 190.035 0 80.0352 0 c 4
 2.03516 0 18.0352 79 77.5352 79 c 4
 138.535 79 152.535 220 152.535 318 c 4
 152.535 399.761 124.619 556.736 56.0352 556.736 c 4
 14.0352 556.736 2.03516 633.549 62.0352 633.675 c 4
 184.035 633.932 259.535 476 259.535 313 c 4
EndSplineSet
EndChar

StartChar: question
Encoding: 63 63 252
Width: 364
VWidth: 0
Flags: W
HStem: -8.5 113.5<67.5521 151.596> 578.778 71<41.2665 199>
VStem: 53.8496 114.15<0.886608 87.3769> 235 95<398.946 546.146>
LayerCount: 2
Back
SplineSet
366 214.981 m 4xe8
 366 108.981 299 -11.0186 158 -2.01855 c 5
 159 -91.0186 134 -195.112 80 -195.112 c 4
 55 -195.112 40 -170.112 40 -143.112 c 4
 40 -70.1123 68 -46.0186 68 65.9814 c 4xd8
 68 117.981 48 259.981 48 355.981 c 4
 48 391.981 61 426.981 101 426.981 c 4
 111 426.981 120 422.981 127 416.981 c 5
 141 422.981 157 425.981 175 425.981 c 4
 313 425.981 366 312.981 366 214.981 c 4xe8
148 106.981 m 5
 163 98.9814 164 69.9814 184 68.9814 c 4
 232 66.9814 271 166.981 271 212.981 c 4
 271 270.981 257 354.981 194 354.981 c 4
 164 354.981 154 337.981 146 318.981 c 5
 142 285.981 136 256.981 137 215.981 c 4xe8
 138 173.981 143 139.981 148 106.981 c 5
EndSplineSet
Fore
SplineSet
119 649.778 m 0
 282 649.778 330 565.778 330 467.778 c 0
 330 371.828 258 309.557 204 300.778 c 0
 165.022 294.442 167.886 280.778 164.53 258.778 c 0
 152.879 182.404 170 150.778 108 144.778 c 0
 83.1162 142.37 68 169.778 68 196.778 c 0
 68 257.642 65.5283 228.618 72 300.778 c 0
 76.5586 351.602 122 366.409 144 366.409 c 0
 197.122 366.409 235 406.778 235 465.778 c 0
 235 508.778 224 578.778 138 578.778 c 0
 92.5566 578.778 50 528.575 30 594.575 c 0
 17.3379 636.359 87.0635 649.778 119 649.778 c 0
EndSplineSet
Refer: 31 46 N 1 0 0 1 28 0 2
EndChar

StartChar: questiondown
Encoding: 191 191 253
Width: 364
VWidth: 0
Flags: W
HStem: -12.8486 71<164.795 322.693> 532.15 113.5<212.199 296.243>
VStem: 33.7949 95.0001<90.7835 238.113> 195.795 114.15<549.773 636.263>
LayerCount: 2
Fore
SplineSet
244.795 -12.8486 m 4
 81.7949 -12.8486 33.7949 71.1514 33.7949 169.151 c 4
 33.7949 265.151 105.795 327.151 159.795 336.151 c 4
 198.795 342.151 195.795 356.151 198.795 378.151 c 4
 210.795 454.151 193.795 486.151 255.795 492.151 c 4
 280.795 494.151 295.795 467.151 295.795 440.151 c 4
 295.795 379.151 297.795 408.151 291.795 336.151 c 4
 286.795 285.151 241.795 271.151 219.795 271.151 c 4
 166.795 271.151 128.795 230.151 128.795 171.151 c 4
 128.795 128.151 139.795 58.1514 225.795 58.1514 c 4
 270.795 58.1514 313.795 108.151 333.795 42.1514 c 4
 346.795 0.151367 276.795 -12.8486 244.795 -12.8486 c 4
EndSplineSet
Refer: 31 46 S -1 0 0 -1 335.795 637.15 2
EndChar

StartChar: dollar
Encoding: 36 36 280
Width: 377
VWidth: 0
Flags: W
HStem: 73.881 80<130.522 221.037> 426.881 73<166.855 223.089>
VStem: 44 97<156.392 197.123> 195 14<-49.7434 38 534 621.743> 233 86<168.084 238.997>
LayerCount: 2
Fore
SplineSet
195 38 m 21
 195 -14 193 -77 155 -124 c 13
 249 -124 l 21
 211 -76 209 -14 209 38 c 13
 195 38 l 21
195 534 m 21
 195 586 193 649 155 696 c 13
 249 696 l 21
 211 648 209 586 209 534 c 13
 195 534 l 21
EndSplineSet
Refer: 66 115 N 1 0 0 1 0 73.881 2
EndChar

StartChar: numbersign
Encoding: 35 35 281
Width: 779
Flags: W
HStem: 183.5 60<46.6323 196.825 281.88 418.825 502.88 668.82> 397.5 60<120.632 271.873 356.929 493.873 577.929 742.82>
LayerCount: 2
Fore
SplineSet
386.5 2 m 0
 371.5 7 363.5 25 368.5 40 c 2
 418.825 183.5 l 1
 260.839 183.5 l 1
 203.5 20 l 2
 198.5 5 180.5 -3 165.5 2 c 0
 150.5 7 141.5 25 146.5 40 c 2
 196.825 183.5 l 1
 76 183.5 l 2
 60 183.5 45 196.5 45 212.5 c 0
 45 228.5 59 243.5 75 243.5 c 2
 217.866 243.5 l 1
 271.873 397.5 l 1
 150 397.5 l 2
 134 397.5 119 410.5 119 426.5 c 0
 119 442.5 133 457.5 149 457.5 c 2
 292.915 457.5 l 1
 348.5 616 l 2
 353.5 631 372.5 639 387.5 634 c 0
 402.5 629 410.5 611 405.5 596 c 2
 356.929 457.5 l 1
 514.915 457.5 l 1
 570.5 616 l 2
 575.5 631 593.5 639 608.5 634 c 0
 623.5 629 631.5 611 626.5 596 c 2
 577.929 457.5 l 1
 714 457.5 l 2
 730 457.5 744 443.5 744 427.5 c 0
 744 411.5 730 397.5 714 397.5 c 2
 556.887 397.5 l 1
 502.88 243.5 l 1
 640 243.5 l 2
 656 243.5 670 229.5 670 213.5 c 0
 670 197.5 656 183.5 640 183.5 c 2
 481.839 183.5 l 1
 424.5 20 l 2
 419.5 5 401.5 -3 386.5 2 c 0
335.887 397.5 m 1
 281.88 243.5 l 1
 439.866 243.5 l 1
 493.873 397.5 l 1
 335.887 397.5 l 1
EndSplineSet
EndChar

StartChar: cent
Encoding: 162 162 282
Width: 356
VWidth: 0
Flags: W
HStem: 75 71<155.72 237.147> 389 114<232.203 288.204>
VStem: 29 95<183.705 367.45> 195 14<-49.7434 38 534 621.743> 238 81<148.17 187.361>
LayerCount: 2
Fore
SplineSet
195 38 m 17
 195 -14 193 -77 155 -124 c 9
 249 -124 l 17
 211 -76 209 -14 209 38 c 9
 195 38 l 17
195 534 m 17
 195 586 193 649 155 696 c 9
 249 696 l 17
 211 648 209 586 209 534 c 9
 195 534 l 17
EndSplineSet
Refer: 51 99 S 1 0 0 1 0 76 2
EndChar

StartChar: copyright
Encoding: 169 169 283
Width: 816
VWidth: 0
Flags: W
HStem: 0 80<284.64 497.36> 150.248 71<367.72 449.147> 464.248 114<444.203 500.204> 649.248 80<284.64 497.36>
VStem: 26.376 80<258.264 470.984> 241 95<258.953 442.698> 450 81<223.418 262.609> 675.624 80<258.264 470.984>
LayerCount: 2
Fore
SplineSet
106.376 364.624 m 4
 106.376 207.525 233.901 80 391 80 c 4
 548.099 80 675.624 207.525 675.624 364.624 c 4
 675.624 521.723 548.099 649.248 391 649.248 c 4
 233.901 649.248 106.376 521.723 106.376 364.624 c 4
26.376 364.624 m 4
 26.376 565.91 189.714 729.248 391 729.248 c 4
 592.286 729.248 755.624 565.91 755.624 364.624 c 4
 755.624 163.338 592.286 0 391 0 c 4
 189.714 0 26.376 163.338 26.376 364.624 c 4
EndSplineSet
Refer: 51 99 N 1 0 0 1 212 151.248 2
EndChar

StartChar: section
Encoding: 167 167 284
Width: 350
VWidth: 0
Flags: W
HStem: -91.5996 80<100.522 191.037> 430 73<151.855 208.089>
VStem: 14 97<-9.08833 31.6426> 26 99<179.474 272.357> 203 84<2.60306 75.1092> 218 84<167.877 243.433>
LayerCount: 2
Fore
SplineSet
41 400 m 0xd8
 38 459 112 503 199 503 c 0
 247 503 304 487 304 451 c 0
 304 418 269 389 234 389 c 0
 217 389 203 401 203 412 c 0xd8
 203 419 207 423 209 430 c 1
 179 430 140 413 140 389 c 0
 140 320 302 293 302 180 c 0xc4
 302 148.575 278.771 118.486 244.562 100.899 c 1
 268.78 77.5197 287 49.2961 287 11.4004 c 0
 287 -46.5996 205 -91.5996 131 -91.5996 c 0
 54 -91.5996 14 -74.5996 14 -16.5996 c 0
 14 13.4004 31 42.4004 71 42.4004 c 0
 91 42.4004 111 28.4004 111 17.4004 c 0xe8
 111 6.40039 104 1.40039 100 -9.59961 c 1
 107 -10.5996 111 -11.5996 119 -11.5996 c 0
 143 -11.5996 203 -5.59961 203 36.4004 c 0
 203 98.4004 26 144 26 231.4 c 0
 26 268.665 52.5543 300.651 96.1473 317.933 c 1
 66.5824 341.374 42.813 367.729 41 400 c 0xd8
173.279 155.934 m 1
 199 169 218 171.944 218 205 c 0xd4
 218 230.497 188.911 252.95 154.311 276.74 c 1
 120 259 125 243.693 125 220.4 c 0
 125 195.434 146.209 175.967 173.279 155.934 c 1
EndSplineSet
EndChar

StartChar: asterisk
Encoding: 42 42 287
Width: 462
Flags: W
HStem: 120 350<220 227>
VStem: 199 56<168 190 400 424> 212 29<256.352 271.969 321.031 335.743>
LayerCount: 2
Fore
SplineSet
389 388 m 0xa0
 399 371 393 360 355 338 c 0
 314 314 281 312 255 296 c 1xc0
 284 279 314 276 351 255 c 0
 388 234 395 218 385 201 c 0
 376 185 363 184 325 205 c 0
 284 229 268 257 241 272 c 257xa0
 241 238 255 219 255 177 c 0
 255 134 243 120 225 120 c 0
 207 120 199 131 199 174 c 0xc0
 199 222 213 241 212 272 c 1xa0
 185 257 166 229 125 205 c 0
 87 184 74 185 65 201 c 0
 55 219 62 234 99 255 c 0
 136 276 168 278 197 295 c 1
 171 311 141 311 100 335 c 0
 62 357 56 371 66 388 c 0
 74 402 93 407 130 385 c 0
 167 364 184 338 213 321 c 1
 214 352 199 368 199 416 c 0
 199 459 205 470 225 470 c 0
 245 470 255 456 255 413 c 0xc0
 255 371 241 354 241 320 c 1
 270 337 288 364 325 385 c 0
 362 407 380 404 389 388 c 0xa0
EndSplineSet
EndChar

StartChar: plus
Encoding: 43 43 288
Width: 354
Flags: W
HStem: 260 33<34 156 189 311>
VStem: 156 33<136 260 293 412>
LayerCount: 2
Fore
SplineSet
312 260 m 257
 189 260 l 257
 189 135 l 257
 156 135 l 257
 156 260 l 1
 33 260 l 257
 33 293 l 257
 156 293 l 257
 156 413 l 257
 189 413 l 257
 189 293 l 257
 312 293 l 257
 312 260 l 257
EndSplineSet
EndChar

StartChar: less
Encoding: 60 60 289
Width: 591
Flags: W
VStem: 43 85<270 282>
DStem2: 43 292 128 282 0.92894 0.37023<75.2576 427.898> 128 270 43 262 0.92109 -0.38935<0 355.211>
LayerCount: 2
Fore
SplineSet
457 87 m 257
 43 262 l 1
 43 292 l 1
 457 457 l 1
 457 409 l 1
 128 282 l 1
 128 270 l 1
 457 136 l 1
 457 87 l 257
EndSplineSet
EndChar

StartChar: equal
Encoding: 61 61 290
Width: 392
Flags: W
HStem: 213 33<34 311> 321 33<34 311>
VStem: 33 279<214 245 322 353>
LayerCount: 2
Fore
SplineSet
312 321 m 257
 33 321 l 1
 33 354 l 1
 312 354 l 1
 312 321 l 257
312 213 m 1
 33 213 l 1
 33 246 l 1
 312 246 l 1
 312 213 l 1
EndSplineSet
EndChar

StartChar: greater
Encoding: 62 62 291
Width: 586
Flags: W
VStem: 409 85<270 282>
DStem2: 80 457 80 409 0.92894 -0.37023<17.771 370.412> 80 136 80 87 0.92109 0.38935<0 355.211>
LayerCount: 2
Fore
SplineSet
80 87 m 1
 80 136 l 1
 409 270 l 1
 409 282 l 1
 80 409 l 1
 80 457 l 1
 494 292 l 257
 494 262 l 1
 80 87 l 1
EndSplineSet
EndChar

StartChar: asciicircum
Encoding: 94 94 292
Width: 409
Flags: W
HStem: 483 72<191 202>
LayerCount: 2
Fore
SplineSet
352 368 m 1
 318 368 l 1
 202 483 l 1
 191 483 l 1
 76 368 l 1
 38 368 l 1
 183 555 l 1
 208 555 l 1
 352 368 l 1
EndSplineSet
EndChar

StartChar: underscore
Encoding: 95 95 293
Width: 565
Flags: W
HStem: -205 45<1 494>
VStem: 0 495<-204 -161>
LayerCount: 2
Fore
SplineSet
495 -205 m 257
 0 -205 l 1
 0 -160 l 1
 495 -160 l 1
 495 -205 l 257
EndSplineSet
EndChar

StartChar: currency
Encoding: 164 164 294
Width: 544
Flags: W
HStem: 115 50<214 230> 465 50<214 230>
VStem: 25.0459 50.8136<298 330> 374.14 50.4534<298 330>
DStem2: 383 187 357 159 0.713684 -0.700468<1.05731 75.2937> 358 469 385 441 0.713938 0.700209<0 72.1215>
LayerCount: 2
Fore
SplineSet
437 134 m 257
 409 106 l 1
 357 159 l 1
 324 132 280 115 225 115 c 0
 172 115 130 131 98 156 c 1
 49 106 l 1
 22 134 l 1
 22 134 71 183 70 183 c 1
 9 255 10 372 69 445 c 0
 69 446 22 492 22 492 c 1
 49 520 l 1
 96 472 l 1
 128 498 172 515 225 515 c 0
 281 515 326 498 358 469 c 1
 409 520 l 1
 437 492 l 1
 385 441 l 1
 439 369 439 259 383 187 c 1
 437 134 l 257
225 165 m 0
 425 165 425 465 225 465 c 0
 25 465 25 165 225 165 c 0
EndSplineSet
EndChar

StartChar: brokenbar
Encoding: 166 166 295
Width: 201
Flags: W
HStem: -19 350<48 93> 398 325<48 93>
VStem: 47 47<-18 330 399 722>
LayerCount: 2
Fore
SplineSet
94 398 m 257
 47 398 l 1
 47 723 l 1
 94 723 l 1
 94 398 l 257
94 -19 m 1
 47 -19 l 1
 47 331 l 1
 94 331 l 1
 94 -19 l 1
EndSplineSet
EndChar

StartChar: logicalnot
Encoding: 172 172 296
Width: 638
Flags: W
HStem: 210 40<36 534>
VStem: 535 40<41 209>
LayerCount: 2
Fore
SplineSet
575 40 m 257
 535 40 l 257
 535 210 l 257
 35 210 l 1
 35 250 l 1
 575 250 l 1
 575 40 l 257
EndSplineSet
EndChar

StartChar: uni00AD
Encoding: 173 173 297
Width: 340
Flags: W
HStem: 209 45<34 265>
VStem: 33 233<210 253>
LayerCount: 2
Fore
SplineSet
266 209 m 257
 33 209 l 1
 33 254 l 1
 266 254 l 1
 266 209 l 257
EndSplineSet
EndChar

StartChar: macron
Encoding: 175 175 298
Width: 315
Flags: W
HStem: 585 45<36 249>
VStem: 35 215<586 629>
LayerCount: 2
Fore
SplineSet
250 585 m 257
 35 585 l 1
 35 630 l 1
 250 630 l 1
 250 585 l 257
EndSplineSet
EndChar

StartChar: plusminus
Encoding: 177 177 299
Width: 331
Flags: W
HStem: 213 33<34 153 188 311> 321 33<34 154 187 311>
VStem: 154 33<246 321 354 455>
LayerCount: 2
Fore
SplineSet
312 213 m 257
 33 213 l 257
 33 246 l 257
 154 246 l 257
 154 321 l 1
 33 321 l 257
 33 354 l 257
 154 354 l 257
 154 456 l 257
 187 456 l 257
 187 354 l 257
 312 354 l 257
 312 321 l 257
 187 321 l 1
 187 246 l 257
 312 246 l 257
 312 213 l 257
EndSplineSet
EndChar

StartChar: paragraph
Encoding: 182 182 300
Width: 592
Flags: W
HStem: 354 31<262 305> 631 30<262 305 362 416 474 519>
VStem: 306 55<-68 354 386 630> 417 56<-68 630>
LayerCount: 2
Fore
SplineSet
473 631 m 257
 473 -69 l 257
 417 -69 l 257
 417 631 l 1
 361 631 l 1
 361 -69 l 257
 306 -69 l 257
 306 354 l 257
 187 354 l 2
 90 354 -3 403 6 527 c 0
 13 624 88 661 171 661 c 2
 520 661 l 257
 520 631 l 257
 473 631 l 257
306 385 m 1
 306 631 l 1
 276 631 l 2
 222 631 162 587 165 510 c 0
 168 412 206 385 276 385 c 2
 306 385 l 1
EndSplineSet
EndChar

StartChar: sterling
Encoding: 163 163 301
Width: 611
Flags: W
HStem: 87.6043 31.6655<218 243> 242 31<139 171 274 322>
VStem: 124 220<256 259> 451 80.9918<110 131>
LayerCount: 2
Fore
SplineSet
218 88 m 0
 207 88 195 87 184 86 c 1
 172 69 158 52 142 35 c 0
 124 16 106 0 87 0 c 0
 74 0 64 11 64 24 c 0
 64 63 107 75 144 94 c 0
 153 99 162 103 171 107 c 1
 180 135 187 172 196 215 c 0
 199 234 176 242 163 242 c 2
 140 242 l 2
 132 242 124 249 124 257 c 0
 124 266 133 273 140 273 c 2
 186 273 l 2
 206 273 209 284 211 295 c 0
 227 379 249 471 284 545 c 0
 303 585 318 610 356 633 c 0
 387 651 408 659 440 668 c 0
 449 671 468 669 483 662 c 0
 506 652 527 640 527 615 c 0
 527 596 512 579 493 579 c 0
 475 579 467 588 458 610 c 0
 446 640 403 653 379 625 c 0
 337 574 323 458 292 352 c 0
 285 329 279 307 272 286 c 0
 270 280 270 273 277 273 c 2
 320 273 l 2
 330 273 344 269 344 257 c 0
 344 246 329 242 317 242 c 2
 270 242 l 2
 259 242 255 236 252 227 c 0
 237 189 229 153 206 117 c 1
 217 119 230 120 243 120 c 0
 323 120 382 41 451 41 c 0
 468 41 488 48 488 70 c 0
 488 76 487 85 479 91 c 1
 463 100 451 112 451 131 c 0
 451 150 469 163 488 163 c 0
 514 163 532 137 532 110 c 0
 532 60 456 0 400 0 c 0
 319 0 269 88 218 88 c 0
EndSplineSet
EndChar

StartChar: registered
Encoding: 174 174 302
Width: 804
VWidth: 0
Flags: W
HStem: 0 80<284.64 497.36> 519.33 62.6699<323.102 431.338> 649.248 80<284.64 497.36>
VStem: 26.376 80<258.264 470.984> 276.601 88.2002<163.023 305.008> 285.601 65.7002<214.775 324.02 376.656 501.655> 435 89.1006<417.612 516.706> 443.101 81.8994<159.053 259.749> 675.624 80<258.264 470.984>
LayerCount: 2
Fore
SplineSet
106.376 364.624 m 0xf080
 106.376 207.525 233.901 80 391 80 c 0
 548.099 80 675.624 207.525 675.624 364.624 c 0
 675.624 521.723 548.099 649.248 391 649.248 c 0
 233.901 649.248 106.376 521.723 106.376 364.624 c 0xf080
26.376 364.624 m 0
 26.376 565.91 189.714 729.248 391 729.248 c 0
 592.286 729.248 755.624 565.91 755.624 364.624 c 0
 755.624 163.338 592.286 0 391 0 c 0
 189.714 0 26.376 163.338 26.376 364.624 c 0
353.101 376.656 m 1
 405.301 397.324 435 430.659 435 475.995 c 0xf280
 435 495.996 428.7 519.33 398.101 519.33 c 0
 371.101 519.33 368.4 486.662 361.2 462.661 c 24
 351.301 429.992 355.801 409.991 353.101 376.656 c 1
297.301 513.33 m 25
 284.7 519.33 265.801 520.664 265.801 529.331 c 0
 265.801 565.998 287.4 582 371.101 582 c 0
 464.7 582 524.101 533.998 524.101 475.328 c 0xf680
 524.101 422.659 490.801 385.324 442.2 354.655 c 0
 436.801 351.322 439.5 345.988 444 341.988 c 0
 497.101 292.652 525 235.983 525 189.313 c 0
 525 170.646 512.4 155.312 480 155.312 c 0
 460.2 155.312 447.601 167.979 443.101 181.98 c 0
 426.9 228.649 426.9 257.317 405.301 302.653 c 24
 399.9 313.987 390.9 322.654 374.7 323.987 c 24
 362.101 324.654 351.301 315.987 351.301 306.653 c 0xf580
 351.301 271.318 364.801 251.317 364.801 211.981 c 0
 364.801 186.647 354.9 156.646 321.601 156.646 c 0
 287.4 156.646 276.601 186.647 276.601 213.315 c 0xf880
 276.601 244.65 284.7 262.651 285.601 293.986 c 24xf480
 286.5 342.655 280.2 369.323 280.2 417.992 c 0
 280.2 455.994 291 475.995 297.301 513.33 c 25
EndSplineSet
EndChar

StartChar: multiply
Encoding: 215 215 303
Width: 296
Flags: W
HStem: 182 196
VStem: 49 199
LayerCount: 2
Fore
SplineSet
248 214 m 257
 216 182 l 1
 149 248 l 1
 81 181 l 1
 49 213 l 1
 117 279 l 1
 49 346 l 1
 81 378 l 1
 149 311 l 1
 216 377 l 1
 248 346 l 1
 181 279 l 1
 248 214 l 257
EndSplineSet
EndChar

StartChar: divide
Encoding: 247 247 304
Width: 364
Flags: W
HStem: 108.5 75<171 177> 260 33<34 311> 366 75<171 177>
VStem: 33 279<261 292> 135 75<140 148 396 412>
LayerCount: 2
Fore
SplineSet
172.5 441 m 4xe8
 193.2 441 210 424.2 210 403.5 c 260
 210 382.8 193.2 366 172.5 366 c 4
 151.8 366 135 382.8 135 403.5 c 4
 135 424.2 151.8 441 172.5 441 c 4xe8
172.5 183.5 m 4
 193.2 183.5 210 166.7 210 146 c 4
 210 125.3 193.2 108.5 172.5 108.5 c 4
 151.8 108.5 135 125.3 135 146 c 4
 135 166.7 151.8 183.5 172.5 183.5 c 4
312 260 m 1xf0
 33 260 l 1
 33 293 l 1
 312 293 l 1
 312 260 l 1xf0
EndSplineSet
EndChar

StartChar: OE
Encoding: 338 338 305
Width: 486
VWidth: 0
Flags: W
HStem: -2 99<307.723 429.71> -1 77<152.299 206.622> 292 84<292.233 355.208> 531 104<313.576 441.622>
VStem: 22 90<157.567 481.85> 161 234<292.266 361.643> 195 97<376.293 509.185>
LayerCount: 2
Fore
SplineSet
183 542 m 1x7a
 118 503 112 411 112 320 c 0
 112 299 117 258 123 216 c 0
 132 148 147 76 178 76 c 0
 195.912 76 207.579 93.43 215.159 119.433 c 1
 206.853 174.209 201.069 226.461 196 278 c 1
 174 285 161 295 161 315 c 0x7c
 161 344 182 355 195 381 c 1
 197 430 204 479.999 214 529 c 1
 202.921 533.924 197.93 538.351 183 542 c 1x7a
216.864 6.20203 m 1
 207.023 1.52944 195.495 -1 182 -1 c 0
 68 -1 22 182 22 324 c 0
 22 407 39 487 68 546 c 0
 96 603 141 639 177 639 c 0
 193.929 639 206.643 632.058 216.007 620.521 c 1
 235.467 630.823 262.259 635 292 635 c 0
 413 635 457 636 457 565 c 0
 457 539 434 531 408 531 c 0
 384 531 371 537 347 537 c 0
 331 537 319 529 315 514 c 0
 305 479.999 292 441 292 393 c 0x7a
 292 373 294 376 310 376 c 0
 359 376 395 365 395 321 c 0
 395 300 381 284 356 284 c 0
 339 284 329 292 312 292 c 0
 287 292 287 273 287 256 c 0
 285 201 295 171 307 117 c 0
 309 107 314 98 323 97 c 0
 376 93 444 96 444 42 c 0
 444 18 426 -2 402 -2 c 0xbc
 364 -2 343 12 306 12 c 0
 279 12 261 4 236 4 c 0
 229.859 4 223.206 4.68401 216.864 6.20203 c 1
EndSplineSet
EndChar

StartChar: oe
Encoding: 339 339 306
Width: 574
VWidth: 0
Flags: W
HStem: -1 71<331.054 440.201> -1 52<134.78 193.559> 220.2 63<309.427 451.212> 355.785 71.2148<342.707 429.795>
VStem: 20 83<99.8976 324.404> 211 85<108.818 220.158> 440.293 81<76.3045 111.361>
LayerCount: 2
Fore
SplineSet
168 361 m 1x7e
 108 335 103 274 103 213 c 0
 103 199 107 172 113 144 c 1
 121 99 135 51 164 51 c 0
 207 51 211 131 211 184 c 0
 211 289 165 323 165 343 c 0
 165 350 166.83 353.98 168 361 c 1x7e
453.588 283.2 m 1
 457.293 302.2 433.054 355.785 383.293 355.785 c 0
 352.815 355.785 317.293 314.2 309.427 283.2 c 1
 309.427 283.2 403.588 278.2 453.588 283.2 c 1
263.066 59.4837 m 1
 244.17 24.1173 213.883 -1.00001 167 -1 c 0x7e
 62 -1 20 121 20 216 c 0
 20 271 36 325 63 364 c 0
 89 402 130 426 163 426 c 0
 194 426 210 408 216 383 c 1
 230.694 368.306 244.429 366.087 255.323 350.962 c 1
 288.461 396.877 329.32 428.019 402.793 427 c 0
 476.293 425.981 540.092 344.2 540.092 272.2 c 0
 540.092 252.652 529.274 232.964 499.793 222.2 c 1
 466.793 213.154 402.052 220.2 296 220.2 c 1
 292.908 159.22 308.293 70 383.293 70 c 0
 404.293 70 440.293 79 440.293 90 c 0
 440.293 105 412.293 108 412.293 123 c 0
 412.293 136 435.293 144 452.293 144 c 0
 500.293 145 521.293 116 521.293 84 c 0
 521.293 34 451.793 -1 391.793 -1 c 0xbe
 327.592 -1 293.695 23.4575 263.066 59.4837 c 1
EndSplineSet
EndChar

StartChar: zero.ss02
Encoding: 65664 -1 324
Width: 522
VWidth: 0
Flags: W
HStem: -15 93<212.594 297.774> 588 81<211.377 299.04>
VStem: 63 99<158.413 518.851> 354 93<170.882 511.467>
LayerCount: 2
Fore
SplineSet
255 588 m 0
 177 588 162 453 162 354 c 0
 162 240 177 78 255 78 c 0
 333 78 354 240 354 354 c 8
 354 453 333 588 255 588 c 0
63 354 m 24
 63 498 93 669 255 669 c 0
 417 669 447 498 447 354 c 24
 447 192 417 -15 255 -15 c 0
 93 -15 63 192 63 354 c 24
EndSplineSet
EndChar

StartChar: one.ss02
Encoding: 65665 -1 325
Width: 267
VWidth: 0
Flags: W
HStem: 0 21G<120 210>
VStem: 120 90<0 546>
LayerCount: 2
Fore
SplineSet
66 588 m 1
 102 606 129 624 147 642 c 9
 210 642 l 25
 210 0 l 9
 120 0 l 25
 120 546 l 9
 78 522 l 17
 66 537 63 561 66 588 c 1
EndSplineSet
EndChar

StartChar: two.ss02
Encoding: 65666 -1 326
Width: 525
VWidth: 0
Flags: W
HStem: -6 98<201 460> 568 94<242.626 352.075>
VStem: 111 95<477 534.281> 380 98<432.729 541.552>
LayerCount: 2
Fore
SplineSet
206 477 m 9
 111 477 l 25
 111 487 111 492 111 502 c 0
 111 578 204 662 300 662 c 0
 396 662 478 586 478 489 c 0
 478 379 400 340 316 276 c 0
 261 234 216 162 201 92 c 9
 460 92 l 25
 460 -6 l 25
 98 -6 l 29
 98 12 98 21 98 39 c 4
 98 162 181 293 268 357 c 0
 358 423 380 442 380 486 c 0
 380 532 342 570 296 568 c 24
 246 565 206 525 206 477 c 9
EndSplineSet
EndChar

StartChar: three.ss02
Encoding: 65667 -1 327
Width: 558
VWidth: 0
Flags: W
HStem: -12 104<243.258 376.051> 308 100<309 370.043> 566 102<232.636 352.271>
VStem: 388 118<425.268 529.503> 422 116<138.998 273.508>
LayerCount: 2
Fore
SplineSet
190 498 m 9xf0
 87 531 l 17
 117 600 201 668 297 668 c 4
 419 668 506 582 506 476 c 4xf0
 506 437 500 410 484 376 c 1
 514 326 538 284 538 208 c 4
 538 67 440 -12 304 -12 c 4
 193 -12 118 49 76 159 c 9
 194 176 l 17
 222 126 249 92 309 92 c 0
 370 92 422 139 422 201 c 0xe8
 422 262 394 308 308 308 c 9
 309 408 l 17
 366 408 388 440 388 474 c 0
 388 524 343 566 297 566 c 0
 248 566 216 536 190 498 c 9xf0
EndSplineSet
EndChar

StartChar: four.ss02
Encoding: 65668 -1 328
Width: 522
VWidth: 0
Flags: W
HStem: 0 21G<309 402> 156 75<150 309 402 447>
VStem: 309 93<0 156 231 486>
LayerCount: 2
Fore
SplineSet
309 231 m 29
 309 486 l 29
 150 231 l 29
 309 231 l 29
309 156 m 29
 42 156 l 29
 42 240 l 29
 300 642 l 29
 402 642 l 29
 402 231 l 29
 447 231 l 29
 447 156 l 29
 402 156 l 29
 402 0 l 29
 309 0 l 29
 309 156 l 29
EndSplineSet
EndChar

StartChar: five.ss02
Encoding: 65669 -1 329
Width: 462
VWidth: 0
Flags: W
HStem: -30 96<149.608 274.908> 333 93<191.577 297.9> 558 90<177 390>
VStem: 81 96<414 558> 327 99<123.28 301.403>
LayerCount: 2
Fore
SplineSet
72 36 m 9
 132 102 l 17
 168 72 177 66 210 66 c 0
 297 66 327 144 327 222 c 0
 327 273 306 333 252 333 c 0
 219 333 201 324 174 294 c 9
 81 306 l 25
 84 648 l 25
 390 648 l 25
 390 552 l 25
 177 558 l 25
 177 414 l 25
 199 419 213 426 234 426 c 0
 342 426 426 348 426 228 c 0
 426 102 348 -30 225 -30 c 0
 159 -30 108 -12 72 36 c 9
EndSplineSet
EndChar

StartChar: six.ss02
Encoding: 65670 -1 330
Width: 570
VWidth: 0
Flags: W
HStem: -9 97<210.648 359.508> 285 105<208.812 364.344>
VStem: 51 115<127.951 245.51> 402 114<126.587 246.465>
LayerCount: 2
Fore
SplineSet
290 88 m 0
 348 88 402 126 402 184 c 24
 402 243 363 285 288 285 c 0
 218 285 166 247 166 186 c 0
 166 125 221 88 290 88 c 0
268 654 m 9
 340 576 l 17
 282 517 233 452 198 381 c 9
 227 385 243 390 272 390 c 0
 390 390 516 313 516 183 c 0
 516 67 404 -9 288 -9 c 0
 144 -9 51 71 51 200 c 0
 51 397 134 526 268 654 c 9
EndSplineSet
EndChar

StartChar: seven.ss02
Encoding: 65671 -1 331
Width: 498
VWidth: 0
Flags: W
HStem: 0 21G<156 254.5> 561 80<54 328>
VStem: 156 98<0 195.682>
LayerCount: 2
Fore
SplineSet
328 561 m 9
 54 561 l 25
 50 641 l 25
 438 640 l 25
 438 550 l 21
 326 424 255 211 254 0 c 13
 156 0 l 17
 156 209 205 400 328 561 c 9
EndSplineSet
EndChar

StartChar: eight.ss02
Encoding: 65672 -1 332
Width: 480
VWidth: 0
Flags: W
HStem: -24 90<148.838 262.102> 294 99<161.819 266.973> 558 102<165.88 266.208>
VStem: 18 99<98.6655 257.766> 36 102<416.15 532.029> 291 93<416.248 532.514> 300 90<107.501 263.057>
LayerCount: 2
Fore
SplineSet
213 294 m 0xf2
 143 294 117 238 117 180 c 24
 117 122 137 66 213 66 c 0
 266 66 300 124 300 180 c 24
 300 236 281 294 213 294 c 0xf2
138 468 m 24xec
 138 427 172 393 213 393 c 24
 255 393 291 426 291 468 c 0
 291 525 258 558 213 558 c 0
 165 558 138 514 138 468 c 24xec
84 345 m 1
 60 381 36 426 36 477 c 0
 36 576 112 661 210 660 c 24
 309 659 384 573 384 474 c 0xec
 384 429 372 396 336 354 c 1
 372 309 390 276 390 189 c 0
 390 78 327 -24 201 -24 c 0
 93 -24 18 72 18 180 c 0xf2
 18 255 48 303 84 345 c 1
EndSplineSet
EndChar

StartChar: nine.ss02
Encoding: 65673 -1 333
Width: 570
VWidth: 0
Flags: W
HStem: 255 105<202.049 358.006> 556 98<207.777 356.422>
VStem: 51 114<398.227 514.586> 400 116<399.981 517.338>
LayerCount: 2
Fore
SplineSet
278 556 m 4
 220 556 165 518 165 460 c 28
 165 401 204 360 279 360 c 4
 349 360 400 398 400 459 c 4
 400 520 347 556 278 556 c 4
298 -9 m 13
 226 69 l 21
 284 128 334 193 369 264 c 13
 340 260 325 255 296 255 c 4
 178 255 51 332 51 462 c 4
 51 578 163 654 279 654 c 4
 423 654 516 575 516 446 c 4
 516 249 432 119 298 -9 c 13
EndSplineSet
EndChar

StartChar: period.ss02
Encoding: 65674 -1 334
Width: 222
VWidth: 0
Flags: W
HStem: -9 108<33.7325 120.268>
VStem: 23.0001 108<1.73241 88.2676>
LayerCount: 2
Fore
SplineSet
23.0001 45 m 4
 23.0001 74.808 47.1921 99 77.0001 99 c 4
 106.808 99 131 74.808 131 45 c 4
 131 15.192 106.808 -9 77.0001 -9 c 4
 47.1921 -9 23.0001 15.192 23.0001 45 c 4
EndSplineSet
EndChar
